<?xml version="1.0" standalone="no"?>
<!DOCTYPE svg PUBLIC "-//W3C//DTD SVG 1.1//EN" "http://www.w3.org/Graphics/SVG/1.1/DTD/svg11.dtd" >
<svg xmlns="http://www.w3.org/2000/svg">
<metadata>
Created by FontPrep 20130207 at Wed Aug 19 00:26:03 2015
 By Lucas Germano
Copyright (c) 2004 Linotype Library GmbH, www.linotype.com. All rights reserved. This software may not be reproduced, used, displayed, modified, disclosed or transferred without the express written approval of Linotype Library GmbH. Avenir is a trademark of Heidelberger Druckmaschinen AG, exclusively licensed through Linotype Library GmbH, and may be registered in certain jurisdictions. This typeface is original artwork of Adrian Frutiger and Akira Kobayashi. The design may be protected in certain jurisdictions.
</metadata>
<defs>
<font id="fa20c367c6a148cda65f50238befb5f2" horiz-adv-x='1024' >
  <font-face 
    font-family="AvenirNextLTPro-Regular"
    font-weight="400"
    font-stretch="normal"
    units-per-em="2048"
    panose-1="2 11 5 4 2 2 2 2 2 4"
    ascent="1548"
    descent="-500"
    x-height="958"
    cap-height="1450"
    bbox="-420 -512 1997 1935"
    underline-thickness="102"
    underline-position="-102"
    unicode-range="U+000D-FB02"
  />
<missing-glyph horiz-adv-x="1048" 
d="M1049 1470v-1470h-1049v1470h1049zM946 102v1264h-844v-1264h844zM524 1145q-145 0 -168 -195l-102 17q14 141 88 211t186 70t185 -74q72 -74 71 -195q0 -70 -26 -123t-103 -122q-76 -68 -88 -108t-12 -147h-94l-4 35q1 115 29 169t92 118q63 59 82 94q20 35 20 93
t-46 107q-46 50 -110 50zM455 240v137h114v-137h-114z" />
    <glyph glyph-name="IJ" unicode="IJ" horiz-adv-x="1503" 
d="M1176 428v1022h147v-1032q0 -224 -105 -340q-105 -115 -271 -115q-165 0 -269 82t-131 213l137 37q18 -88 80 -145t156 -58q256 0 256 336zM340 1450v-1450h-147v1450h147z" />
    <glyph glyph-name="ij" unicode="ij" horiz-adv-x="1019" 
d="M862 1327q0 -41 -30 -70t-68 -29q-39 0 -69 30q-30 28 -29 69q0 41 29 70q30 29 69 29t69 -29q29 -29 29 -70zM694 958h140v-1148q0 -301 -273 -302q-61 1 -110 15l20 117q41 -12 88 -13q82 0 109 51t26 154v1126zM354 1327q0 -41 -30 -70t-68 -29q-39 0 -69 30
q-30 28 -29 69q0 41 29 70q30 29 69 29t69 -29q29 -29 29 -70zM326 958v-958h-140v958h140z" />
    <glyph glyph-name="napostrophe" unicode="&#x22;n" horiz-adv-x="1189" 
d="M217 1548l-156 -379h-116l127 379h145zM317 795h5q39 82 132 135t195 53q177 0 271 -106t94 -289v-588h-140v530q0 162 -58 249t-190 87t-218 -97q-84 -97 -84 -277v-492h-140v748q0 122 -8 210h133q8 -102 8 -163z" />
    <glyph glyph-name="fi" unicode="fi" horiz-adv-x="1114" 
d="M590 958v-116h-225v-842h-140v842h-200v116h200v263q0 166 82 259t244 93q66 0 115 -14l-25 -123q-49 14 -96 14q-105 0 -143 -64t-37 -182v-246h225zM956 1327q0 -41 -30 -70t-68 -29t-68 30q-30 28 -30 69t30 70t68 29t69 -29q29 -29 29 -70zM926 958v-958h-140v958
h140z" />
    <glyph glyph-name="fl" unicode="fl" horiz-adv-x="1114" 
d="M590 958v-116h-225v-842h-140v842h-200v116h200v263q0 166 82 259t244 93q66 0 115 -14l-25 -123q-49 14 -96 14q-105 0 -143 -64t-37 -182v-246h225zM926 1548v-1548h-140v1548h140z" />
    <glyph glyph-name=".notdef" horiz-adv-x="1048" 
d="M1049 1470v-1470h-1049v1470h1049zM946 102v1264h-844v-1264h844zM524 1145q-145 0 -168 -195l-102 17q14 141 88 211t186 70t185 -74q72 -74 71 -195q0 -70 -26 -123t-103 -122q-76 -68 -88 -108t-12 -147h-94l-4 35q1 115 29 169t92 118q63 59 82 94q20 35 20 93
t-46 107q-46 50 -110 50zM455 240v137h114v-137h-114z" />
    <glyph glyph-name=".null" horiz-adv-x="1024" 
 />
    <glyph glyph-name=".null" horiz-adv-x="1024" 
 />
    <glyph glyph-name="nonmarkingreturn" horiz-adv-x="681" 
 />
    <glyph glyph-name="CR" unicode="&#xd;" horiz-adv-x="0" 
 />
    <glyph glyph-name="space" unicode=" " horiz-adv-x="512" 
 />
    <glyph glyph-name="exclam" unicode="!" horiz-adv-x="671" 
d="M446 98q0 -45 -32 -78q-32 -32 -78 -32q-47 0 -79 32t-32 78q0 45 32 78t79 33q46 0 78 -33t32 -78zM410 1450v-1057h-148v1057h148z" />
    <glyph glyph-name="quotedbl" unicode="&#x22;" horiz-adv-x="829" 
d="M502 969v481h123v-481h-123zM205 969v481h123v-481h-123z" />
    <glyph glyph-name="numbersign" unicode="#" horiz-adv-x="1138" 
d="M467 893l-45 -332h272l45 332h-272zM72 438v123h225l45 332h-221v123h239l60 434h125l-60 -434h273l59 434h125l-59 -434h184v-123h-203l-45 -332h195v-123h-211l-62 -438h-125l62 438h-272l-62 -438h-125l62 438h-209z" />
    <glyph glyph-name="dollar" unicode="$" horiz-adv-x="1187" 
d="M143 1085q0 173 114 277t282 113v147h98v-147q105 -5 209 -47t170 -119l-113 -86q-94 133 -266 137v-563q93 -33 155 -63q173 -83 227 -203q34 -73 34 -169q0 -168 -119 -276t-297 -111v-147h-98v147q-266 6 -433 218l117 81q51 -84 145 -131t171 -49v588
q-286 87 -362 244q-34 70 -34 159zM905 373q0 100 -72 173q-73 72 -196 111v-563q106 4 187 72t81 207zM539 831v529q-109 -4 -182 -77t-72 -185q0 -197 254 -267z" />
    <glyph glyph-name="percent" unicode="%" horiz-adv-x="1705" 
d="M1366 1458l-922 -1521l-106 55l924 1521zM1505 334q0 100 -69 168q-70 68 -168 68t-168 -68t-70 -168t70 -168t168 -68t168 68q69 68 69 168zM1628 334q0 -152 -104 -255t-256 -103t-256 102q-104 104 -105 256q1 152 105 255t256 103t256 -103t104 -255zM676 1116
q0 100 -70 168t-168 68t-168 -68t-70 -168t70 -168t168 -68t168 68t70 168zM799 1116q-1 -152 -105 -255t-256 -103t-256 103t-104 255t104 255t256 103t256 -102q104 -104 105 -256z" />
    <glyph glyph-name="ampersand" unicode="&#x26;" horiz-adv-x="1441" 
d="M252 375q0 -121 88 -199t209 -78t201 51t151 162l-383 402q-266 -119 -266 -338zM827 1155q0 95 -58 153t-150 58q-91 0 -153 -61t-62 -147t52 -166q52 -81 105 -124q121 55 194 124q72 69 72 163zM100 377q0 283 336 430q-176 180 -176 338t104 250t255 92t251 -88
q100 -87 100 -227t-88 -229q-89 -89 -237 -163l338 -348l201 352h166l-267 -448l326 -336h-205l-205 215q-90 -125 -195 -182t-251 -58q-195 1 -324 107t-129 295z" />
    <glyph glyph-name="quotesingle" unicode="'" horiz-adv-x="532" 
d="M205 969v481h123v-481h-123z" />
    <glyph glyph-name="parenleft" unicode="(" horiz-adv-x="614" 
d="M201 590q-1 -228 73 -452t197 -396l-106 -68q-135 178 -218 420q-82 242 -81 496q0 254 82 496t217 419l106 -67q-123 -172 -197 -396t-73 -452z" />
    <glyph glyph-name="parenright" unicode=")" horiz-adv-x="614" 
d="M414 590q0 229 -74 452t-197 396l107 67q135 -178 217 -420q82 -241 82 -495t-82 -496t-217 -420l-107 68q123 172 197 396t74 452z" />
    <glyph glyph-name="asterisk" unicode="*" horiz-adv-x="909" 
d="M516 1450v-293l287 92l43 -114l-289 -93l184 -247l-98 -74l-188 254l-189 -254l-98 74l184 247l-289 93l43 114l287 -92v293h123z" />
    <glyph glyph-name="plus" unicode="+" horiz-adv-x="1363" 
d="M743 1143v-461h461v-123h-461v-461h-122v461h-461v123h461v461h122z" />
    <glyph glyph-name="comma" unicode="," horiz-adv-x="532" 
d="M375 195l-166 -482h-117l137 482h146z" />
    <glyph glyph-name="hyphen" unicode="-" horiz-adv-x="655" 
d="M557 555v-117h-459v117h459z" />
    <glyph glyph-name="period" unicode="." horiz-adv-x="532" 
d="M377 98q0 -45 -32 -78q-32 -32 -79 -32t-79 32t-31 78q0 45 31 78q32 33 79 33t79 -33t32 -78z" />
    <glyph glyph-name="slash" unicode="/" horiz-adv-x="757" 
d="M748 1446l-619 -1483l-119 39l621 1485z" />
    <glyph glyph-name="zero" unicode="0" horiz-adv-x="1187" 
d="M593 1362q-250 0 -309 -416q-52 -360 50 -646q35 -97 101 -154q67 -56 158 -56q248 0 310 411q16 105 17 222q0 237 -68 427q-35 97 -101 155q-67 57 -158 57zM606 1487q118 0 213 -65q169 -114 225 -420q25 -130 25 -280q0 -299 -101 -518q-52 -112 -148 -176t-227 -65
q-130 0 -226 65q-168 114 -225 415q-24 128 -23 280q-1 570 285 720q84 44 202 44z" />
    <glyph glyph-name="one" unicode="1" horiz-adv-x="1187" 
d="M733 1450v-1450h-147v1268l-262 -224l-91 103l369 303h131z" />
    <glyph glyph-name="two" unicode="2" horiz-adv-x="1187" 
d="M1032 131v-131h-928v154l594 600q174 178 174 331q0 123 -82 200q-83 77 -201 77t-198 -72t-104 -186l-146 29q31 156 154 255t300 99q177 -1 302 -105t125 -295q0 -127 -59 -224t-177 -214l-522 -518h768z" />
    <glyph glyph-name="three" unicode="3" horiz-adv-x="1187" 
d="M438 696v127h64q152 0 244 65t94 193q0 129 -84 205t-203 76q-188 0 -277 -170l-124 65q133 229 409 230q180 1 302 -103t122 -286q0 -125 -71 -213t-181 -119v-4q129 -27 211 -123t82 -238q0 -201 -135 -319t-313 -119q-350 0 -478 297l140 51q36 -102 122 -161
q86 -60 207 -60t215 85t94 233t-108 218q-109 71 -268 70h-64z" />
    <glyph glyph-name="four" unicode="4" horiz-adv-x="1187" 
d="M750 479v805h-5l-505 -805h510zM893 1450v-971h213v-129h-213v-350h-143v350h-664v144l614 956h193z" />
    <glyph glyph-name="five" unicode="5" horiz-adv-x="1187" 
d="M973 1450v-131h-604l-11 -449q90 33 201 33q205 0 338 -127q133 -126 133 -332t-134 -344t-347 -137q-303 0 -434 264l133 60q39 -89 119 -143t174 -54q147 0 243 98t96 251t-100 248q-102 95 -257 95t-304 -80l14 748h740z" />
    <glyph glyph-name="six" unicode="6" horiz-adv-x="1187" 
d="M270 420q0 -144 91 -238t233 -94t232 94q92 94 92 238t-88 235q-88 93 -236 93t-236 -92t-88 -236zM623 866q190 0 316 -125t126 -323t-133 -327q-133 -128 -338 -128t-338 128q-133 129 -133 319t131 403l395 637h170l-407 -633l4 -4q70 53 207 53z" />
    <glyph glyph-name="seven" unicode="7" horiz-adv-x="1187" 
d="M1020 1450v-135l-584 -1315h-166l600 1319h-710v131h860z" />
    <glyph glyph-name="eight" unicode="8" horiz-adv-x="1187" 
d="M594 700q-142 0 -230 -86t-88 -218t88 -220t230 -88q141 0 229 88t88 220t-88 218t-229 86zM594 831q114 0 190 74t76 189q0 116 -76 192t-190 76t-190 -76t-76 -192q0 -115 76 -189t190 -74zM1059 381q0 -184 -136 -301t-329 -117t-329 117t-136 301q0 143 77 247
t197 140v4q-96 33 -157 124t-62 204q0 172 120 280t290 107q170 0 290 -108t120 -279q0 -113 -62 -204t-158 -124v-4q121 -35 198 -139t77 -248z" />
    <glyph glyph-name="nine" unicode="9" horiz-adv-x="1187" 
d="M922 1030q0 144 -92 238t-232 94q-141 0 -232 -94q-92 -94 -92 -238t88 -235q88 -93 236 -93t236 92t88 236zM569 584q-190 0 -316 125t-126 323t133 327q133 128 338 128t338 -128q133 -129 133 -319t-131 -403l-395 -637h-170l407 633l-4 4q-70 -53 -207 -53z" />
    <glyph glyph-name="colon" unicode=":" horiz-adv-x="614" 
d="M418 98q0 -45 -32 -78q-32 -32 -79 -32t-79 32t-31 78q0 45 31 78q32 33 79 33t79 -33t32 -78zM418 860q0 -45 -32 -78q-32 -32 -79 -32t-79 32t-31 78q0 45 31 78q32 33 79 33t79 -33t32 -78z" />
    <glyph glyph-name="semicolon" unicode=";" horiz-adv-x="614" 
d="M408 195l-166 -482h-123l137 482h152zM418 860q0 -45 -32 -78q-32 -32 -79 -32t-79 32t-31 78q0 45 31 78q32 33 79 33t79 -33t32 -78z" />
    <glyph glyph-name="less" unicode="&#x3c;" horiz-adv-x="1363" 
d="M1204 1155v-123l-878 -411l878 -412v-123l-1044 487v95z" />
    <glyph glyph-name="equal" unicode="=" horiz-adv-x="1363" 
d="M160 528h1044v-122h-1044v122zM160 836h1044v-123h-1044v123z" />
    <glyph glyph-name="greater" unicode="&#x3e;" horiz-adv-x="1363" 
d="M160 1032v123l1044 -487v-95l-1044 -487v123l878 412z" />
    <glyph glyph-name="question" unicode="?" horiz-adv-x="987" 
d="M614 98q0 -45 -32 -78q-32 -32 -78 -32q-47 0 -79 32t-32 78q0 45 32 78t79 33q46 0 78 -33t32 -78zM561 487v-94h-143v123q0 104 42 173t122 138l57 52q119 96 119 218q0 123 -73 187t-181 64t-179 -67t-87 -173l-140 25q31 157 142 249q110 92 274 92t278 -96t113 -264
q-1 -84 -29 -150t-61 -100q-33 -36 -111 -100t-111 -118q-32 -54 -32 -159z" />
    <glyph glyph-name="at" unicode="@" horiz-adv-x="1638" 
d="M854 -37q-350 0 -566 212t-216 543t228 550t554 219q289 0 502 -163q102 -79 162 -207t61 -288q0 -237 -115 -369t-282 -132q-86 0 -132 43t-46 106h-9q-25 -53 -95 -101t-161 -48q-137 0 -217 94t-80 260t114 304t294 138q76 0 133 -34t80 -89h8l21 93h127l-82 -381
q-23 -102 -23 -164q0 -102 100 -103q100 0 164 106t64 263q0 257 -163 401t-435 144t-445 -183q-174 -183 -174 -466t177 -454t466 -171q332 0 553 215l76 -94q-238 -244 -643 -244zM844 1001q-115 0 -184 -106t-68 -238q0 -79 38 -145t126 -66q126 0 192 110t66 235
q0 210 -170 210z" />
    <glyph glyph-name="A" unicode="A" horiz-adv-x="1433" 
d="M715 1286l-320 -770h639zM340 381l-158 -381h-162l627 1450h144l622 -1450h-164l-159 381h-750z" />
    <glyph glyph-name="B" unicode="B" horiz-adv-x="1302" 
d="M340 694v-567h274q174 0 287 70t113 212t-96 214t-277 71h-301zM340 1323v-508h297q125 -1 216 61t91 193t-96 193t-252 61h-256zM193 0v1450h432q189 0 315 -75q152 -87 152 -301q0 -110 -71 -194t-185 -112v-4q145 -16 236 -112t91 -265q0 -167 -145 -277t-395 -110
h-430z" />
    <glyph glyph-name="C" unicode="C" horiz-adv-x="1474" 
d="M870 -37q-328 0 -542 216t-213 546q0 330 215 546t540 216q160 -1 300 -63t216 -167l-122 -90q-50 79 -156 135t-236 56q-272 0 -437 -184t-165 -448t166 -450q166 -184 442 -184t420 215l115 -74q-78 -119 -218 -195t-325 -75z" />
    <glyph glyph-name="D" unicode="D" horiz-adv-x="1550" 
d="M340 1319v-1188h293q157 0 283 50q232 92 323 325q41 104 41 219q0 233 -160 409q-78 85 -204 135t-283 50h-293zM193 0v1450h481q288 0 516 -179q110 -87 178 -229t68 -317q0 -174 -68 -316q-125 -260 -422 -363q-133 -46 -272 -46h-481z" />
    <glyph glyph-name="E" unicode="E" horiz-adv-x="1212" 
d="M340 690v-559h776v-131h-923v1450h899v-131h-752v-500h702v-129h-702z" />
    <glyph glyph-name="F" unicode="F" horiz-adv-x="1150" 
d="M340 686v-686h-147v1450h874v-131h-727v-504h676v-129h-676z" />
    <glyph glyph-name="G" unicode="G" horiz-adv-x="1595" 
d="M868 1358q-266 0 -432 -184t-166 -448t166 -447q166 -185 425 -185t403 94v441h-338v129h485v-654q-237 -141 -553 -141t-530 216t-213 546q0 330 215 546q214 216 540 216t525 -195l-103 -102q-158 168 -424 168z" />
    <glyph glyph-name="H" unicode="H" horiz-adv-x="1470" 
d="M193 0v1450h147v-629h790v629h148v-1450h-148v686h-790v-686h-147z" />
    <glyph glyph-name="I" unicode="I" horiz-adv-x="532" 
d="M340 1450v-1450h-147v1450h147z" />
    <glyph glyph-name="J" unicode="J" horiz-adv-x="1007" 
d="M680 428v1022h147v-1032q0 -222 -113 -349q-97 -106 -262 -106q-166 0 -270 82t-131 213l137 37q18 -88 80 -145t156 -58q256 0 256 336z" />
    <glyph glyph-name="K" unicode="K" horiz-adv-x="1286" 
d="M340 1450v-651h2l690 651h211l-731 -657l772 -793h-217l-725 772h-2v-772h-147v1450h147z" />
    <glyph glyph-name="L" unicode="L" horiz-adv-x="1044" 
d="M340 1450v-1319h676v-131h-823v1450h147z" />
    <glyph glyph-name="M" unicode="M" horiz-adv-x="1814" 
d="M1622 1450v-1450h-147v1260h-5l-524 -1260h-78l-524 1260h-4v-1260h-147v1450h225l491 -1200h2l486 1200h225z" />
    <glyph glyph-name="N" unicode="N" horiz-adv-x="1564" 
d="M1225 215v1235h147v-1450h-184l-844 1247h-4v-1247h-147v1450h184l844 -1235h4z" />
    <glyph glyph-name="O" unicode="O" horiz-adv-x="1740" 
d="M1470 725q0 264 -164 449q-166 184 -436 184t-435 -184t-165 -448t165 -448t435 -184t435 184t165 447zM1626 725q0 -330 -215 -546t-541 -216t-540 216t-215 546q0 330 215 546q214 216 540 216t541 -216t215 -546z" />
    <glyph glyph-name="P" unicode="P" horiz-adv-x="1187" 
d="M340 1323v-524h250q172 -1 263 67t91 197q0 260 -354 260h-250zM193 0v1450h409q226 0 358 -98t132 -288t-134 -290t-360 -100h-258v-674h-147z" />
    <glyph glyph-name="Q" unicode="Q" horiz-adv-x="1726" 
d="M1677 131v-131h-829q-315 0 -524 211t-209 533t209 532q209 211 523 211t523 -211t209 -533q0 -195 -87 -355t-253 -253v-4h438zM270 743q0 -254 159 -434t418 -180t420 180t160 434q0 254 -160 435q-161 180 -420 180t-418 -180t-159 -435z" />
    <glyph glyph-name="R" unicode="R" horiz-adv-x="1226" 
d="M340 1323v-518h256q178 -1 274 65t97 193q0 260 -365 260h-262zM340 678v-678h-147v1450h425q228 0 362 -93t134 -294q0 -158 -103 -256t-268 -117l424 -690h-180l-401 678h-246z" />
    <glyph glyph-name="S" unicode="S" horiz-adv-x="1155" 
d="M596 1362q-121 0 -215 -72t-94 -186t61 -178q23 -25 75 -52q52 -26 82 -36q31 -10 99 -33t90 -30t81 -32q60 -25 84 -42q100 -71 121 -113q52 -105 52 -207q0 -203 -141 -311t-332 -107q-137 0 -259 55t-198 160l127 94q51 -82 137 -132t204 -50q116 0 214 75t99 206
q0 162 -153 236q-65 32 -176 67q-112 36 -170 62q-162 74 -213 187q-32 71 -32 184t73 207q135 174 390 173q137 0 246 -50t164 -126l-117 -94q-102 145 -299 145z" />
    <glyph glyph-name="T" unicode="T" horiz-adv-x="1167" 
d="M657 1319v-1319h-147v1319h-485v131h1118v-131h-486z" />
    <glyph glyph-name="U" unicode="U" horiz-adv-x="1454" 
d="M727 -37q-125 0 -222 38t-157 95q-59 57 -97 137q-65 136 -67 308v909h148v-893q0 -197 95 -330t300 -133t300 133t95 330v893h148v-909q0 -167 -67 -308q-38 -80 -97 -137q-58 -57 -156 -95t-223 -38z" />
    <glyph glyph-name="V" unicode="V" horiz-adv-x="1275" 
d="M166 1450l471 -1260h4l471 1260h158l-555 -1450h-156l-553 1450h160z" />
    <glyph glyph-name="W" unicode="W" horiz-adv-x="1990" 
d="M184 1450l359 -1247h4l362 1247h176l363 -1247h4l354 1247h156l-428 -1450h-172l-365 1245h-4l-364 -1245h-172l-428 1450h155z" />
    <glyph glyph-name="X" unicode="X" horiz-adv-x="1329" 
d="M270 1450l398 -586l395 586h176l-481 -690l532 -760h-184l-442 653l-441 -653h-184l532 762l-485 688h184z" />
    <glyph glyph-name="Y" unicode="Y" horiz-adv-x="1232" 
d="M690 0h-147v625l-543 825h184l437 -702l440 702h172l-543 -825v-625z" />
    <glyph glyph-name="Z" unicode="Z" horiz-adv-x="1171" 
d="M1096 1450v-123l-846 -1196h858v-131h-1045v123l848 1196h-825v131h1010z" />
    <glyph glyph-name="bracketleft" unicode="[" horiz-adv-x="614" 
d="M451 1499v-110h-197v-1598h197v-110h-332v1818h332z" />
    <glyph glyph-name="backslash" unicode="\" horiz-adv-x="757" 
d="M629 -37l-619 1483l117 41l621 -1485z" />
    <glyph glyph-name="bracketright" unicode="]" horiz-adv-x="614" 
d="M164 -319v110h196v1598h-196v110h332v-1818h-332z" />
    <glyph glyph-name="asciicircum" unicode="^" horiz-adv-x="1363" 
d="M164 563l469 887h98l469 -887h-127l-391 740l-391 -740h-127z" />
    <glyph glyph-name="underscore" unicode="_" horiz-adv-x="1024" 
d="M0 -256v102h1024v-102h-1024z" />
    <glyph glyph-name="grave" unicode="`" 
d="M250 1155l-270 295h186l205 -295h-121z" />
    <glyph glyph-name="a" unicode="a" horiz-adv-x="1093" 
d="M788 479h-40q-351 0 -449 -98q-43 -43 -43 -123t66 -124t159 -44q141 0 225 92q83 92 82 226v71zM788 588v30q0 248 -256 248q-172 0 -284 -112l-78 92q137 137 377 137q164 0 268 -90t105 -258v-420q0 -129 16 -215h-125q-14 82 -14 156h-4q-125 -180 -349 -181
q-129 0 -230 73t-101 218t99 216t242 88q142 18 334 18z" />
    <glyph glyph-name="b" unicode="b" horiz-adv-x="1304" 
d="M1042 479q0 166 -97 277q-97 110 -261 110t-268 -110t-104 -277q0 -165 104 -275t268 -110t261 110t97 275zM328 162v-162h-140v1548h140v-755h4q59 90 157 140t205 50q220 0 358 -144q138 -143 138 -359t-137 -360t-359 -145q-106 -1 -204 49t-158 138h-4z" />
    <glyph glyph-name="c" unicode="c" horiz-adv-x="1024" 
d="M629 866q-164 0 -265 -110q-102 -110 -102 -276t100 -276t266 -110t259 125l104 -78q-135 -166 -364 -166q-229 1 -371 143t-141 361q0 219 141 361t371 143q101 0 199 -43t157 -123l-109 -78q-36 55 -102 91t-143 36z" />
    <glyph glyph-name="d" unicode="d" horiz-adv-x="1304" 
d="M262 479q0 -165 97 -275t261 -110t269 110q104 110 104 276t-104 276t-268 110t-262 -110q-97 -111 -97 -277zM115 479q0 215 137 359t358 145q106 0 204 -50t159 -140h4v755h139v-1548h-139v162h-4q-59 -88 -157 -137t-206 -50q-221 1 -358 145t-137 359z" />
    <glyph glyph-name="e" unicode="e" horiz-adv-x="1171" 
d="M1057 508q0 -41 -2 -66h-795q4 -145 104 -246t246 -102q100 0 182 48t126 118l104 -82q-160 -203 -412 -203q-213 -1 -354 143t-141 360t139 360t350 145q211 0 332 -134t121 -341zM603 866q-139 0 -235 -93t-106 -220h653q-6 139 -89 226t-223 87z" />
    <glyph glyph-name="f" unicode="f" horiz-adv-x="604" 
d="M590 958v-116h-225v-842h-140v842h-200v116h200v263q0 166 82 259t244 93q66 0 115 -14l-25 -123q-49 14 -96 14q-105 0 -143 -64t-37 -182v-246h225z" />
    <glyph glyph-name="g" unicode="g" horiz-adv-x="1294" 
d="M262 492q0 -158 97 -266t263 -108t268 104q103 104 103 264t-105 270t-268 110q-162 0 -260 -108t-98 -266zM977 8v180h-4q-53 -86 -155 -137t-208 -51q-221 0 -358 137t-137 348t138 355t357 143q109 0 208 -50t155 -140h4v165h139v-950q0 -179 -100 -326
q-53 -79 -161 -126q-108 -48 -249 -48t-263 52t-208 141l101 106q59 -75 159 -125t207 -51q195 1 285 105t90 272z" />
    <glyph glyph-name="h" unicode="h" horiz-adv-x="1193" 
d="M328 801h4q37 82 128 132t193 50q177 0 271 -106t94 -289v-588h-139v530q-1 162 -59 249t-190 87t-218 -97q-84 -97 -84 -277v-492h-140v1548h140v-747z" />
    <glyph glyph-name="i" unicode="i" horiz-adv-x="512" 
d="M354 1327q0 -41 -30 -70t-68 -29q-39 0 -69 30q-30 28 -29 69q0 41 29 70q30 29 69 29t69 -29q29 -29 29 -70zM326 958v-958h-140v958h140z" />
    <glyph glyph-name="j" unicode="j" horiz-adv-x="514" 
d="M356 1327q0 -41 -30 -70t-68 -29q-39 0 -69 30q-30 28 -29 69q0 41 29 70q30 29 69 29t69 -29q29 -29 29 -70zM188 958h140v-1148q0 -301 -273 -302q-61 1 -110 15l20 117q41 -12 88 -13q82 0 109 51t26 154v1126z" />
    <glyph glyph-name="k" unicode="k" horiz-adv-x="1044" 
d="M328 1548v-1022h6l442 432h201l-483 -438l532 -520h-205l-487 504h-6v-504h-140v1548h140z" />
    <glyph glyph-name="l" unicode="l" horiz-adv-x="516" 
d="M328 1548v-1548h-140v1548h140z" />
    <glyph glyph-name="m" unicode="m" horiz-adv-x="1808" 
d="M637 983q217 0 295 -203q100 203 336 203q178 0 271 -106t93 -289v-588h-139v530q0 336 -248 336q-139 0 -206 -103t-66 -253v-510h-139v559q0 151 -50 229t-172 78q-120 0 -204 -97t-84 -277v-492h-140v748q0 123 -8 210h133q8 -102 8 -163h5q43 84 128 136t187 52z" />
    <glyph glyph-name="n" unicode="n" horiz-adv-x="1189" 
d="M317 795h5q39 82 132 135t195 53q177 0 271 -106t94 -289v-588h-140v530q0 162 -58 249t-190 87t-218 -97q-84 -97 -84 -277v-492h-140v748q0 122 -8 210h133q8 -102 8 -163z" />
    <glyph glyph-name="o" unicode="o" horiz-adv-x="1251" 
d="M989 479q0 166 -100 277q-100 110 -263 110t-264 -110q-100 -111 -100 -276q0 -166 100 -276t264 -110t263 110q100 110 100 275zM1137 479q-1 -217 -145 -360t-366 -143t-366 142q-144 144 -145 361q0 217 144 361q145 144 367 143q222 1 366 -143t145 -361z" />
    <glyph glyph-name="p" unicode="p" horiz-adv-x="1300" 
d="M1038 479q0 166 -97 277q-97 110 -261 110t-268 -110t-104 -277q0 -165 104 -275t268 -110t261 110t97 275zM324 162v-654h-140v1450h140v-165h6q57 90 155 140t205 50q220 0 358 -144q138 -143 138 -359t-137 -360t-359 -145q-104 -1 -202 49t-158 138h-6z" />
    <glyph glyph-name="q" unicode="q" horiz-adv-x="1300" 
d="M262 479q0 -165 97 -275t261 -110t269 110q104 110 104 276t-104 276t-268 110t-262 -110q-97 -111 -97 -277zM977 162h-6q-59 -88 -157 -137t-204 -50q-221 1 -358 145t-137 359t137 359t358 145q106 0 204 -50t157 -140h6v165h139v-1450h-139v654z" />
    <glyph glyph-name="r" unicode="r" horiz-adv-x="737" 
d="M184 748q0 123 -8 210h133q8 -102 8 -163h5q41 84 123 136q83 52 161 52t115 -10l-19 -131q-33 12 -98 12q-121 0 -201 -91t-79 -271v-492h-140v748z" />
    <glyph glyph-name="s" unicode="s" horiz-adv-x="909" 
d="M456 866q-80 0 -140 -38t-60 -108t53 -106t199 -66q308 -62 309 -276q0 -152 -105 -224t-255 -73q-252 0 -379 187l110 82q39 -66 112 -108t163 -42t153 40q64 40 64 120t-67 119t-168 62t-140 37t-85 44q-99 62 -98 194t100 202t222 71q124 0 218 -46t139 -126l-107 -80
q-31 61 -94 98t-144 37z" />
    <glyph glyph-name="t" unicode="t" horiz-adv-x="649" 
d="M616 958v-116h-270v-559q0 -101 37 -139t101 -38t126 31l6 -121q-76 -28 -168 -28t-167 57q-74 57 -74 199v598h-199v116h199v271h139v-271h270z" />
    <glyph glyph-name="u" unicode="u" horiz-adv-x="1189" 
d="M176 371v587h139v-530q1 -162 59 -249t190 -87t217 97t85 278v491h140v-747q0 -123 8 -211h-133q-8 102 -9 164h-4q-39 -82 -132 -135t-195 -54q-177 1 -271 107t-94 289z" />
    <glyph glyph-name="v" unicode="v" horiz-adv-x="999" 
d="M967 958l-389 -958h-154l-391 958h155l312 -811h4l313 811h150z" />
    <glyph glyph-name="w" unicode="w" horiz-adv-x="1527" 
d="M53 958h150l231 -778h4l258 778h135l263 -778h4l229 778h148l-304 -958h-151l-256 776h-4l-252 -776h-152z" />
    <glyph glyph-name="x" unicode="x" horiz-adv-x="991" 
d="M33 0l377 496l-355 462h178l263 -364l262 364h168l-348 -456l380 -502h-180l-284 399l-293 -399h-168z" />
    <glyph glyph-name="y" unicode="y" horiz-adv-x="999" 
d="M188 958l326 -808h4l297 808h152l-478 -1206q-47 -121 -115 -182t-186 -62q-63 0 -125 13l15 127q141 -46 212 25q42 42 75 128l77 201l-409 956h155z" />
    <glyph glyph-name="z" unicode="z" horiz-adv-x="905" 
d="M821 958v-98l-573 -739h594v-121h-779v98l572 744h-543v116h729z" />
    <glyph glyph-name="braceleft" unicode="{" horiz-adv-x="614" 
d="M0 528v123q80 -1 121 59t41 169v364q0 135 61 195t160 61h129v-110h-98q-117 0 -117 -170v-365q-1 -129 -63 -191t-119 -71v-4q57 -8 119 -70t63 -192v-365q0 -170 117 -170h98v-110h-129q-98 0 -160 60q-61 60 -61 196v364q0 109 -41 168t-121 59z" />
    <glyph glyph-name="bar" unicode="|" horiz-adv-x="454" 
d="M166 1536h123v-2048h-123v2048z" />
    <glyph glyph-name="braceright" unicode="}" horiz-adv-x="614" 
d="M614 528q-161 0 -161 -227v-364q1 -135 -61 -195t-161 -61h-129v110h99q117 0 116 170v365q1 129 63 191t120 71v4q-58 8 -120 70t-63 192v365q0 170 -116 170h-99v110h129q97 0 159 -60t63 -196v-364q0 -109 41 -168t120 -60v-123z" />
    <glyph glyph-name="asciitilde" unicode="~" horiz-adv-x="1363" 
d="M465 637q-115 0 -197 -150l-86 82q39 55 71 90t89 68t119 33q117 0 237 -78t199 -78q109 0 199 150l86 -82q-123 -190 -279 -191q-113 0 -235 78t-203 78z" />
    <glyph glyph-name="uni00A0" unicode="&#xa0;" horiz-adv-x="512" 
 />
    <glyph glyph-name="exclamdown" unicode="&#xa1;" horiz-adv-x="671" 
d="M446 883q0 -45 -32 -78t-78 -33q-47 0 -79 33t-32 78t32 78t79 33t79 -33q31 -33 31 -78zM410 -469h-148v1057h148v-1057z" />
    <glyph glyph-name="cent" unicode="&#xa2;" horiz-adv-x="1187" 
d="M709 -147h-99v129q-198 20 -314 158t-116 339t116 339t314 159v129h99v-125q201 -10 329 -164l-110 -84q-33 51 -90 86t-129 39v-758q72 4 129 39t90 86l110 -84q-129 -154 -329 -164v-124zM610 104v750q-131 -23 -207 -126q-75 -102 -75 -248t75 -250q76 -103 207 -126z
" />
    <glyph glyph-name="sterling" unicode="&#xa3;" horiz-adv-x="1187" 
d="M854 809v-123h-344v-563h537v-123h-893v123h208v563h-196v123h196v190q0 190 94 331q48 73 135 115t206 42q201 0 317 -123l-96 -104q-88 102 -227 102q-85 0 -145 -37q-136 -84 -136 -338v-178h344z" />
    <glyph glyph-name="currency" unicode="&#xa4;" horiz-adv-x="1761" 
d="M883 1016q-165 0 -269 -111t-104 -273t103 -275q103 -111 269 -111t270 112q103 112 103 274q0 164 -103 274t-269 110zM884 1155q190 0 326 -111q29 27 60 59q30 31 68 69l59 59q31 -29 90 -88l-184 -185q104 -138 104 -330t-113 -331q143 -134 193 -191l-88 -90
l-195 195q-137 -105 -321 -105t-324 109l-199 -199q-57 61 -88 90l197 197q-109 131 -109 323t103 328q-63 61 -191 189q31 29 90 88l189 -189q143 113 333 113z" />
    <glyph glyph-name="yen" unicode="&#xa5;" horiz-adv-x="1187" 
d="M186 457h338v215h-338v110h297l-463 668h183l395 -614l393 614h176l-458 -668h292v-110h-337v-215h337v-111h-337v-346h-140v346h-338v111z" />
    <glyph glyph-name="brokenbar" unicode="&#xa6;" horiz-adv-x="454" 
d="M166 358h123v-716h-123v716zM166 1382h123v-716h-123v716z" />
    <glyph glyph-name="section" unicode="&#xa7;" horiz-adv-x="1187" 
d="M348 659q0 -79 50 -121t171 -94l136 -61q59 14 104 61t45 126t-51 127q-52 48 -148 89l-125 54q-70 -8 -126 -54t-56 -127zM623 1364q-95 0 -155 -49t-60 -134t52 -132t148 -88l178 -84q211 -102 211 -291q0 -96 -51 -168t-131 -101q145 -88 145 -253q0 -164 -111 -250
t-263 -86t-260 59t-156 176l135 66q33 -90 106 -134q73 -45 165 -45t164 48q73 48 73 162t-154 188l-260 125q-92 45 -143 107t-51 164t58 172q58 71 155 102q-158 94 -158 248t108 237q108 84 251 84q143 -1 231 -55t121 -138l-121 -61q-20 53 -76 92t-151 39z" />
    <glyph glyph-name="dieresis" unicode="&#xa8;" 
d="M338 1325q0 41 30 73t74 32t75 -32q30 -32 30 -73t-30 -73t-75 -32q-44 0 -74 32t-30 73zM-55 1325q0 41 29 73q30 32 75 32t75 -32t30 -73t-30 -73t-75 -32t-75 32q-29 32 -29 73z" />
    <glyph glyph-name="copyright" unicode="&#xa9;" horiz-adv-x="1638" 
d="M164 724q0 -271 192 -463q193 -191 464 -191t463 191q191 191 191 463t-190 464q-192 192 -464 192t-464 -192q-192 -193 -192 -464zM1597 724q0 -320 -227 -544t-550 -225q-323 1 -551 225t-228 544t228 546q228 225 551 225t550 -225q227 -226 227 -546zM377 734
q0 200 131 331t332 131q100 0 191 -44t140 -118l-106 -82q-31 49 -92 85t-129 36q-146 0 -236 -99q-90 -100 -90 -240t88 -239t236 -99t239 132l107 -69q-54 -82 -144 -134t-204 -53q-201 0 -332 131t-131 331z" />
    <glyph glyph-name="ordfeminine" unicode="&#xaa;" horiz-adv-x="737" 
d="M500 1159h-31q-266 0 -266 -110q0 -90 121 -91q82 0 129 48t47 122v31zM500 1241v16q0 61 -41 93t-109 32q-104 0 -170 -65l-65 72q96 86 232 86q136 -1 201 -63t64 -163v-252q0 -76 9 -114h-107q-10 45 -10 84h-4q-68 -98 -201 -99q-86 0 -152 43t-65 136q0 126 135 163
q114 31 283 31z" />
    <glyph glyph-name="guillemotleft" unicode="&#xab;" horiz-adv-x="987" 
d="M862 852l-235 -360l235 -361l-96 -68l-287 429l287 428zM489 852l-235 -360l235 -361l-96 -68l-287 429l287 428z" />
    <glyph glyph-name="logicalnot" unicode="&#xac;" horiz-adv-x="1363" 
d="M1204 836v-570h-123v447h-921v123h1044z" />
    <glyph glyph-name="uni00AD" unicode="&#xad;" horiz-adv-x="655" 
d="M557 555v-117h-459v117h459z" />
    <glyph glyph-name="registered" unicode="&#xae;" horiz-adv-x="1228" 
d="M526 1044h76q115 0 115 78q0 72 -105 72h-86v-150zM432 750v524h184q82 0 138 -38t57 -116q0 -115 -121 -141l141 -229h-114l-123 219h-68v-219h-94zM221 1010q0 -162 116 -278q115 -116 277 -116t278 116t116 278t-115 278t-279 115q-164 1 -278 -115t-115 -278z
M147 1010q1 192 137 328t330 136t331 -136q136 -136 136 -328t-136 -327q-136 -134 -331 -134t-331 134t-136 327z" />
    <glyph glyph-name="macron" unicode="&#xaf;" 
d="M522 1339v-110h-553v110h553z" />
    <glyph glyph-name="degree" unicode="&#xb0;" horiz-adv-x="819" 
d="M616 1169q0 87 -60 147t-146 60t-146 -60t-61 -146q0 -86 60 -147q61 -60 147 -60t146 60t60 146zM715 1169q0 -133 -87 -219t-218 -86t-219 86q-87 86 -87 219t87 219t219 87q132 -1 218 -87q87 -86 87 -219z" />
    <glyph glyph-name="plusminus" unicode="&#xb1;" horiz-adv-x="1363" 
d="M160 98v123h1044v-123h-1044zM160 711v123h461v319h122v-319h461v-123h-461v-310h-122v310h-461z" />
    <glyph glyph-name="twosuperior" unicode="&#xb2;" horiz-adv-x="757" 
d="M653 705v-111h-565v117l342 346q88 92 88 176q0 57 -39 92t-97 35t-99 -39t-56 -104l-123 18q20 104 98 171t186 67q108 -1 184 -63t77 -177q-1 -55 -25 -109t-49 -82q-25 -29 -71 -75l-262 -262h411z" />
    <glyph glyph-name="threesuperior" unicode="&#xb3;" horiz-adv-x="757" 
d="M197 817q42 -125 175 -125q64 0 112 39t48 114t-56 111t-140 35h-55v105h55q172 0 172 143q0 55 -41 91t-100 36q-98 0 -154 -102l-102 53q90 158 260 158q113 -1 187 -61t73 -181q0 -121 -117 -182q141 -53 141 -209q0 -123 -83 -192t-203 -68q-209 0 -289 196z" />
    <glyph glyph-name="acute" unicode="&#xb4;" 
d="M512 1450l-270 -295h-121l205 295h186z" />
    <glyph glyph-name="mu" unicode="&#xb5;" horiz-adv-x="1138" 
d="M147 -467v1425h136v-530q0 -180 57 -255q58 -75 194 -75t218 98t82 271v491h135v-747q0 -37 10 -211h-145v156h-5q-45 -74 -137 -127t-184 -54q-141 0 -225 60v-502h-136z" />
    <glyph glyph-name="paragraph" unicode="&#xb6;" horiz-adv-x="1228" 
d="M1051 1450v-1708h-136v1597h-253v-1597h-136v905q-186 0 -307 110t-121 271q0 198 125 310t342 112h486z" />
    <glyph glyph-name="periodcentered" unicode="&#xb7;" horiz-adv-x="532" 
d="M377 643q0 -45 -32 -78t-79 -33t-79 33t-31 78q0 45 31 78q32 33 79 33t79 -33t32 -78z" />
    <glyph glyph-name="cedilla" unicode="&#xb8;" 
d="M463 -305q0 -82 -72 -124t-173 -42t-189 41l32 74q63 -29 127 -29t108 23t44 67q0 80 -111 80q-45 0 -88 -16l-37 30l127 201h88l-96 -154q27 8 83 8t107 -38q50 -39 50 -121z" />
    <glyph glyph-name="onesuperior" unicode="&#xb9;" horiz-adv-x="757" 
d="M475 1450v-864h-125v708l-131 -116l-78 84l230 188h104z" />
    <glyph glyph-name="ordmasculine" unicode="&#xba;" horiz-adv-x="737" 
d="M561 1172q0 88 -51 148t-141 60q-89 0 -141 -60t-52 -148t51 -148q51 -61 141 -61t142 61q51 61 51 148zM57 1172q0 132 88 218q87 86 223 85q136 1 224 -85t88 -218t-88 -218t-223 -86t-224 86q-88 86 -88 218z" />
    <glyph glyph-name="guillemotright" unicode="&#xbb;" horiz-adv-x="987" 
d="M125 131l235 361l-235 360l96 68l287 -428l-287 -429zM498 131l235 361l-235 360l96 68l287 -428l-287 -429z" />
    <glyph glyph-name="onequarter" unicode="&#xbc;" horiz-adv-x="1720" 
d="M1366 1458l-922 -1521l-106 55l924 1521zM475 1450v-864h-125v708l-131 -116l-78 84l230 188h104zM1368 696h-6l-250 -385h256v385zM1481 864v-553h123v-110h-123v-201h-113v201h-385v106l358 557h140z" />
    <glyph glyph-name="onehalf" unicode="&#xbd;" horiz-adv-x="1720" 
d="M475 1450v-864h-125v708l-131 -116l-78 84l230 188h104zM1366 1458l-922 -1521l-106 55l924 1521zM1610 111v-111h-566v117l342 346q88 93 88 163t-38 105q-40 35 -98 35t-99 -39t-55 -104l-123 18q20 104 97 171q78 67 186 67q108 -1 185 -63t77 -177q0 -55 -25 -109
t-49 -82t-72 -75l-262 -262h412z" />
    <glyph glyph-name="threequarters" unicode="&#xbe;" horiz-adv-x="1720" 
d="M1366 1458l-922 -1521l-106 55l924 1521zM197 817q42 -125 175 -125q64 0 112 39t48 114t-56 111t-140 35h-55v105h55q172 0 172 143q0 55 -41 91t-100 36q-98 0 -154 -102l-102 53q90 158 260 158q113 -1 187 -61t73 -181q0 -121 -117 -182q141 -53 141 -209
q0 -123 -83 -192t-203 -68q-209 0 -289 196zM1368 696h-6l-250 -385h256v385zM1481 864v-553h123v-110h-123v-201h-113v201h-385v106l358 557h140z" />
    <glyph glyph-name="questiondown" unicode="&#xbf;" horiz-adv-x="987" 
d="M385 883q0 45 32 78t79 33q46 0 78 -34q32 -32 32 -77t-32 -78t-78 -33t-79 33q-32 33 -32 78zM438 494v94h144v-123q0 -104 -42 -173t-122 -138l-58 -52q-118 -96 -118 -218t72 -186t182 -65q108 0 179 67t87 173l139 -25q-31 -158 -141 -250t-274 -92t-278 96t-114 265
q0 83 29 149t61 101q33 35 112 99q78 64 110 118t32 160z" />
    <glyph glyph-name="Agrave" unicode="&#xc0;" horiz-adv-x="1433" 
d="M664 1565l-271 295h187l204 -295h-120zM715 1286l-320 -770h639zM340 381l-158 -381h-162l627 1450h144l622 -1450h-164l-159 381h-750z" />
    <glyph glyph-name="Aacute" unicode="&#xc1;" horiz-adv-x="1433" 
d="M1047 1860l-271 -295h-121l205 295h187zM715 1286l-320 -770h639zM340 381l-158 -381h-162l627 1450h144l622 -1450h-164l-159 381h-750z" />
    <glyph glyph-name="Acircumflex" unicode="&#xc2;" horiz-adv-x="1433" 
d="M797 1860l223 -295h-135l-170 221l-170 -221h-135l223 295h164zM715 1286l-320 -770h639zM340 381l-158 -381h-162l627 1450h144l622 -1450h-164l-159 381h-750z" />
    <glyph glyph-name="Atilde" unicode="&#xc3;" horiz-adv-x="1433" 
d="M573 1802q55 0 153 -47t134 -47q76 0 101 102h88q-37 -213 -189 -213q-59 -1 -149 47t-138 48q-75 -1 -100 -103h-88q37 213 188 213zM715 1286l-320 -770h639zM340 381l-158 -381h-162l627 1450h144l622 -1450h-164l-159 381h-750z" />
    <glyph glyph-name="Adieresis" unicode="&#xc4;" horiz-adv-x="1433" 
d="M811 1735q0 41 30 73q31 32 75 31q44 0 74 -32q30 -33 30 -73t-30 -72t-75 -32t-75 32t-29 73zM418 1735q0 41 30 73t74 31q45 0 75 -32q30 -33 30 -73t-30 -72t-75 -32t-75 32q-29 32 -29 73zM715 1286l-320 -770h639zM340 381l-158 -381h-162l627 1450h144l622 -1450
h-164l-159 381h-750z" />
    <glyph glyph-name="Aring" unicode="&#xc5;" horiz-adv-x="1433" 
d="M840 1741q0 51 -36 86t-87 35t-87 -35t-36 -86t36 -86t87 -35t87 35t36 86zM913 1741q0 -82 -58 -138q-58 -57 -138 -57t-138 56t-59 139q0 82 58 138t139 56q80 0 138 -56t58 -138zM715 1286l-320 -770h639zM340 381l-158 -381h-162l627 1450h144l622 -1450h-164
l-159 381h-750z" />
    <glyph glyph-name="AE" unicode="&#xc6;" horiz-adv-x="2027" 
d="M1063 535v784h-29l-506 -784h535zM1210 690v-559h707v-131h-854v406h-610l-263 -406h-167l944 1450h925v-131h-682v-500h633v-129h-633z" />
    <glyph glyph-name="Ccedilla" unicode="&#xc7;" horiz-adv-x="1474" 
d="M1038 -305q0 -82 -72 -124t-172 -42q-101 0 -190 41l33 74q63 -29 127 -29t107 23q44 23 44 67q0 80 -110 80q-45 0 -88 -16l-37 30l106 168q-297 29 -484 240t-187 529t215 535q215 216 540 216q160 -1 300 -63t216 -167l-122 -90q-50 79 -156 135t-236 56
q-272 0 -437 -184t-165 -448t166 -450q166 -184 442 -184t420 215l115 -74q-78 -119 -218 -195t-325 -75l-71 -117q27 8 83 8t106 -38q50 -39 50 -121z" />
    <glyph glyph-name="Egrave" unicode="&#xc8;" horiz-adv-x="1212" 
d="M647 1565l-270 295h186l205 -295h-121zM340 690v-559h776v-131h-923v1450h899v-131h-752v-500h702v-129h-702z" />
    <glyph glyph-name="Eacute" unicode="&#xc9;" horiz-adv-x="1212" 
d="M934 1860l-270 -295h-121l205 295h186zM340 690v-559h776v-131h-923v1450h899v-131h-752v-500h702v-129h-702z" />
    <glyph glyph-name="Ecircumflex" unicode="&#xca;" horiz-adv-x="1212" 
d="M729 1860l223 -295h-135l-170 221l-170 -221h-135l223 295h164zM340 690v-559h776v-131h-923v1450h899v-131h-752v-500h702v-129h-702z" />
    <glyph glyph-name="Edieresis" unicode="&#xcb;" horiz-adv-x="1212" 
d="M739 1735q0 41 30 73t75 31q45 0 75 -32q29 -33 29 -73t-30 -72t-74 -32q-45 0 -75 32t-30 73zM346 1735q0 41 30 73t75 31q45 0 75 -32q30 -33 29 -73q0 -40 -30 -72q-31 -32 -75 -32t-74 32t-30 73zM340 690v-559h776v-131h-923v1450h899v-131h-752v-500h702v-129h-702
z" />
    <glyph glyph-name="Igrave" unicode="&#xcc;" horiz-adv-x="532" 
d="M217 1565l-270 295h186l205 -295h-121zM340 1450v-1450h-147v1450h147z" />
    <glyph glyph-name="Iacute" unicode="&#xcd;" horiz-adv-x="532" 
d="M584 1860l-271 -295h-120l204 295h187zM340 1450v-1450h-147v1450h147z" />
    <glyph glyph-name="Icircumflex" unicode="&#xce;" horiz-adv-x="532" 
d="M348 1860l223 -295h-135l-170 221l-170 -221h-135l223 295h164zM340 1450v-1450h-147v1450h147z" />
    <glyph glyph-name="Idieresis" unicode="&#xcf;" horiz-adv-x="532" 
d="M358 1735q0 41 30 73t75 31q45 0 75 -32q30 -33 30 -73t-30 -72t-75 -32t-75 32t-30 73zM-35 1735q0 41 30 73t75 31q44 0 74 -32q30 -33 30 -73t-30 -72t-74 -32t-75 32q-30 32 -30 73zM340 1450v-1450h-147v1450h147z" />
    <glyph glyph-name="Eth" unicode="&#xd0;" horiz-adv-x="1550" 
d="M324 711v-576h286q160 0 287 49q235 91 323 322q40 104 40 219q0 236 -158 408q-78 84 -205 133t-287 49h-286v-494h528v-110h-528zM176 0v711h-149v110h149v629h481q289 0 517 -179q110 -87 178 -229t68 -317q0 -174 -68 -316q-124 -260 -422 -363q-133 -46 -273 -46
h-481z" />
    <glyph glyph-name="Ntilde" unicode="&#xd1;" horiz-adv-x="1564" 
d="M645 1802q55 0 153 -47t134 -47q76 0 100 102h88q-37 -213 -188 -213q-60 -1 -150 47t-137 48q-75 -1 -100 -103h-88q37 213 188 213zM1225 215v1235h147v-1450h-184l-844 1247h-4v-1247h-147v1450h184l844 -1235h4z" />
    <glyph glyph-name="Ograve" unicode="&#xd2;" horiz-adv-x="1740" 
d="M899 1565l-270 295h186l205 -295h-121zM1470 725q0 264 -164 449q-166 184 -436 184t-435 -184t-165 -448t165 -448t435 -184t435 184t165 447zM1626 725q0 -330 -215 -546t-541 -216t-540 216t-215 546q0 330 215 546q214 216 540 216t541 -216t215 -546z" />
    <glyph glyph-name="Oacute" unicode="&#xd3;" horiz-adv-x="1740" 
d="M1143 1860l-271 -295h-120l204 295h187zM1470 725q0 264 -164 449q-166 184 -436 184t-435 -184t-165 -448t165 -448t435 -184t435 184t165 447zM1626 725q0 -330 -215 -546t-541 -216t-540 216t-215 546q0 330 215 546q214 216 540 216t541 -216t215 -546z" />
    <glyph glyph-name="Ocircumflex" unicode="&#xd4;" horiz-adv-x="1740" 
d="M952 1860l224 -295h-136l-170 221l-170 -221h-135l223 295h164zM1470 725q0 264 -164 449q-166 184 -436 184t-435 -184t-165 -448t165 -448t435 -184t435 184t165 447zM1626 725q0 -330 -215 -546t-541 -216t-540 216t-215 546q0 330 215 546q214 216 540 216t541 -216
t215 -546z" />
    <glyph glyph-name="Otilde" unicode="&#xd5;" horiz-adv-x="1740" 
d="M727 1802q55 0 153 -47t134 -47q76 0 100 102h88q-37 -213 -188 -213q-60 -1 -150 47t-137 48q-75 -1 -100 -103h-88q37 213 188 213zM1470 725q0 264 -164 449q-166 184 -436 184t-435 -184t-165 -448t165 -448t435 -184t435 184t165 447zM1626 725q0 -330 -215 -546
t-541 -216t-540 216t-215 546q0 330 215 546q214 216 540 216t541 -216t215 -546z" />
    <glyph glyph-name="Odieresis" unicode="&#xd6;" horiz-adv-x="1740" 
d="M963 1735q-1 41 29 73t75 31q45 0 75 -32q30 -33 30 -73t-30 -72t-75 -32t-75 32q-29 32 -29 73zM569 1735q0 41 30 73t75 31q45 0 75 -32q29 -33 29 -73t-30 -72t-74 -32q-45 0 -75 32t-30 73zM1470 725q0 264 -164 449q-166 184 -436 184t-435 -184t-165 -448t165 -448
t435 -184t435 184t165 447zM1626 725q0 -330 -215 -546t-541 -216t-540 216t-215 546q0 330 215 546q214 216 540 216t541 -216t215 -546z" />
    <glyph glyph-name="multiply" unicode="&#xd7;" horiz-adv-x="1363" 
d="M356 1034l326 -325l324 325l88 -86l-326 -327l326 -326l-88 -88l-324 325l-326 -325l-86 88l326 326l-326 327z" />
    <glyph glyph-name="Oslash" unicode="&#xd8;" horiz-adv-x="1740" 
d="M854 1358q-256 0 -420 -184t-164 -442t142 -425l850 912q-152 139 -408 139zM870 94q272 0 436 184t164 440q0 257 -137 425l-850 -912q156 -137 387 -137zM870 -37q-283 0 -483 166l-156 -166l-75 70l155 168q-197 209 -197 531t216 539q215 216 540 216q279 0 484 -166
l155 166l76 -70l-155 -168q196 -209 196 -531t-215 -539q-215 -216 -541 -216z" />
    <glyph glyph-name="Ugrave" unicode="&#xd9;" horiz-adv-x="1454" 
d="M729 1565l-270 295h186l205 -295h-121zM727 -37q-125 0 -222 38t-157 95q-59 57 -97 137q-65 136 -67 308v909h148v-893q0 -197 95 -330t300 -133t300 133t95 330v893h148v-909q0 -167 -67 -308q-38 -80 -97 -137q-58 -57 -156 -95t-223 -38z" />
    <glyph glyph-name="Uacute" unicode="&#xda;" horiz-adv-x="1454" 
d="M1018 1860l-270 -295h-121l204 295h187zM727 -37q-125 0 -222 38t-157 95q-59 57 -97 137q-65 136 -67 308v909h148v-893q0 -197 95 -330t300 -133t300 133t95 330v893h148v-909q0 -167 -67 -308q-38 -80 -97 -137q-58 -57 -156 -95t-223 -38z" />
    <glyph glyph-name="Ucircumflex" unicode="&#xdb;" horiz-adv-x="1454" 
d="M809 1860l223 -295h-135l-170 221l-170 -221h-135l223 295h164zM727 -37q-125 0 -222 38t-157 95q-59 57 -97 137q-65 136 -67 308v909h148v-893q0 -197 95 -330t300 -133t300 133t95 330v893h148v-909q0 -167 -67 -308q-38 -80 -97 -137q-58 -57 -156 -95t-223 -38z" />
    <glyph glyph-name="Udieresis" unicode="&#xdc;" horiz-adv-x="1454" 
d="M821 1735q0 41 30 73t75 31q44 0 74 -32q30 -33 30 -73t-30 -72t-74 -32t-75 32q-30 32 -30 73zM428 1735q0 41 30 73t74 31q44 0 75 -32q30 -33 30 -73t-30 -72t-75 -32q-44 0 -74 32t-30 73zM727 -37q-125 0 -222 38t-157 95q-59 57 -97 137q-65 136 -67 308v909h148
v-893q0 -197 95 -330t300 -133t300 133t95 330v893h148v-909q0 -167 -67 -308q-38 -80 -97 -137q-58 -57 -156 -95t-223 -38z" />
    <glyph glyph-name="Yacute" unicode="&#xdd;" horiz-adv-x="1232" 
d="M954 1860l-270 -295h-121l205 295h186zM690 0h-147v625l-543 825h184l437 -702l440 702h172l-543 -825v-625z" />
    <glyph glyph-name="Thorn" unicode="&#xde;" horiz-adv-x="1187" 
d="M340 1001v-516h238q354 0 354 258t-354 258h-238zM193 0v1450h147v-317h262q226 -1 358 -99t132 -288t-134 -290q-134 -99 -360 -100h-258v-356h-147z" />
    <glyph glyph-name="germandbls" unicode="&#xdf;" horiz-adv-x="1222" 
d="M319 1110v-1110h-139v1114q0 179 87 308q46 69 134 110t209 41q162 0 278 -98t116 -265q0 -240 -238 -325v-4q156 -19 253 -135t97 -289q0 -219 -134 -351t-357 -131q-57 0 -113 11v116q53 -8 98 -8q164 0 262 97t98 269t-106 265q-106 92 -289 92h-18v123h16
q131 0 210 65t79 189t-74 190t-172 66t-157 -32q-140 -76 -140 -308z" />
    <glyph glyph-name="agrave" unicode="&#xe0;" horiz-adv-x="1093" 
d="M565 1155l-270 295h186l205 -295h-121zM788 479h-40q-351 0 -449 -98q-43 -43 -43 -123t66 -124t159 -44q141 0 225 92q83 92 82 226v71zM788 588v30q0 248 -256 248q-172 0 -284 -112l-78 92q137 137 377 137q164 0 268 -90t105 -258v-420q0 -129 16 -215h-125
q-14 82 -14 156h-4q-125 -180 -349 -181q-129 0 -230 73t-101 218t99 216t242 88q142 18 334 18z" />
    <glyph glyph-name="aacute" unicode="&#xe1;" horiz-adv-x="1093" 
d="M831 1450l-270 -295h-121l205 295h186zM788 479h-40q-351 0 -449 -98q-43 -43 -43 -123t66 -124t159 -44q141 0 225 92q83 92 82 226v71zM788 588v30q0 248 -256 248q-172 0 -284 -112l-78 92q137 137 377 137q164 0 268 -90t105 -258v-420q0 -129 16 -215h-125
q-14 82 -14 156h-4q-125 -180 -349 -181q-129 0 -230 73t-101 218t99 216t242 88q142 18 334 18z" />
    <glyph glyph-name="acircumflex" unicode="&#xe2;" horiz-adv-x="1093" 
d="M633 1450l223 -295h-135l-170 221l-170 -221h-135l223 295h164zM788 479h-40q-351 0 -449 -98q-43 -43 -43 -123t66 -124t159 -44q141 0 225 92q83 92 82 226v71zM788 588v30q0 248 -256 248q-172 0 -284 -112l-78 92q137 137 377 137q164 0 268 -90t105 -258v-420
q0 -129 16 -215h-125q-14 82 -14 156h-4q-125 -180 -349 -181q-129 0 -230 73t-101 218t99 216t242 88q142 18 334 18z" />
    <glyph glyph-name="atilde" unicode="&#xe3;" horiz-adv-x="1093" 
d="M399 1393q55 0 153 -47t134 -48q76 0 100 103h88q-37 -213 -188 -213q-59 0 -149 47t-138 47q-75 0 -100 -102h-88q37 213 188 213zM788 479h-40q-351 0 -449 -98q-43 -43 -43 -123t66 -124t159 -44q141 0 225 92q83 92 82 226v71zM788 588v30q0 248 -256 248
q-172 0 -284 -112l-78 92q137 137 377 137q164 0 268 -90t105 -258v-420q0 -129 16 -215h-125q-14 82 -14 156h-4q-125 -180 -349 -181q-129 0 -230 73t-101 218t99 216t242 88q142 18 334 18z" />
    <glyph glyph-name="adieresis" unicode="&#xe4;" horiz-adv-x="1093" 
d="M637 1325q0 41 30 73q31 32 75 32t74 -32t30 -73t-30 -73t-75 -32t-75 32t-29 73zM244 1325q0 41 29 73q30 32 75 32t75 -32t30 -73t-30 -73t-75 -32t-75 32q-29 32 -29 73zM788 479h-40q-351 0 -449 -98q-43 -43 -43 -123t66 -124t159 -44q141 0 225 92q83 92 82 226v71
zM788 588v30q0 248 -256 248q-172 0 -284 -112l-78 92q137 137 377 137q164 0 268 -90t105 -258v-420q0 -129 16 -215h-125q-14 82 -14 156h-4q-125 -180 -349 -181q-129 0 -230 73t-101 218t99 216t242 88q142 18 334 18z" />
    <glyph glyph-name="aring" unicode="&#xe5;" horiz-adv-x="1093" 
d="M666 1331q0 51 -36 86t-87 35t-87 -35t-36 -86t36 -86t87 -35t87 35t36 86zM739 1331q0 -82 -58 -138t-138 -56t-139 56q-58 56 -58 138t58 138q58 57 138 57t139 -56q58 -56 58 -139zM788 479h-40q-351 0 -449 -98q-43 -43 -43 -123t66 -124t159 -44q141 0 225 92
q83 92 82 226v71zM788 588v30q0 248 -256 248q-172 0 -284 -112l-78 92q137 137 377 137q164 0 268 -90t105 -258v-420q0 -129 16 -215h-125q-14 82 -14 156h-4q-125 -180 -349 -181q-129 0 -230 73t-101 218t99 216t242 88q142 18 334 18z" />
    <glyph glyph-name="ae" unicode="&#xe6;" horiz-adv-x="1781" 
d="M1667 508q0 -47 -2 -66h-758q3 -145 99 -247t235 -103q96 0 173 48t120 118l100 -80q-154 -203 -393 -203q-133 -1 -232 59t-149 165q-94 -223 -399 -224q-141 0 -244 70q-102 70 -102 211q0 78 39 135t97 88q138 74 527 74v31q0 129 -62 206t-184 76q-172 0 -294 -112
l-80 90q64 61 170 100t223 39t200 -53t117 -148q58 92 154 146t209 55q207 0 321 -134t115 -341zM778 442h-41q-362 0 -442 -86q-37 -39 -37 -98q0 -170 227 -170q143 0 218 77t75 208v69zM1526 553q0 139 -80 226t-210 87t-224 -94t-99 -219h613z" />
    <glyph glyph-name="ccedilla" unicode="&#xe7;" horiz-adv-x="1024" 
d="M629 866q-164 0 -265 -110q-102 -110 -102 -276t100 -276t266 -110t259 125l104 -78q-131 -160 -352 -166l-80 -129q27 8 83 8t107 -38q50 -39 50 -121t-72 -124t-173 -42t-189 41l32 74q63 -29 127 -29t108 23t44 67q0 80 -111 80q-45 0 -88 -16l-37 30l113 181
q-199 22 -319 160t-120 348t142 352q141 142 371 143q101 0 199 -43t157 -123l-109 -78q-36 55 -102 91t-143 36z" />
    <glyph glyph-name="egrave" unicode="&#xe8;" horiz-adv-x="1171" 
d="M578 1155l-271 295h187l204 -295h-120zM1057 508q0 -41 -2 -66h-795q4 -145 104 -246t246 -102q100 0 182 48t126 118l104 -82q-160 -203 -412 -203q-213 -1 -354 143t-141 360t139 360t350 145q211 0 332 -134t121 -341zM603 866q-139 0 -235 -93t-106 -220h653
q-6 139 -89 226t-223 87z" />
    <glyph glyph-name="eacute" unicode="&#xe9;" horiz-adv-x="1171" 
d="M905 1450l-270 -295h-121l205 295h186zM1057 508q0 -41 -2 -66h-795q4 -145 104 -246t246 -102q100 0 182 48t126 118l104 -82q-160 -203 -412 -203q-213 -1 -354 143t-141 360t139 360t350 145q211 0 332 -134t121 -341zM603 866q-139 0 -235 -93t-106 -220h653
q-6 139 -89 226t-223 87z" />
    <glyph glyph-name="ecircumflex" unicode="&#xea;" horiz-adv-x="1171" 
d="M694 1450l224 -295h-136l-170 221l-170 -221h-135l223 295h164zM1057 508q0 -41 -2 -66h-795q4 -145 104 -246t246 -102q100 0 182 48t126 118l104 -82q-160 -203 -412 -203q-213 -1 -354 143t-141 360t139 360t350 145q211 0 332 -134t121 -341zM603 866
q-139 0 -235 -93t-106 -220h653q-6 139 -89 226t-223 87z" />
    <glyph glyph-name="edieresis" unicode="&#xeb;" horiz-adv-x="1171" 
d="M705 1325q0 41 29 73q30 32 75 32t75 -32t30 -73t-30 -73t-75 -32t-75 32q-29 32 -29 73zM311 1325q0 41 30 73t75 32q44 0 74 -32t30 -73t-30 -73t-74 -32t-75 32q-30 32 -30 73zM1057 508q0 -41 -2 -66h-795q4 -145 104 -246t246 -102q100 0 182 48t126 118l104 -82
q-160 -203 -412 -203q-213 -1 -354 143t-141 360t139 360t350 145q211 0 332 -134t121 -341zM603 866q-139 0 -235 -93t-106 -220h653q-6 139 -89 226t-223 87z" />
    <glyph glyph-name="igrave" unicode="&#xec;" horiz-adv-x="512" 
d="M203 1155l-271 295h187l205 -295h-121zM326 958v-958h-140v958h140z" />
    <glyph glyph-name="iacute" unicode="&#xed;" horiz-adv-x="512" 
d="M578 1450l-271 -295h-121l205 295h187zM326 958v-958h-140v958h140z" />
    <glyph glyph-name="icircumflex" unicode="&#xee;" horiz-adv-x="512" 
d="M342 1450l223 -295h-135l-170 221l-170 -221h-135l223 295h164zM326 958v-958h-140v958h140z" />
    <glyph glyph-name="idieresis" unicode="&#xef;" horiz-adv-x="512" 
d="M350 1325q0 41 30 73t75 32t75 -32t29 -73q0 -41 -30 -73q-31 -32 -75 -32t-74 32t-30 73zM-43 1325q0 41 30 73q31 32 75 32t74 -32t30 -73t-30 -73t-75 -32t-75 32t-29 73zM326 958v-958h-140v958h140z" />
    <glyph glyph-name="eth" unicode="&#xf0;" horiz-adv-x="1251" 
d="M606 983q164 0 307 -119l5 4q-117 246 -320 420l-229 -117l-74 74l225 115q-59 57 -205 158l121 75q123 -90 205 -168l209 109l82 -72l-211 -110q176 -164 286 -383q109 -219 109 -437t-112 -377q-58 -81 -160 -130t-238 -50q-221 -1 -364 143t-144 361q0 217 144 361
t364 143zM246 479q0 -165 99 -273t262 -108t262 109t99 273t-98 272q-100 108 -263 108t-262 -108t-99 -273z" />
    <glyph glyph-name="ntilde" unicode="&#xf1;" horiz-adv-x="1189" 
d="M457 1393q55 0 153 -47t133 -48q76 0 101 103h88q-37 -213 -189 -213q-59 0 -149 47t-137 47q-76 0 -101 -102h-88q37 213 189 213zM317 795h5q39 82 132 135t195 53q177 0 271 -106t94 -289v-588h-140v530q0 162 -58 249t-190 87t-218 -97q-84 -97 -84 -277v-492h-140
v748q0 122 -8 210h133q8 -102 8 -163z" />
    <glyph glyph-name="ograve" unicode="&#xf2;" horiz-adv-x="1251" 
d="M584 1155l-271 295h187l205 -295h-121zM989 479q0 166 -100 277q-100 110 -263 110t-264 -110q-100 -111 -100 -276q0 -166 100 -276t264 -110t263 110q100 110 100 275zM1137 479q-1 -217 -145 -360t-366 -143t-366 142q-144 144 -145 361q0 217 144 361
q145 144 367 143q222 1 366 -143t145 -361z" />
    <glyph glyph-name="oacute" unicode="&#xf3;" horiz-adv-x="1251" 
d="M932 1450l-270 -295h-121l204 295h187zM989 479q0 166 -100 277q-100 110 -263 110t-264 -110q-100 -111 -100 -276q0 -166 100 -276t264 -110t263 110q100 110 100 275zM1137 479q-1 -217 -145 -360t-366 -143t-366 142q-144 144 -145 361q0 217 144 361
q145 144 367 143q222 1 366 -143t145 -361z" />
    <glyph glyph-name="ocircumflex" unicode="&#xf4;" horiz-adv-x="1251" 
d="M707 1450l223 -295h-135l-170 221l-170 -221h-136l224 295h164zM989 479q0 166 -100 277q-100 110 -263 110t-264 -110q-100 -111 -100 -276q0 -166 100 -276t264 -110t263 110q100 110 100 275zM1137 479q-1 -217 -145 -360t-366 -143t-366 142q-144 144 -145 361
q0 217 144 361q145 144 367 143q222 1 366 -143t145 -361z" />
    <glyph glyph-name="otilde" unicode="&#xf5;" horiz-adv-x="1251" 
d="M481 1393q55 0 153 -47t134 -48q76 0 100 103h88q-37 -213 -188 -213q-60 0 -150 47t-137 47q-75 0 -100 -102h-88q37 213 188 213zM989 479q0 166 -100 277q-100 110 -263 110t-264 -110q-100 -111 -100 -276q0 -166 100 -276t264 -110t263 110q100 110 100 275z
M1137 479q-1 -217 -145 -360t-366 -143t-366 142q-144 144 -145 361q0 217 144 361q145 144 367 143q222 1 366 -143t145 -361z" />
    <glyph glyph-name="odieresis" unicode="&#xf6;" horiz-adv-x="1251" 
d="M717 1325q0 41 29 73q30 32 75 32t75 -32t30 -73t-30 -73t-75 -32t-75 32q-29 32 -29 73zM324 1325q0 41 29 73q30 32 75 32t75 -32q29 -32 29 -73t-30 -73t-74 -32q-45 0 -75 32q-29 32 -29 73zM989 479q0 166 -100 277q-100 110 -263 110t-264 -110
q-100 -111 -100 -276q0 -166 100 -276t264 -110t263 110q100 110 100 275zM1137 479q-1 -217 -145 -360t-366 -143t-366 142q-144 144 -145 361q0 217 144 361q145 144 367 143q222 1 366 -143t145 -361z" />
    <glyph glyph-name="divide" unicode="&#xf7;" horiz-adv-x="1363" 
d="M793 289q0 -45 -32 -78t-79 -33t-79 33t-32 78t32 78t79 33t79 -34q32 -32 32 -77zM793 952q0 -45 -32 -78q-32 -32 -79 -32t-79 32t-32 78q0 45 32 78t79 33t79 -33t32 -78zM1204 682v-123h-1044v123h1044z" />
    <glyph glyph-name="oslash" unicode="&#xf8;" horiz-adv-x="1251" 
d="M1137 468q1 -206 -145 -349t-352 -143t-339 106l-137 -139l-66 63l135 139q-119 137 -119 344t144 351q143 144 347 143q204 0 343 -106l135 139l66 -64l-135 -139q123 -139 123 -345zM620 870q-160 0 -263 -111q-101 -113 -101 -271t70 -250l536 550q-82 82 -242 82z
M637 88q152 0 255 112q104 112 104 272t-74 247l-537 -551q100 -80 252 -80z" />
    <glyph glyph-name="ugrave" unicode="&#xf9;" horiz-adv-x="1189" 
d="M567 1155l-270 295h186l205 -295h-121zM176 371v587h139v-530q1 -162 59 -249t190 -87t217 97t85 278v491h140v-747q0 -123 8 -211h-133q-8 102 -9 164h-4q-39 -82 -132 -135t-195 -54q-177 1 -271 107t-94 289z" />
    <glyph glyph-name="uacute" unicode="&#xfa;" horiz-adv-x="1189" 
d="M885 1450l-271 -295h-120l204 295h187zM176 371v587h139v-530q1 -162 59 -249t190 -87t217 97t85 278v491h140v-747q0 -123 8 -211h-133q-8 102 -9 164h-4q-39 -82 -132 -135t-195 -54q-177 1 -271 107t-94 289z" />
    <glyph glyph-name="ucircumflex" unicode="&#xfb;" horiz-adv-x="1189" 
d="M674 1450l223 -295h-135l-170 221l-170 -221h-135l223 295h164zM176 371v587h139v-530q1 -162 59 -249t190 -87t217 97t85 278v491h140v-747q0 -123 8 -211h-133q-8 102 -9 164h-4q-39 -82 -132 -135t-195 -54q-177 1 -271 107t-94 289z" />
    <glyph glyph-name="udieresis" unicode="&#xfc;" horiz-adv-x="1189" 
d="M684 1325q0 41 30 73t74 32t75 -32q30 -32 30 -73t-30 -73t-75 -32q-44 0 -74 32t-30 73zM291 1325q0 41 30 73q31 32 75 32t74 -32t30 -73t-30 -73t-75 -32t-75 32t-29 73zM176 371v587h139v-530q1 -162 59 -249t190 -87t217 97t85 278v491h140v-747q0 -123 8 -211h-133
q-8 102 -9 164h-4q-39 -82 -132 -135t-195 -54q-177 1 -271 107t-94 289z" />
    <glyph glyph-name="yacute" unicode="&#xfd;" horiz-adv-x="999" 
d="M817 1450l-270 -295h-121l205 295h186zM188 958l326 -808h4l297 808h152l-478 -1206q-47 -121 -115 -182t-186 -62q-63 0 -125 13l15 127q141 -46 212 25q42 42 75 128l77 201l-409 956h155z" />
    <glyph glyph-name="thorn" unicode="&#xfe;" horiz-adv-x="1296" 
d="M1034 479q0 164 -99 273q-99 108 -262 108t-262 -108t-99 -273t98 -273q100 -108 263 -108t262 108t99 273zM684 -25q-109 -1 -204 47t-152 140h-4v-654h-136v2040h136v-755h4q59 92 154 141t202 49q213 0 355 -143q143 -142 143 -360t-142 -362t-356 -143z" />
    <glyph glyph-name="ydieresis" unicode="&#xff;" horiz-adv-x="999" 
d="M608 1325q0 41 30 73t75 32t75 -32t29 -73q0 -41 -30 -73q-31 -32 -75 -32t-74 32t-30 73zM215 1325q0 41 30 73q31 32 75 32t74 -32t30 -73t-30 -73t-75 -32t-75 32t-29 73zM188 958l326 -808h4l297 808h152l-478 -1206q-47 -121 -115 -182t-186 -62q-63 0 -125 13
l15 127q141 -46 212 25q42 42 75 128l77 201l-409 956h155z" />
    <glyph glyph-name="Amacron" unicode="&#x100;" horiz-adv-x="1433" 
d="M995 1749v-111h-553v111h553zM715 1286l-320 -770h639zM340 381l-158 -381h-162l627 1450h144l622 -1450h-164l-159 381h-750z" />
    <glyph glyph-name="amacron" unicode="&#x101;" horiz-adv-x="1093" 
d="M829 1339v-110h-553v110h553zM788 479h-40q-351 0 -449 -98q-43 -43 -43 -123t66 -124t159 -44q141 0 225 92q83 92 82 226v71zM788 588v30q0 248 -256 248q-172 0 -284 -112l-78 92q137 137 377 137q164 0 268 -90t105 -258v-420q0 -129 16 -215h-125q-14 82 -14 156h-4
q-125 -180 -349 -181q-129 0 -230 73t-101 218t99 216t242 88q142 18 334 18z" />
    <glyph glyph-name="Abreve" unicode="&#x102;" horiz-adv-x="1433" 
d="M719 1589q-127 0 -210 73t-91 198h90q12 -78 72 -119t139 -41t139 41t72 119h90q-8 -125 -91 -198t-210 -73zM715 1286l-320 -770h639zM340 381l-158 -381h-162l627 1450h144l622 -1450h-164l-159 381h-750z" />
    <glyph glyph-name="abreve" unicode="&#x103;" horiz-adv-x="1093" 
d="M559 1290q79 0 139 41t72 119h90q-8 -125 -91 -198q-83 -72 -210 -72t-210 72t-91 198h90q12 -78 72 -119t139 -41zM788 479h-40q-351 0 -449 -98q-43 -43 -43 -123t66 -124t159 -44q141 0 225 92q83 92 82 226v71zM788 588v30q0 248 -256 248q-172 0 -284 -112l-78 92
q137 137 377 137q164 0 268 -90t105 -258v-420q0 -129 16 -215h-125q-14 82 -14 156h-4q-125 -180 -349 -181q-129 0 -230 73t-101 218t99 216t242 88q142 18 334 18z" />
    <glyph glyph-name="Aogonek" unicode="&#x104;" horiz-adv-x="1433" 
d="M715 1286l-320 -770h639zM1268 -457q-90 0 -146 49q-55 49 -55 125q0 135 182 283l-159 381h-750l-158 -381h-162l627 1450h144l622 -1450h-65q-84 -84 -121 -138t-37 -104t30 -76q30 -28 83 -28t94 45l39 -82q-78 -74 -168 -74z" />
    <glyph glyph-name="aogonek" unicode="&#x105;" horiz-adv-x="1093" 
d="M788 479h-40q-351 0 -449 -98q-43 -43 -43 -123t66 -124t159 -44q141 0 225 92q83 92 82 226v71zM832 -457q-91 0 -145 49t-54 125q0 135 182 283h-4q-14 82 -14 156h-4q-125 -180 -349 -181q-129 0 -230 73t-101 218t99 216t242 88q143 18 334 18v30q0 248 -256 248
q-172 0 -284 -112l-78 92q137 137 377 137q164 0 268 -90t105 -258v-420q0 -129 16 -215h-23q-85 -84 -121 -138t-36 -104t30 -76q30 -28 82 -28q54 0 95 45l38 -82q-78 -74 -169 -74z" />
    <glyph glyph-name="Cacute" unicode="&#x106;" horiz-adv-x="1474" 
d="M1147 1860l-270 -295h-121l205 295h186zM870 -37q-328 0 -542 216t-213 546q0 330 215 546t540 216q160 -1 300 -63t216 -167l-122 -90q-50 79 -156 135t-236 56q-272 0 -437 -184t-165 -448t166 -450q166 -184 442 -184t420 215l115 -74q-78 -119 -218 -195t-325 -75z
" />
    <glyph glyph-name="cacute" unicode="&#x107;" horiz-adv-x="1024" 
d="M903 1450l-270 -295h-121l205 295h186zM629 866q-164 0 -265 -110q-102 -110 -102 -276t100 -276t266 -110t259 125l104 -78q-135 -166 -364 -166q-229 1 -371 143t-141 361q0 219 141 361t371 143q101 0 199 -43t157 -123l-109 -78q-36 55 -102 91t-143 36z" />
    <glyph glyph-name="Ccircumflex" unicode="&#x108;" horiz-adv-x="1474" 
d="M950 1860l224 -295h-136l-170 221l-170 -221h-135l223 295h164zM870 -37q-328 0 -542 216t-213 546q0 330 215 546t540 216q160 -1 300 -63t216 -167l-122 -90q-50 79 -156 135t-236 56q-272 0 -437 -184t-165 -448t166 -450q166 -184 442 -184t420 215l115 -74
q-78 -119 -218 -195t-325 -75z" />
    <glyph glyph-name="ccircumflex" unicode="&#x109;" horiz-adv-x="1024" 
d="M702 1450l224 -295h-135l-170 221l-170 -221h-136l224 295h163zM629 866q-164 0 -265 -110q-102 -110 -102 -276t100 -276t266 -110t259 125l104 -78q-135 -166 -364 -166q-229 1 -371 143t-141 361q0 219 141 361t371 143q101 0 199 -43t157 -123l-109 -78
q-36 55 -102 91t-143 36z" />
    <glyph glyph-name="Cdotaccent" unicode="&#x10a;" horiz-adv-x="1474" 
d="M948 1737q0 -41 -30 -70t-68 -29q-39 0 -69 29t-29 70q0 41 30 69t68 29q38 -1 68 -29t30 -69zM870 -37q-328 0 -542 216t-213 546q0 330 215 546t540 216q160 -1 300 -63t216 -167l-122 -90q-50 79 -156 135t-236 56q-272 0 -437 -184t-165 -448t166 -450
q166 -184 442 -184t420 215l115 -74q-78 -119 -218 -195t-325 -75z" />
    <glyph glyph-name="cdotaccent" unicode="&#x10b;" horiz-adv-x="1024" 
d="M702 1327q0 -41 -30 -70t-68 -29t-68 30q-30 28 -30 69t30 70t68 29t69 -29q29 -29 29 -70zM629 866q-164 0 -265 -110q-102 -110 -102 -276t100 -276t266 -110t259 125l104 -78q-135 -166 -364 -166q-229 1 -371 143t-141 361q0 219 141 361t371 143q101 0 199 -43
t157 -123l-109 -78q-36 55 -102 91t-143 36z" />
    <glyph glyph-name="Ccaron" unicode="&#x10c;" horiz-adv-x="1474" 
d="M1171 1860l-223 -295h-164l-223 295h135l170 -222l170 222h135zM870 -37q-328 0 -542 216t-213 546q0 330 215 546t540 216q160 -1 300 -63t216 -167l-122 -90q-50 79 -156 135t-236 56q-272 0 -437 -184t-165 -448t166 -450q166 -184 442 -184t420 215l115 -74
q-78 -119 -218 -195t-325 -75z" />
    <glyph glyph-name="ccaron" unicode="&#x10d;" horiz-adv-x="1024" 
d="M928 1450l-223 -295h-164l-224 295h136l170 -221l170 221h135zM629 866q-164 0 -265 -110q-102 -110 -102 -276t100 -276t266 -110t259 125l104 -78q-135 -166 -364 -166q-229 1 -371 143t-141 361q0 219 141 361t371 143q101 0 199 -43t157 -123l-109 -78
q-36 55 -102 91t-143 36z" />
    <glyph glyph-name="Dcaron" unicode="&#x10e;" horiz-adv-x="1550" 
d="M1016 1860l-223 -295h-164l-223 295h135l170 -222l170 222h135zM340 1319v-1188h293q157 0 283 50q232 92 323 325q41 104 41 219q0 233 -160 409q-78 85 -204 135t-283 50h-293zM193 0v1450h481q288 0 516 -179q110 -87 178 -229t68 -317q0 -174 -68 -316
q-125 -260 -422 -363q-133 -46 -272 -46h-481z" />
    <glyph glyph-name="dcaron" unicode="&#x10f;" horiz-adv-x="1382" 
d="M1503 1450l-155 -379h-117l127 379h145zM262 479q0 -165 97 -275t261 -110t269 110q104 110 104 276t-104 276t-268 110t-262 -110q-97 -111 -97 -277zM115 479q0 215 137 359t358 145q106 0 204 -50t159 -140h4v755h139v-1548h-139v162h-4q-59 -88 -157 -137t-206 -50
q-221 1 -358 145t-137 359z" />
    <glyph glyph-name="Dcroat" unicode="&#x110;" horiz-adv-x="1550" 
d="M324 711v-576h286q160 0 287 49q235 91 323 322q40 104 40 219q0 236 -158 408q-78 84 -205 133t-287 49h-286v-494h528v-110h-528zM176 0v711h-149v110h149v629h481q289 0 517 -179q110 -87 178 -229t68 -317q0 -174 -68 -316q-124 -260 -422 -363q-133 -46 -273 -46
h-481z" />
    <glyph glyph-name="dcroat" unicode="&#x111;" horiz-adv-x="1304" 
d="M262 479q0 -165 97 -275t261 -110t269 110q104 110 104 276t-104 276t-268 110t-262 -110q-97 -111 -97 -277zM657 1270h320v278h139v-278h115v-103h-115v-1167h-139v162h-4q-59 -88 -157 -137t-206 -50q-221 1 -358 145t-137 359t137 359t358 145q106 0 204 -50
t159 -140h4v374h-320v103z" />
    <glyph glyph-name="Emacron" unicode="&#x112;" horiz-adv-x="1212" 
d="M926 1749v-111h-553v111h553zM340 690v-559h776v-131h-923v1450h899v-131h-752v-500h702v-129h-702z" />
    <glyph glyph-name="emacron" unicode="&#x113;" horiz-adv-x="1171" 
d="M883 1339v-110h-553v110h553zM1057 508q0 -41 -2 -66h-795q4 -145 104 -246t246 -102q100 0 182 48t126 118l104 -82q-160 -203 -412 -203q-213 -1 -354 143t-141 360t139 360t350 145q211 0 332 -134t121 -341zM603 866q-139 0 -235 -93t-106 -220h653q-6 139 -89 226
t-223 87z" />
    <glyph glyph-name="Ebreve" unicode="&#x114;" horiz-adv-x="1212" 
d="M647 1589q-127 0 -210 73t-91 198h90q12 -78 72 -119t139 -41t139 41t72 119h90q-8 -125 -91 -198t-210 -73zM340 690v-559h776v-131h-923v1450h899v-131h-752v-500h702v-129h-702z" />
    <glyph glyph-name="ebreve" unicode="&#x115;" horiz-adv-x="1171" 
d="M602 1290q80 0 140 41t71 119h90q-8 -125 -91 -198q-83 -72 -210 -72t-210 72t-91 198h90q11 -78 71 -119t140 -41zM1057 508q0 -41 -2 -66h-795q4 -145 104 -246t246 -102q100 0 182 48t126 118l104 -82q-160 -203 -412 -203q-213 -1 -354 143t-141 360t139 360t350 145
q211 0 332 -134t121 -341zM603 866q-139 0 -235 -93t-106 -220h653q-6 139 -89 226t-223 87z" />
    <glyph glyph-name="Edotaccent" unicode="&#x116;" horiz-adv-x="1212" 
d="M756 1737q0 -41 -30 -70t-69 -29t-69 29t-29 70q0 41 30 69q31 28 69 29q38 -1 68 -29t30 -69zM340 690v-559h776v-131h-923v1450h899v-131h-752v-500h702v-129h-702z" />
    <glyph glyph-name="edotaccent" unicode="&#x117;" horiz-adv-x="1171" 
d="M700 1327q0 -41 -30 -70t-68 -29t-68 30q-30 28 -30 69t30 70t68 29t69 -29q29 -29 29 -70zM1057 508q0 -41 -2 -66h-795q4 -145 104 -246t246 -102q100 0 182 48t126 118l104 -82q-160 -203 -412 -203q-213 -1 -354 143t-141 360t139 360t350 145q211 0 332 -134
t121 -341zM603 866q-139 0 -235 -93t-106 -220h653q-6 139 -89 226t-223 87z" />
    <glyph glyph-name="Eogonek" unicode="&#x118;" horiz-adv-x="1212" 
d="M1003 -457q-90 0 -145 49t-55 125q0 135 182 283h-792v1450h899v-131h-752v-500h702v-129h-702v-559h776v-131h-33q-85 -84 -121 -138t-36 -104t30 -76q30 -28 82 -28q54 0 95 45l38 -82q-78 -74 -168 -74z" />
    <glyph glyph-name="eogonek" unicode="&#x119;" horiz-adv-x="1171" 
d="M603 866q-139 0 -235 -93t-106 -220h653q-6 139 -89 226t-223 87zM648 -457q-91 0 -145 49t-54 125q0 127 151 258q-209 5 -347 147t-138 357t139 359t350 145q211 0 332 -134t121 -341q0 -41 -2 -66h-795q4 -145 104 -246t246 -102q100 0 182 48t126 118l104 -82
q-125 -160 -309 -192q-74 -76 -108 -128t-34 -100t30 -76t83 -28t94 45l39 -82q-78 -74 -169 -74z" />
    <glyph glyph-name="Ecaron" unicode="&#x11a;" horiz-adv-x="1212" 
d="M954 1860l-223 -295h-164l-223 295h135l170 -222l170 222h135zM340 690v-559h776v-131h-923v1450h899v-131h-752v-500h702v-129h-702z" />
    <glyph glyph-name="ecaron" unicode="&#x11b;" horiz-adv-x="1171" 
d="M907 1450l-223 -295h-164l-223 295h135l170 -221l170 221h135zM1057 508q0 -41 -2 -66h-795q4 -145 104 -246t246 -102q100 0 182 48t126 118l104 -82q-160 -203 -412 -203q-213 -1 -354 143t-141 360t139 360t350 145q211 0 332 -134t121 -341zM603 866q-139 0 -235 -93
t-106 -220h653q-6 139 -89 226t-223 87z" />
    <glyph glyph-name="Gcircumflex" unicode="&#x11c;" horiz-adv-x="1595" 
d="M963 1860l223 -295h-135l-170 221l-170 -221h-136l224 295h164zM868 1358q-266 0 -432 -184t-166 -448t166 -447q166 -185 425 -185t403 94v441h-338v129h485v-654q-237 -141 -553 -141t-530 216t-213 546q0 330 215 546q214 216 540 216t525 -195l-103 -102
q-158 168 -424 168z" />
    <glyph glyph-name="gcircumflex" unicode="&#x11d;" horiz-adv-x="1294" 
d="M713 1450l223 -295h-135l-170 221l-170 -221h-135l223 295h164zM262 492q0 -158 97 -266t263 -108t268 104q103 104 103 264t-105 270t-268 110q-162 0 -260 -108t-98 -266zM977 8v180h-4q-53 -86 -155 -137t-208 -51q-221 0 -358 137t-137 348t138 355t357 143
q109 0 208 -50t155 -140h4v165h139v-950q0 -179 -100 -326q-53 -79 -161 -126q-108 -48 -249 -48t-263 52t-208 141l101 106q59 -75 159 -125t207 -51q195 1 285 105t90 272z" />
    <glyph glyph-name="Gbreve" unicode="&#x11e;" horiz-adv-x="1595" 
d="M872 1589q-128 0 -210 73t-91 198h91q12 -78 71 -119t139 -41t140 41q59 41 71 119h91q-8 -125 -92 -198t-210 -73zM868 1358q-266 0 -432 -184t-166 -448t166 -447q166 -185 425 -185t403 94v441h-338v129h485v-654q-237 -141 -553 -141t-530 216t-213 546
q0 330 215 546q214 216 540 216t525 -195l-103 -102q-158 168 -424 168z" />
    <glyph glyph-name="gbreve" unicode="&#x11f;" horiz-adv-x="1294" 
d="M635 1290q79 0 139 41t72 119h90q-8 -125 -91 -198q-83 -72 -210 -72t-210 72t-91 198h90q12 -78 72 -119t139 -41zM262 492q0 -158 97 -266t263 -108t268 104q103 104 103 264t-105 270t-268 110q-162 0 -260 -108t-98 -266zM977 8v180h-4q-53 -86 -155 -137t-208 -51
q-221 0 -358 137t-137 348t138 355t357 143q109 0 208 -50t155 -140h4v165h139v-950q0 -179 -100 -326q-53 -79 -161 -126q-108 -48 -249 -48t-263 52t-208 141l101 106q59 -75 159 -125t207 -51q195 1 285 105t90 272z" />
    <glyph glyph-name="Gdotaccent" unicode="&#x120;" horiz-adv-x="1595" 
d="M969 1737q0 -41 -30 -70t-69 -29q-38 0 -68 29t-30 70t30 69t68 29q38 -1 69 -29q30 -28 30 -69zM868 1358q-266 0 -432 -184t-166 -448t166 -447q166 -185 425 -185t403 94v441h-338v129h485v-654q-237 -141 -553 -141t-530 216t-213 546q0 330 215 546q214 216 540 216
t525 -195l-103 -102q-158 168 -424 168z" />
    <glyph glyph-name="gdotaccent" unicode="&#x121;" horiz-adv-x="1294" 
d="M727 1327q0 -41 -30 -70q-31 -29 -69 -29t-68 30q-30 28 -30 69t30 70t69 29t69 -30q30 -28 29 -69zM262 492q0 -158 97 -266t263 -108t268 104q103 104 103 264t-105 270t-268 110q-162 0 -260 -108t-98 -266zM977 8v180h-4q-53 -86 -155 -137t-208 -51q-221 0 -358 137
t-137 348t138 355t357 143q109 0 208 -50t155 -140h4v165h139v-950q0 -179 -100 -326q-53 -79 -161 -126q-108 -48 -249 -48t-263 52t-208 141l101 106q59 -75 159 -125t207 -51q195 1 285 105t90 272z" />
    <glyph glyph-name="Gcommaaccent" unicode="&#x122;" horiz-adv-x="1603" 
d="M975 -92l-156 -379h-117l127 379h146zM868 1358q-266 0 -432 -184t-166 -448t166 -447q166 -185 425 -185t403 94v441h-338v129h485v-654q-237 -141 -553 -141t-530 216t-213 546q0 330 215 546q214 216 540 216t525 -195l-103 -102q-158 168 -424 168z" />
    <glyph glyph-name="gcommaaccent" unicode="&#x123;" horiz-adv-x="1294" 
d="M575 1155l156 379h117l-127 -379h-146zM262 492q0 -158 97 -266t263 -108t268 104q103 104 103 264t-105 270t-268 110q-162 0 -260 -108t-98 -266zM977 8v180h-4q-53 -86 -155 -137t-208 -51q-221 0 -358 137t-137 348t138 355t357 143q109 0 208 -50t155 -140h4v165
h139v-950q0 -179 -100 -326q-53 -79 -161 -126q-108 -48 -249 -48t-263 52t-208 141l101 106q59 -75 159 -125t207 -51q195 1 285 105t90 272z" />
    <glyph glyph-name="Hcircumflex" unicode="&#x124;" horiz-adv-x="1470" 
d="M815 1860l223 -295h-135l-170 221l-170 -221h-135l223 295h164zM193 0v1450h147v-629h790v629h148v-1450h-148v686h-790v-686h-147z" />
    <glyph glyph-name="hcircumflex" unicode="&#x125;" horiz-adv-x="1193" 
d="M672 1925l223 -295h-135l-170 221l-170 -221h-135l223 295h164zM328 801h4q37 82 128 132t193 50q177 0 271 -106t94 -289v-588h-139v530q-1 162 -59 249t-190 87t-218 -97q-84 -97 -84 -277v-492h-140v1548h140v-747z" />
    <glyph glyph-name="Hbar" unicode="&#x126;" horiz-adv-x="1470" 
d="M340 821h790v203h-790v-203zM193 0v1450h147v-324h790v324h148v-1450h-148v686h-790v-686h-147z" />
    <glyph glyph-name="hbar" unicode="&#x127;" horiz-adv-x="1193" 
d="M78 1270h110v278h140v-278h323v-103h-323v-366h4q37 82 128 132t193 50q177 0 271 -106t94 -289v-588h-139v530q-1 162 -59 249t-190 87t-218 -97q-84 -97 -84 -277v-492h-140v1167h-110v103z" />
    <glyph glyph-name="Itilde" unicode="&#x128;" horiz-adv-x="532" 
d="M125 1802q55 0 153 -47t134 -47q76 0 100 102h88q-37 -213 -188 -213q-60 -1 -150 47t-137 48q-75 -1 -100 -103h-88q37 213 188 213zM340 1450v-1450h-147v1450h147z" />
    <glyph glyph-name="itilde" unicode="&#x129;" horiz-adv-x="512" 
d="M117 1393q55 0 153 -47t133 -48q76 0 101 103h88q-37 -213 -189 -213q-59 0 -149 47t-137 47q-76 0 -101 -102h-88q37 213 189 213zM326 958v-958h-140v958h140z" />
    <glyph glyph-name="Imacron" unicode="&#x12a;" horiz-adv-x="532" 
d="M545 1749v-111h-553v111h553zM340 1450v-1450h-147v1450h147z" />
    <glyph glyph-name="imacron" unicode="&#x12b;" horiz-adv-x="512" 
d="M535 1339v-110h-553v110h553zM326 958v-958h-140v958h140z" />
    <glyph glyph-name="Iogonek" unicode="&#x12e;" horiz-adv-x="532" 
d="M246 -457q-92 0 -145 49q-54 49 -54 125q0 135 182 283h-36v1450h147v-1450h-12q-84 -84 -121 -138t-37 -104t30 -76q30 -28 83 -28t94 45l39 -82q-78 -74 -170 -74z" />
    <glyph glyph-name="iogonek" unicode="&#x12f;" horiz-adv-x="512" 
d="M354 1327q0 -41 -30 -70t-68 -29q-39 0 -69 30q-30 28 -29 69q0 41 29 70q30 29 69 29t69 -29q29 -29 29 -70zM238 -457q-90 0 -146 49q-55 49 -55 125q0 135 182 283h-33v958h140v-958h-9q-85 -84 -121 -138t-36 -104t30 -76q30 -28 82 -28q54 0 95 45l39 -82
q-78 -74 -168 -74z" />
    <glyph glyph-name="Idotaccent" unicode="&#x130;" horiz-adv-x="532" 
d="M367 1737q0 -41 -30 -70t-69 -29q-38 0 -68 29t-30 70t30 69t68 29q38 -1 69 -29q30 -28 30 -69zM340 1450v-1450h-147v1450h147z" />
    <glyph glyph-name="dotlessi" unicode="&#x131;" horiz-adv-x="512" 
d="M326 958v-958h-140v958h140z" />
    <glyph glyph-name="Jcircumflex" unicode="&#x134;" horiz-adv-x="1007" 
d="M834 1860l223 -295h-135l-170 221l-170 -221h-136l224 295h164zM680 428v1022h147v-1032q0 -222 -113 -349q-97 -106 -262 -106q-166 0 -270 82t-131 213l137 37q18 -88 80 -145t156 -58q256 0 256 336z" />
    <glyph glyph-name="jcircumflex" unicode="&#x135;" horiz-adv-x="514" 
d="M340 1450l223 -295h-135l-170 221l-170 -221h-135l223 295h164zM188 958h140v-1148q0 -301 -273 -302q-61 1 -110 15l20 117q41 -12 88 -13q82 0 109 51t26 154v1126z" />
    <glyph glyph-name="Kcommaaccent" unicode="&#x136;" horiz-adv-x="1286" 
d="M795 -92l-156 -379h-117l127 379h146zM340 1450v-651h2l690 651h211l-731 -657l772 -793h-217l-725 772h-2v-772h-147v1450h147z" />
    <glyph glyph-name="kcommaaccent" unicode="&#x137;" horiz-adv-x="1044" 
d="M674 -92l-156 -379h-117l127 379h146zM328 1548v-1022h6l442 432h201l-483 -438l532 -520h-205l-487 504h-6v-504h-140v1548h140z" />
    <glyph glyph-name="Lacute" unicode="&#x139;" horiz-adv-x="1044" 
d="M596 1860l-270 -295h-121l205 295h186zM340 1450v-1319h676v-131h-823v1450h147z" />
    <glyph glyph-name="lacute" unicode="&#x13a;" horiz-adv-x="516" 
d="M584 1917l-271 -295h-120l204 295h187zM328 1548v-1548h-140v1548h140z" />
    <glyph glyph-name="Lcommaaccent" unicode="&#x13b;" horiz-adv-x="1044" 
d="M711 -92l-156 -379h-117l127 379h146zM340 1450v-1319h676v-131h-823v1450h147z" />
    <glyph glyph-name="lcommaaccent" unicode="&#x13c;" horiz-adv-x="516" 
d="M367 -92l-156 -379h-117l127 379h146zM328 1548v-1548h-140v1548h140z" />
    <glyph glyph-name="Lcaron" unicode="&#x13d;" horiz-adv-x="1044" 
d="M770 1450l-156 -379h-116l127 379h145zM340 1450v-1319h676v-131h-823v1450h147z" />
    <glyph glyph-name="lcaron" unicode="&#x13e;" horiz-adv-x="595" 
d="M717 1450l-156 -379h-117l127 379h146zM328 1548v-1548h-140v1548h140z" />
    <glyph glyph-name="Ldot" unicode="&#x13f;" horiz-adv-x="1044" 
d="M772 877q0 -41 -30 -70t-68 -29t-69 29q-30 29 -30 70t30 69t69 29q38 -1 68 -29t30 -69zM340 1450v-1319h676v-131h-823v1450h147z" />
    <glyph glyph-name="ldot" unicode="&#x140;" horiz-adv-x="638" 
d="M639 938q0 -41 -30 -70q-31 -28 -69 -28t-68 28t-30 70q0 41 30 70q30 28 69 28t69 -28t29 -70zM328 1548v-1548h-140v1548h140z" />
    <glyph glyph-name="Lslash" unicode="&#x141;" horiz-adv-x="1044" 
d="M340 1450v-709l442 381v-143l-442 -381v-467h676v-131h-823v496l-168 -144v144l168 143v811h147z" />
    <glyph glyph-name="lslash" unicode="&#x142;" horiz-adv-x="516" 
d="M324 1548v-610l165 172v-149l-165 -170v-791h-136v678l-165 -170v149l165 168v723h136z" />
    <glyph glyph-name="Nacute" unicode="&#x143;" horiz-adv-x="1564" 
d="M1096 1860l-271 -295h-120l204 295h187zM1225 215v1235h147v-1450h-184l-844 1247h-4v-1247h-147v1450h184l844 -1235h4z" />
    <glyph glyph-name="nacute" unicode="&#x144;" horiz-adv-x="1189" 
d="M899 1450l-270 -295h-121l205 295h186zM317 795h5q39 82 132 135t195 53q177 0 271 -106t94 -289v-588h-140v530q0 162 -58 249t-190 87t-218 -97q-84 -97 -84 -277v-492h-140v748q0 122 -8 210h133q8 -102 8 -163z" />
    <glyph glyph-name="Ncommaaccent" unicode="&#x145;" horiz-adv-x="1564" 
d="M870 -92l-155 -379h-117l127 379h145zM1225 215v1235h147v-1450h-184l-844 1247h-4v-1247h-147v1450h184l844 -1235h4z" />
    <glyph glyph-name="ncommaaccent" unicode="&#x146;" horiz-adv-x="1189" 
d="M700 -92l-155 -379h-117l127 379h145zM317 795h5q39 82 132 135t195 53q177 0 271 -106t94 -289v-588h-140v530q0 162 -58 249t-190 87t-218 -97q-84 -97 -84 -277v-492h-140v748q0 122 -8 210h133q8 -102 8 -163z" />
    <glyph glyph-name="Ncaron" unicode="&#x147;" horiz-adv-x="1564" 
d="M1090 1860l-224 -295h-164l-223 295h135l170 -222l170 222h136zM1225 215v1235h147v-1450h-184l-844 1247h-4v-1247h-147v1450h184l844 -1235h4z" />
    <glyph glyph-name="ncaron" unicode="&#x148;" horiz-adv-x="1189" 
d="M905 1450l-223 -295h-164l-223 295h135l170 -221l170 221h135zM317 795h5q39 82 132 135t195 53q177 0 271 -106t94 -289v-588h-140v530q0 162 -58 249t-190 87t-218 -97q-84 -97 -84 -277v-492h-140v748q0 122 -8 210h133q8 -102 8 -163z" />
    <glyph glyph-name="Omacron" unicode="&#x14c;" horiz-adv-x="1740" 
d="M1155 1749v-111h-553v111h553zM1470 725q0 264 -164 449q-166 184 -436 184t-435 -184t-165 -448t165 -448t435 -184t435 184t165 447zM1626 725q0 -330 -215 -546t-541 -216t-540 216t-215 546q0 330 215 546q214 216 540 216t541 -216t215 -546z" />
    <glyph glyph-name="omacron" unicode="&#x14d;" horiz-adv-x="1251" 
d="M905 1339v-110h-553v110h553zM989 479q0 166 -100 277q-100 110 -263 110t-264 -110q-100 -111 -100 -276q0 -166 100 -276t264 -110t263 110q100 110 100 275zM1137 479q-1 -217 -145 -360t-366 -143t-366 142q-144 144 -145 361q0 217 144 361q145 144 367 143
q222 1 366 -143t145 -361z" />
    <glyph glyph-name="Obreve" unicode="&#x14e;" horiz-adv-x="1740" 
d="M876 1589q-126 0 -209 73t-92 198h91q12 -78 71 -119t139 -41t140 41q59 41 71 119h91q-8 -125 -92 -198t-210 -73zM1470 725q0 264 -164 449q-166 184 -436 184t-435 -184t-165 -448t165 -448t435 -184t435 184t165 447zM1626 725q0 -330 -215 -546t-541 -216t-540 216
t-215 546q0 330 215 546q214 216 540 216t541 -216t215 -546z" />
    <glyph glyph-name="obreve" unicode="&#x14f;" horiz-adv-x="1251" 
d="M628 1290q80 0 140 41t72 119h90q-8 -125 -91 -198q-83 -72 -210 -72t-210 72t-91 198h90q12 -78 71 -119t139 -41zM989 479q0 166 -100 277q-100 110 -263 110t-264 -110q-100 -111 -100 -276q0 -166 100 -276t264 -110t263 110q100 110 100 275zM1137 479
q-1 -217 -145 -360t-366 -143t-366 142q-144 144 -145 361q0 217 144 361q145 144 367 143q222 1 366 -143t145 -361z" />
    <glyph glyph-name="Ohungarumlaut" unicode="&#x150;" horiz-adv-x="1740" 
d="M1374 1860l-270 -295h-121l205 295h186zM1026 1860l-272 -295h-121l207 295h186zM1470 725q0 264 -164 449q-166 184 -436 184t-435 -184t-165 -448t165 -448t435 -184t435 184t165 447zM1626 725q0 -330 -215 -546t-541 -216t-540 216t-215 546q0 330 215 546
q214 216 540 216t541 -216t215 -546z" />
    <glyph glyph-name="ohungarumlaut" unicode="&#x151;" horiz-adv-x="1251" 
d="M1143 1450l-271 -295h-120l204 295h187zM795 1450l-273 -295h-121l207 295h187zM989 479q0 166 -100 277q-100 110 -263 110t-264 -110q-100 -111 -100 -276q0 -166 100 -276t264 -110t263 110q100 110 100 275zM1137 479q-1 -217 -145 -360t-366 -143t-366 142
q-144 144 -145 361q0 217 144 361q145 144 367 143q222 1 366 -143t145 -361z" />
    <glyph glyph-name="OE" unicode="&#x152;" horiz-adv-x="2031" 
d="M948 1319q-158 0 -284 -50q-232 -92 -322 -325q-41 -104 -41 -219q0 -233 160 -409q78 -85 204 -135t283 -50h133v1188h-133zM907 1450h1004v-131h-682v-500h633v-129h-633v-559h706v-131h-1028q-288 0 -516 179q-111 87 -179 229t-67 317q0 174 68 316q125 260 422 363
q133 46 272 46z" />
    <glyph glyph-name="oe" unicode="&#x153;" horiz-adv-x="2035" 
d="M1468 866q-140 0 -236 -93t-106 -220h654q-6 139 -89 226t-223 87zM258 479q0 -165 100 -275t264 -110t266 110q101 110 101 276q0 165 -101 276q-101 110 -264 110t-265 -111q-101 -112 -101 -276zM1460 983q219 0 340 -134t121 -341q0 -41 -2 -66h-799q4 -145 106 -246
t249 -102q100 0 182 48t125 118l104 -82q-160 -203 -413 -203q-137 -1 -246 61t-172 173q-65 -111 -177 -172t-255 -62q-221 -1 -365 143t-143 361q0 217 143 361t365 143q143 0 254 -61t176 -172q63 109 169 171t238 62z" />
    <glyph glyph-name="Racute" unicode="&#x154;" horiz-adv-x="1226" 
d="M864 1860l-270 -295h-121l205 295h186zM340 1323v-518h256q178 -1 274 65t97 193q0 260 -365 260h-262zM340 678v-678h-147v1450h425q228 0 362 -93t134 -294q0 -158 -103 -256t-268 -117l424 -690h-180l-401 678h-246z" />
    <glyph glyph-name="racute" unicode="&#x155;" horiz-adv-x="737" 
d="M629 1450l-271 -295h-120l204 295h187zM184 748q0 123 -8 210h133q8 -102 8 -163h5q41 84 123 136q83 52 161 52t115 -10l-19 -131q-33 12 -98 12q-121 0 -201 -91t-79 -271v-492h-140v748z" />
    <glyph glyph-name="Rcommaaccent" unicode="&#x156;" horiz-adv-x="1226" 
d="M750 -92l-156 -379h-117l127 379h146zM340 1323v-518h256q178 -1 274 65t97 193q0 260 -365 260h-262zM340 678v-678h-147v1450h425q228 0 362 -93t134 -294q0 -158 -103 -256t-268 -117l424 -690h-180l-401 678h-246z" />
    <glyph glyph-name="rcommaaccent" unicode="&#x157;" horiz-adv-x="737" 
d="M360 -92l-155 -379h-117l127 379h145zM184 748q0 123 -8 210h133q8 -102 8 -163h5q41 84 123 136q83 52 161 52t115 -10l-19 -131q-33 12 -98 12q-121 0 -201 -91t-79 -271v-492h-140v748z" />
    <glyph glyph-name="Rcaron" unicode="&#x158;" horiz-adv-x="1226" 
d="M895 1860l-223 -295h-164l-223 295h135l170 -222l170 222h135zM340 1323v-518h256q178 -1 274 65t97 193q0 260 -365 260h-262zM340 678v-678h-147v1450h425q228 0 362 -93t134 -294q0 -158 -103 -256t-268 -117l424 -690h-180l-401 678h-246z" />
    <glyph glyph-name="rcaron" unicode="&#x159;" horiz-adv-x="737" 
d="M745 1450l-223 -295h-164l-223 295h135l170 -221l170 221h135zM184 748q0 123 -8 210h133q8 -102 8 -163h5q41 84 123 136q83 52 161 52t115 -10l-19 -131q-33 12 -98 12q-121 0 -201 -91t-79 -271v-492h-140v748z" />
    <glyph glyph-name="Sacute" unicode="&#x15a;" horiz-adv-x="1155" 
d="M889 1860l-271 -295h-120l204 295h187zM596 1362q-121 0 -215 -72t-94 -186t61 -178q23 -25 75 -52q52 -26 82 -36q31 -10 99 -33t90 -30t81 -32q60 -25 84 -42q100 -71 121 -113q52 -105 52 -207q0 -203 -141 -311t-332 -107q-137 0 -259 55t-198 160l127 94
q51 -82 137 -132t204 -50q116 0 214 75t99 206q0 162 -153 236q-65 32 -176 67q-112 36 -170 62q-162 74 -213 187q-32 71 -32 184t73 207q135 174 390 173q137 0 246 -50t164 -126l-117 -94q-102 145 -299 145z" />
    <glyph glyph-name="sacute" unicode="&#x15b;" horiz-adv-x="909" 
d="M778 1450l-270 -295h-121l205 295h186zM456 866q-80 0 -140 -38t-60 -108t53 -106t199 -66q308 -62 309 -276q0 -152 -105 -224t-255 -73q-252 0 -379 187l110 82q39 -66 112 -108t163 -42t153 40q64 40 64 120t-67 119t-168 62t-140 37t-85 44q-99 62 -98 194t100 202
t222 71q124 0 218 -46t139 -126l-107 -80q-31 61 -94 98t-144 37z" />
    <glyph glyph-name="Scircumflex" unicode="&#x15c;" horiz-adv-x="1155" 
d="M682 1860l223 -295h-135l-170 221l-170 -221h-135l223 295h164zM596 1362q-121 0 -215 -72t-94 -186t61 -178q23 -25 75 -52q52 -26 82 -36q31 -10 99 -33t90 -30t81 -32q60 -25 84 -42q100 -71 121 -113q52 -105 52 -207q0 -203 -141 -311t-332 -107q-137 0 -259 55
t-198 160l127 94q51 -82 137 -132t204 -50q116 0 214 75t99 206q0 162 -153 236q-65 32 -176 67q-112 36 -170 62q-162 74 -213 187q-32 71 -32 184t73 207q135 174 390 173q137 0 246 -50t164 -126l-117 -94q-102 145 -299 145z" />
    <glyph glyph-name="scircumflex" unicode="&#x15d;" horiz-adv-x="909" 
d="M553 1450l223 -295h-135l-170 221l-170 -221h-135l223 295h164zM456 866q-80 0 -140 -38t-60 -108t53 -106t199 -66q308 -62 309 -276q0 -152 -105 -224t-255 -73q-252 0 -379 187l110 82q39 -66 112 -108t163 -42t153 40q64 40 64 120t-67 119t-168 62t-140 37t-85 44
q-99 62 -98 194t100 202t222 71q124 0 218 -46t139 -126l-107 -80q-31 61 -94 98t-144 37z" />
    <glyph glyph-name="Scedilla" unicode="&#x15e;" horiz-adv-x="1155" 
d="M596 1362q-121 0 -215 -72t-94 -186t61 -178q23 -25 75 -52q52 -26 82 -36q31 -10 99 -33t90 -30t81 -32q60 -25 84 -42q100 -71 121 -113q52 -105 52 -207q0 -189 -122 -295t-298 -121l-73 -119q27 8 83 8t106 -38q50 -39 50 -121t-72 -124t-172 -42q-101 0 -190 41
l33 74q63 -29 127 -29t107 23q44 23 44 67q0 80 -110 80q-45 0 -88 -16l-37 30l104 166q-128 7 -240 61t-182 152l127 94q51 -82 137 -132t204 -50q116 0 214 75t99 206q0 162 -153 236q-65 32 -176 67q-112 36 -170 62q-162 74 -213 187q-32 71 -32 184t73 207
q135 174 390 173q137 0 246 -50t164 -126l-117 -94q-102 145 -299 145z" />
    <glyph glyph-name="scedilla" unicode="&#x15f;" horiz-adv-x="909" 
d="M456 866q-80 0 -140 -38t-60 -108t53 -106t199 -66q308 -62 309 -276q0 -134 -86 -206t-217 -86l-82 -134q28 8 84 8t106 -38q50 -39 50 -121t-72 -124t-173 -42t-189 41l32 74q63 -29 127 -29t108 23t44 67q0 80 -111 80q-45 0 -88 -16l-37 30l111 178q-231 14 -346 185
l110 82q39 -66 112 -108t163 -42t153 40q64 40 64 120t-67 119t-168 62t-140 37t-85 44q-99 62 -98 194t100 202t222 71q124 0 218 -46t139 -126l-107 -80q-31 61 -94 98t-144 37z" />
    <glyph glyph-name="Scaron" unicode="&#x160;" horiz-adv-x="1155" 
d="M891 1860l-223 -295h-164l-223 295h135l170 -222l170 222h135zM596 1362q-121 0 -215 -72t-94 -186t61 -178q23 -25 75 -52q52 -26 82 -36q31 -10 99 -33t90 -30t81 -32q60 -25 84 -42q100 -71 121 -113q52 -105 52 -207q0 -203 -141 -311t-332 -107q-137 0 -259 55
t-198 160l127 94q51 -82 137 -132t204 -50q116 0 214 75t99 206q0 162 -153 236q-65 32 -176 67q-112 36 -170 62q-162 74 -213 187q-32 71 -32 184t73 207q135 174 390 173q137 0 246 -50t164 -126l-117 -94q-102 145 -299 145z" />
    <glyph glyph-name="scaron" unicode="&#x161;" horiz-adv-x="909" 
d="M776 1450l-223 -295h-164l-223 295h135l170 -221l170 221h135zM456 866q-80 0 -140 -38t-60 -108t53 -106t199 -66q308 -62 309 -276q0 -152 -105 -224t-255 -73q-252 0 -379 187l110 82q39 -66 112 -108t163 -42t153 40q64 40 64 120t-67 119t-168 62t-140 37t-85 44
q-99 62 -98 194t100 202t222 71q124 0 218 -46t139 -126l-107 -80q-31 61 -94 98t-144 37z" />
    <glyph glyph-name="Tcommaaccent" unicode="&#x162;" horiz-adv-x="1167" 
d="M692 -92l-155 -379h-117l127 379h145zM657 1319v-1319h-147v1319h-485v131h1118v-131h-486z" />
    <glyph glyph-name="tcommaaccent" unicode="&#x163;" horiz-adv-x="649" 
d="M512 -92l-156 -379h-116l127 379h145zM616 958v-116h-270v-559q0 -101 37 -139t101 -38t126 31l6 -121q-76 -28 -168 -28t-167 57q-74 57 -74 199v598h-199v116h199v271h139v-271h270z" />
    <glyph glyph-name="Tcaron" unicode="&#x164;" horiz-adv-x="1167" 
d="M889 1860l-223 -295h-164l-223 295h135l170 -222l170 222h135zM657 1319v-1319h-147v1319h-485v131h1118v-131h-486z" />
    <glyph glyph-name="tcaron" unicode="&#x165;" horiz-adv-x="669" 
d="M733 1497l-155 -379h-117l127 379h145zM616 958v-116h-270v-559q0 -101 37 -139t101 -38t126 31l6 -121q-76 -28 -168 -28t-167 57q-74 57 -74 199v598h-199v116h199v271h139v-271h270z" />
    <glyph glyph-name="Tbar" unicode="&#x166;" horiz-adv-x="1167" 
d="M150 1112h360v207h-485v131h1118v-131h-486v-207h340v-102h-340v-1010h-147v1010h-360v102z" />
    <glyph glyph-name="tbar" unicode="&#x167;" horiz-adv-x="649" 
d="M25 643h182v199h-199v116h199v271h139v-271h270v-116h-270v-199h252v-102h-252v-258q0 -101 37 -139t101 -38t126 31l6 -121q-76 -28 -168 -28t-167 57q-74 57 -74 199v297h-182v102z" />
    <glyph glyph-name="Utilde" unicode="&#x168;" horiz-adv-x="1454" 
d="M584 1802q55 0 153 -47t133 -47q76 0 101 102h88q-37 -213 -189 -213q-59 -1 -149 47t-137 48q-76 -1 -101 -103h-88q37 213 189 213zM727 -37q-125 0 -222 38t-157 95q-59 57 -97 137q-65 136 -67 308v909h148v-893q0 -197 95 -330t300 -133t300 133t95 330v893h148
v-909q0 -167 -67 -308q-38 -80 -97 -137q-58 -57 -156 -95t-223 -38z" />
    <glyph glyph-name="utilde" unicode="&#x169;" horiz-adv-x="1189" 
d="M453 1393q55 0 153 -47t133 -48q76 0 101 103h88q-37 -213 -189 -213q-59 0 -149 47t-137 47q-76 0 -101 -102h-88q37 213 189 213zM176 371v587h139v-530q1 -162 59 -249t190 -87t217 97t85 278v491h140v-747q0 -123 8 -211h-133q-8 102 -9 164h-4q-39 -82 -132 -135
t-195 -54q-177 1 -271 107t-94 289z" />
    <glyph glyph-name="Umacron" unicode="&#x16a;" horiz-adv-x="1454" 
d="M1006 1749v-111h-553v111h553zM727 -37q-125 0 -222 38t-157 95q-59 57 -97 137q-65 136 -67 308v909h148v-893q0 -197 95 -330t300 -133t300 133t95 330v893h148v-909q0 -167 -67 -308q-38 -80 -97 -137q-58 -57 -156 -95t-223 -38z" />
    <glyph glyph-name="umacron" unicode="&#x16b;" horiz-adv-x="1189" 
d="M870 1339v-110h-553v110h553zM176 371v587h139v-530q1 -162 59 -249t190 -87t217 97t85 278v491h140v-747q0 -123 8 -211h-133q-8 102 -9 164h-4q-39 -82 -132 -135t-195 -54q-177 1 -271 107t-94 289z" />
    <glyph glyph-name="Ubreve" unicode="&#x16c;" horiz-adv-x="1454" 
d="M727 1589q-127 0 -210 73t-91 198h90q12 -78 72 -119t139 -41t139 41t72 119h90q-8 -125 -91 -198t-210 -73zM727 -37q-125 0 -222 38t-157 95q-59 57 -97 137q-65 136 -67 308v909h148v-893q0 -197 95 -330t300 -133t300 133t95 330v893h148v-909q0 -167 -67 -308
q-38 -80 -97 -137q-58 -57 -156 -95t-223 -38z" />
    <glyph glyph-name="ubreve" unicode="&#x16d;" horiz-adv-x="1189" 
d="M598 1290q80 0 140 41t71 119h90q-8 -125 -91 -198q-83 -72 -210 -72t-210 72t-91 198h90q11 -78 71 -119t140 -41zM176 371v587h139v-530q1 -162 59 -249t190 -87t217 97t85 278v491h140v-747q0 -123 8 -211h-133q-8 102 -9 164h-4q-39 -82 -132 -135t-195 -54
q-177 1 -271 107t-94 289z" />
    <glyph glyph-name="Uring" unicode="&#x16e;" horiz-adv-x="1454" 
d="M854 1741q0 51 -36 86t-87 35t-87 -35t-36 -86t36 -86t87 -35t87 35t36 86zM928 1741q0 -82 -58 -138q-58 -57 -139 -57q-80 0 -138 56t-58 139q0 82 58 138t138 56q81 0 139 -56t58 -138zM727 -37q-125 0 -222 38t-157 95q-59 57 -97 137q-65 136 -67 308v909h148v-893
q0 -197 95 -330t300 -133t300 133t95 330v893h148v-909q0 -167 -67 -308q-38 -80 -97 -137q-58 -57 -156 -95t-223 -38z" />
    <glyph glyph-name="uring" unicode="&#x16f;" horiz-adv-x="1189" 
d="M717 1331q0 51 -36 86t-87 35t-87 -35t-36 -86t36 -86t87 -35t87 35t36 86zM791 1331q-1 -82 -59 -138t-138 -56t-138 56t-59 138q1 82 59 138q58 57 138 57t138 -56t59 -139zM176 371v587h139v-530q1 -162 59 -249t190 -87t217 97t85 278v491h140v-747q0 -123 8 -211
h-133q-8 102 -9 164h-4q-39 -82 -132 -135t-195 -54q-177 1 -271 107t-94 289z" />
    <glyph glyph-name="Uhungarumlaut" unicode="&#x170;" horiz-adv-x="1454" 
d="M1219 1860l-271 -295h-121l205 295h187zM870 1860l-272 -295h-121l207 295h186zM727 -37q-125 0 -222 38t-157 95q-59 57 -97 137q-65 136 -67 308v909h148v-893q0 -197 95 -330t300 -133t300 133t95 330v893h148v-909q0 -167 -67 -308q-38 -80 -97 -137
q-58 -57 -156 -95t-223 -38z" />
    <glyph glyph-name="uhungarumlaut" unicode="&#x171;" horiz-adv-x="1189" 
d="M1090 1450l-271 -295h-121l205 295h187zM741 1450l-272 -295h-121l207 295h186zM176 371v587h139v-530q1 -162 59 -249t190 -87t217 97t85 278v491h140v-747q0 -123 8 -211h-133q-8 102 -9 164h-4q-39 -82 -132 -135t-195 -54q-177 1 -271 107t-94 289z" />
    <glyph glyph-name="Uogonek" unicode="&#x172;" horiz-adv-x="1454" 
d="M727 -37q-125 0 -222 38t-157 95q-59 57 -97 137q-65 136 -67 308v909h148v-893q0 -197 95 -330t300 -133t300 133t95 330v893h148v-909q0 -185 -84 -342q-45 -85 -131 -145t-203 -81q-70 -69 -100 -119t-31 -98q0 -48 30 -74q31 -28 83 -28t94 45l39 -82
q-79 -74 -169 -74t-145 49t-55 125q0 123 139 246h-10z" />
    <glyph glyph-name="uogonek" unicode="&#x173;" horiz-adv-x="1189" 
d="M901 -457q-90 0 -145 49t-56 125q0 135 183 283h-2q-8 102 -9 164h-4q-39 -82 -132 -135t-195 -54q-177 1 -271 107t-94 289v587h139v-530q1 -162 59 -249t190 -87t217 97t85 278v491h140v-747q0 -123 8 -211h-33q-84 -84 -121 -138t-37 -104t30 -76q30 -28 83 -28t94 45
l39 -82q-78 -74 -168 -74z" />
    <glyph glyph-name="Wcircumflex" unicode="&#x174;" horiz-adv-x="1990" 
d="M1077 1860l223 -295h-135l-170 221l-170 -221h-135l223 295h164zM184 1450l359 -1247h4l362 1247h176l363 -1247h4l354 1247h156l-428 -1450h-172l-365 1245h-4l-364 -1245h-172l-428 1450h155z" />
    <glyph glyph-name="wcircumflex" unicode="&#x175;" horiz-adv-x="1527" 
d="M844 1450l223 -295h-135l-170 221l-170 -221h-135l223 295h164zM53 958h150l231 -778h4l258 778h135l263 -778h4l229 778h148l-304 -958h-151l-256 776h-4l-252 -776h-152z" />
    <glyph glyph-name="Ycircumflex" unicode="&#x176;" horiz-adv-x="1232" 
d="M702 1860l224 -295h-135l-170 221l-170 -221h-136l224 295h163zM690 0h-147v625l-543 825h184l437 -702l440 702h172l-543 -825v-625z" />
    <glyph glyph-name="ycircumflex" unicode="&#x177;" horiz-adv-x="999" 
d="M598 1450l223 -295h-135l-170 221l-170 -221h-135l223 295h164zM188 958l326 -808h4l297 808h152l-478 -1206q-47 -121 -115 -182t-186 -62q-63 0 -125 13l15 127q141 -46 212 25q42 42 75 128l77 201l-409 956h155z" />
    <glyph glyph-name="Ydieresis" unicode="&#x178;" horiz-adv-x="1232" 
d="M713 1735q-1 41 29 73t75 31q45 0 75 -32q30 -33 30 -73t-30 -72t-75 -32t-75 32q-29 32 -29 73zM319 1735q0 41 30 73t75 31q45 0 75 -32q29 -33 29 -73t-30 -72t-74 -32q-45 0 -75 32t-30 73zM690 0h-147v625l-543 825h184l437 -702l440 702h172l-543 -825v-625z" />
    <glyph glyph-name="Zacute" unicode="&#x179;" horiz-adv-x="1171" 
d="M883 1860l-271 -295h-120l204 295h187zM1096 1450v-123l-846 -1196h858v-131h-1045v123l848 1196h-825v131h1010z" />
    <glyph glyph-name="zacute" unicode="&#x17a;" horiz-adv-x="905" 
d="M764 1450l-270 -295h-121l205 295h186zM821 958v-98l-573 -739h594v-121h-779v98l572 744h-543v116h729z" />
    <glyph glyph-name="Zdotaccent" unicode="&#x17b;" horiz-adv-x="1171" 
d="M682 1737q0 -41 -30 -70t-68 -29t-69 29q-30 29 -30 70t30 69t69 29q38 -1 68 -29t30 -69zM1096 1450v-123l-846 -1196h858v-131h-1045v123l848 1196h-825v131h1010z" />
    <glyph glyph-name="zdotaccent" unicode="&#x17c;" horiz-adv-x="905" 
d="M553 1327q0 -41 -30 -70q-31 -29 -69 -29t-68 30q-30 28 -30 69t30 70t69 29t69 -30q30 -28 29 -69zM821 958v-98l-573 -739h594v-121h-779v98l572 744h-543v116h729z" />
    <glyph glyph-name="Zcaron" unicode="&#x17d;" horiz-adv-x="1171" 
d="M893 1860l-223 -295h-164l-223 295h135l170 -222l170 222h135zM1096 1450v-123l-846 -1196h858v-131h-1045v123l848 1196h-825v131h1010z" />
    <glyph glyph-name="zcaron" unicode="&#x17e;" horiz-adv-x="905" 
d="M766 1450l-223 -295h-164l-223 295h135l170 -221l170 221h135zM821 958v-98l-573 -739h594v-121h-779v98l572 744h-543v116h729z" />
    <glyph glyph-name="florin" unicode="&#x192;" horiz-adv-x="1187" 
d="M905 858v-110h-243l-138 -721q-27 -137 -97 -225q-71 -87 -220 -87q-96 0 -160 37l55 113q49 -27 122 -27t109 58t54 159l129 693h-221v110h244l55 295q59 322 311 322q113 0 195 -60l-70 -98q-49 35 -117 35q-145 0 -184 -238l-45 -256h221z" />
    <glyph glyph-name="Scommaaccent" unicode="&#x218;" horiz-adv-x="1155" 
d="M692 -92l-155 -379h-117l127 379h145zM596 1362q-121 0 -215 -72t-94 -186t61 -178q23 -25 75 -52q52 -26 82 -36q31 -10 99 -33t90 -30t81 -32q60 -25 84 -42q100 -71 121 -113q52 -105 52 -207q0 -203 -141 -311t-332 -107q-137 0 -259 55t-198 160l127 94
q51 -82 137 -132t204 -50q116 0 214 75t99 206q0 162 -153 236q-65 32 -176 67q-112 36 -170 62q-162 74 -213 187q-32 71 -32 184t73 207q135 174 390 173q137 0 246 -50t164 -126l-117 -94q-102 145 -299 145z" />
    <glyph glyph-name="scommaaccent" unicode="&#x219;" horiz-adv-x="909" 
d="M559 -92l-156 -379h-116l127 379h145zM456 866q-80 0 -140 -38t-60 -108t53 -106t199 -66q308 -62 309 -276q0 -152 -105 -224t-255 -73q-252 0 -379 187l110 82q39 -66 112 -108t163 -42t153 40q64 40 64 120t-67 119t-168 62t-140 37t-85 44q-99 62 -98 194t100 202
t222 71q124 0 218 -46t139 -126l-107 -80q-31 61 -94 98t-144 37z" />
    <glyph glyph-name="uni021A" unicode="&#x21a;" horiz-adv-x="1167" 
d="M692 -92l-155 -379h-117l127 379h145zM657 1319v-1319h-147v1319h-485v131h1118v-131h-486z" />
    <glyph glyph-name="uni021B" unicode="&#x21b;" horiz-adv-x="649" 
d="M512 -92l-156 -379h-116l127 379h145zM616 958v-116h-270v-559q0 -101 37 -139t101 -38t126 31l6 -121q-76 -28 -168 -28t-167 57q-74 57 -74 199v598h-199v116h199v271h139v-271h270z" />
    <glyph glyph-name="circumflex" unicode="&#x2c6;" 
d="M328 1450l223 -295h-135l-170 221l-170 -221h-135l223 295h164z" />
    <glyph glyph-name="caron" unicode="&#x2c7;" 
d="M551 1450l-223 -295h-164l-223 295h135l170 -221l170 221h135z" />
    <glyph glyph-name="uni02C9" unicode="&#x2c9;" 
d="M522 1749v-111h-553v111h553z" />
    <glyph glyph-name="breve" unicode="&#x2d8;" 
d="M246 1290q80 0 140 41t71 119h90q-8 -125 -91 -198q-83 -72 -210 -72t-210 72t-91 198h90q12 -78 71 -119q60 -41 140 -41z" />
    <glyph glyph-name="dotaccent" unicode="&#x2d9;" 
d="M344 1327q0 -41 -30 -70t-68 -29t-69 30q-30 28 -30 69t30 70t69 29q38 0 68 -30q30 -28 30 -69z" />
    <glyph glyph-name="ring" unicode="&#x2da;" 
d="M369 1331q0 51 -36 86t-87 35t-87 -35t-36 -86t36 -86t87 -35t87 35t36 86zM442 1331q0 -82 -58 -138t-138 -56t-138 56t-59 138q1 82 59 138q58 57 138 57t138 -56t58 -139z" />
    <glyph glyph-name="ogonek" unicode="&#x2db;" 
d="M262 -457q-90 0 -145 49t-56 125q0 135 183 283h98q-84 -84 -121 -138t-37 -104t30 -76q30 -28 83 -28t94 45l39 -82q-78 -74 -168 -74z" />
    <glyph glyph-name="tilde" unicode="&#x2dc;" 
d="M102 1393q56 0 154 -47t133 -48q76 0 100 103h89q-37 -213 -189 -213q-59 0 -149 47t-138 47q-75 0 -100 -102h-88q37 213 188 213z" />
    <glyph glyph-name="hungarumlaut" unicode="&#x2dd;" 
d="M616 1450l-270 -295h-121l205 295h186zM268 1450l-272 -295h-121l207 295h186z" />
    <glyph glyph-name="uni0394" unicode="&#x394;" horiz-adv-x="1372" 
d="M1149 127l-469 1194l-463 -1194h932zM1346 0h-1315l575 1458h152z" />
    <glyph glyph-name="uni03A9" unicode="&#x3a9;" horiz-adv-x="1523" 
d="M1403 0h-514v371q182 31 279 161q98 130 98 332q0 203 -148 345q-148 143 -368 143t-368 -142t-148 -346q0 -202 98 -334t278 -159v-371h-514v119h404v168q-188 53 -296 209t-108 356q0 268 193 446t463 178t460 -176q190 -178 191 -446q-1 -202 -107 -358t-297 -209
v-168h404v-119z" />
    <glyph glyph-name="uni03BC" unicode="&#x3bc;" horiz-adv-x="1138" 
d="M147 -467v1425h136v-530q0 -180 57 -255q58 -75 194 -75t218 98t82 271v491h135v-747q0 -37 10 -211h-145v156h-5q-45 -74 -137 -127t-184 -54q-141 0 -225 60v-502h-136z" />
    <glyph glyph-name="pi" unicode="&#x3c0;" horiz-adv-x="1153" 
d="M1085 23q-76 -35 -146 -35t-105 39t-39 96q-4 58 -4 104v611h-451v-838h-131v838h-143v120h1011v-120h-155v-625q0 -37 3 -56t21 -37t56 -18t83 21v-100z" />
    <glyph glyph-name="endash" unicode="&#x2013;" horiz-adv-x="819" 
d="M758 555v-117h-697v117h697z" />
    <glyph glyph-name="emdash" unicode="&#x2014;" horiz-adv-x="1228" 
d="M1167 555v-117h-1106v117h1106z" />
    <glyph glyph-name="quoteleft" unicode="&#x2018;" horiz-adv-x="454" 
d="M86 969l166 481h117l-138 -481h-145z" />
    <glyph glyph-name="quoteright" unicode="&#x2019;" horiz-adv-x="454" 
d="M369 1450l-166 -481h-117l137 481h146z" />
    <glyph glyph-name="quotesinglbase" unicode="&#x201a;" horiz-adv-x="454" 
d="M369 195l-166 -482h-117l137 482h146z" />
    <glyph glyph-name="quotedblleft" unicode="&#x201c;" horiz-adv-x="792" 
d="M424 969l166 481h117l-138 -481h-145zM86 969l166 481h117l-138 -481h-145z" />
    <glyph glyph-name="quotedblright" unicode="&#x201d;" horiz-adv-x="792" 
d="M369 1450l-166 -481h-117l137 481h146zM707 1450l-166 -481h-117l137 481h146z" />
    <glyph glyph-name="quotedblbase" unicode="&#x201e;" horiz-adv-x="792" 
d="M369 195l-166 -482h-117l137 482h146zM707 195l-166 -482h-117l137 482h146z" />
    <glyph glyph-name="dagger" unicode="&#x2020;" horiz-adv-x="1138" 
d="M637 1450v-418h418v-123h-418v-1167h-135v1167h-418v123h418v418h135z" />
    <glyph glyph-name="daggerdbl" unicode="&#x2021;" horiz-adv-x="1138" 
d="M637 1450v-393h399v-123h-399v-676h399v-123h-399v-393h-135v393h-400v123h400v676h-400v123h400v393h135z" />
    <glyph glyph-name="bullet" unicode="&#x2022;" horiz-adv-x="1024" 
d="M150 725q0 152 105 257t257 105t257 -105t105 -257t-105 -257q-105 -106 -257 -106t-257 106t-105 257z" />
    <glyph glyph-name="ellipsis" unicode="&#x2026;" horiz-adv-x="2048" 
d="M1817 98q0 -45 -32 -78q-32 -32 -79 -32t-79 32t-32 78q0 45 32 78t79 33t79 -33t32 -78zM1135 98q0 -45 -32 -78q-32 -32 -79 -32t-79 32t-32 78q0 45 32 78t79 33t79 -33t32 -78zM453 98q0 -45 -32 -78q-32 -32 -79 -32t-79 32t-32 78q0 45 32 78t79 33t79 -33t32 -78z
" />
    <glyph glyph-name="perthousand" unicode="&#x2030;" horiz-adv-x="2048" 
d="M1178 1458l-922 -1521l-106 55l923 1521zM1886 291q0 84 -59 144q-59 61 -143 61t-144 -60q-59 -60 -59 -145t59 -145t143 -60t144 60q59 61 59 145zM1997 291q0 -129 -92 -222q-91 -93 -221 -93t-222 92q-92 94 -92 223t92 222t221 93t221 -93t93 -222zM1169 291
q0 84 -59 144q-59 61 -143 61q-83 0 -143 -60t-60 -145t59 -145t143 -60t144 60q59 60 59 145zM1280 291q0 -129 -92 -222t-221 -93t-221 92q-92 94 -93 223q0 129 92 222q91 93 221 93t222 -93t92 -222zM567 1159q0 85 -59 145t-143 60q-83 0 -143 -60t-60 -144t59 -145
t143 -61t144 60q59 60 59 145zM678 1159q0 -129 -92 -222t-221 -93t-222 93q-92 93 -92 222t92 222q91 93 221 93t222 -92q92 -94 92 -223z" />
    <glyph glyph-name="guilsinglleft" unicode="&#x2039;" horiz-adv-x="645" 
d="M268 492l236 -361l-96 -68l-287 429l287 428l96 -68z" />
    <glyph glyph-name="guilsinglright" unicode="&#x203a;" horiz-adv-x="645" 
d="M377 492l-236 360l97 68l286 -428l-286 -429l-97 68z" />
    <glyph glyph-name="fraction" unicode="&#x2044;" horiz-adv-x="204" 
d="M608 1458l-921 -1521l-107 55l924 1521z" />
    <glyph glyph-name="Euro" unicode="&#x20ac;" horiz-adv-x="1187" 
d="M305 722q0 -58 8 -124h525l-37 -113h-473q34 -177 160 -285t293 -108t284 82l59 -115q-136 -96 -364 -96t-384 154t-196 368h-155l41 113h100q-6 80 -6 132t8 118h-141l41 113h116q55 248 219 387t390 139q180 0 305 -66l-51 -125q-103 62 -269 62t-284 -106t-160 -291
h614l-37 -113h-596q-10 -68 -10 -126z" />
    <glyph glyph-name="afii61289" unicode="&#x2113;" horiz-adv-x="1024" 
d="M696 1204q0 78 -30 126q-31 48 -80 48t-86 -61t-37 -176v-455q233 270 233 518zM598 -29q-131 0 -203 68t-71 194v234l-119 -127h-4l-54 76l177 172v530q0 166 74 262t182 96t170 -70q62 -71 63 -192q0 -291 -350 -651v-307q0 -96 45 -137t108 -41q94 0 181 78h4l49 -72
q-121 -113 -252 -113z" />
    <glyph glyph-name="trademark" unicode="&#x2122;" horiz-adv-x="2048" 
d="M1901 1450v-844h-123v709h-4l-285 -709h-80l-285 709h-4v-709h-123v844h191l264 -647l264 647h185zM821 1450v-111h-272v-733h-123v733h-279v111h674z" />
    <glyph glyph-name="Omega" unicode="&#x2126;" horiz-adv-x="1523" 
d="M1403 0h-514v371q182 31 279 161q98 130 98 332q0 203 -148 345q-148 143 -368 143t-368 -142t-148 -346q0 -202 98 -334t278 -159v-371h-514v119h404v168q-188 53 -296 209t-108 356q0 268 193 446t463 178t460 -176q190 -178 191 -446q-1 -202 -107 -358t-297 -209
v-168h404v-119z" />
    <glyph glyph-name="estimated" unicode="&#x212e;" horiz-adv-x="1236" 
d="M322 604h596v297q-130 123 -302 123t-294 -123v-297zM322 530v-370q121 -121 296 -121q250 0 396 246l71 -43q-94 -147 -200 -212t-267 -65q-236 0 -382 162q-146 163 -146 405t146 403t382 161t382 -158t149 -408h-827z" />
    <glyph glyph-name="partialdiff" unicode="&#x2202;" horiz-adv-x="1015" 
d="M473 84q223 0 296 329q18 76 22 156q-139 186 -318 187q-131 0 -206 -96t-75 -230q0 -135 75 -241q75 -105 206 -105zM433 1364q-103 0 -226 -94l-74 88q137 119 287 119t252 -68q104 -67 157 -181q103 -221 103 -485q0 -557 -262 -715q-86 -52 -199 -53
q-184 -1 -296 135t-112 322t108 312q109 126 299 126t331 -172l2 107q0 196 -77 363q-40 88 -115 142t-178 54z" />
    <glyph glyph-name="Delta" unicode="&#x2206;" horiz-adv-x="1372" 
d="M1149 127l-469 1194l-463 -1194h932zM1346 0h-1315l575 1458h152z" />
    <glyph glyph-name="product" unicode="&#x220f;" horiz-adv-x="1456" 
d="M1313 -438h-135v1921h-897v-1921h-136v2048h1168v-2048z" />
    <glyph glyph-name="summation" unicode="&#x2211;" horiz-adv-x="1236" 
d="M1184 -438h-1133v112l674 918l-645 903v115h1079v-127h-905l633 -891l-672 -905h969v-125z" />
    <glyph glyph-name="minus" unicode="&#x2212;" horiz-adv-x="1363" 
d="M1204 682v-123h-1044v123h1044z" />
    <glyph glyph-name="uni2215" unicode="&#x2215;" horiz-adv-x="204" 
d="M608 1458l-921 -1521l-107 55l924 1521z" />
    <glyph glyph-name="uni2219" unicode="&#x2219;" horiz-adv-x="532" 
d="M377 643q0 -45 -32 -78t-79 -33t-79 33t-31 78q0 45 31 78q32 33 79 33t79 -33t32 -78z" />
    <glyph glyph-name="radical" unicode="&#x221a;" horiz-adv-x="1009" 
d="M1028 1610l-430 -2048h-135l-336 696l-94 -45l-49 102l204 99l324 -680l387 1876h129z" />
    <glyph glyph-name="infinity" unicode="&#x221e;" horiz-adv-x="1517" 
d="M201 510q0 -78 46 -128t126 -50q127 0 309 178q-6 4 -68 58q-147 128 -257 128q-68 0 -112 -54t-44 -132zM1317 512q0 80 -45 133t-125 53q-44 0 -92 -22t-90 -55t-59 -49t-41 -38t-27 -26q68 -59 98 -84q30 -24 94 -58q66 -34 132 -34t111 50q44 50 44 130zM1434 515
q0 -130 -79 -216t-208 -86q-74 0 -151 38q-76 38 -120 75t-116 106q-18 -14 -68 -58q-143 -127 -231 -150q-43 -11 -90 -11q-127 0 -207 85t-80 213t78 215t200 87t226 -80q59 -45 83 -65t89 -84q147 147 185 166q99 51 132 58t66 7q129 0 210 -85t81 -215z" />
    <glyph glyph-name="integral" unicode="&#x222b;" horiz-adv-x="1112" 
d="M831 1516q1 -78 -79 -78q-36 0 -63 41q-26 41 -43 41q-18 0 -32 -20q-45 -60 -37 -281q3 -87 3 -91v-1032q0 -250 -33 -354q-57 -178 -217 -178q-49 0 -86 24t-37 62q0 37 19 56t56 20t69 -59q11 -19 26 -19q66 0 65 325l2 43v1014q0 16 -2 100t5 179q8 96 24 135t42 82
q50 82 175 84q55 0 99 -26t44 -68z" />
    <glyph glyph-name="approxequal" unicode="&#x2248;" horiz-adv-x="1363" 
d="M402 342q-70 0 -112 -48t-52 -116h-93q17 123 77 205t162 82t308 -74q195 -76 279 -76q125 0 159 160h91q-15 -121 -77 -202t-170 -81t-305 76q-198 74 -267 74zM976 543q-106 1 -305 75q-200 74 -269 74q-70 0 -112 -48t-52 -116h-93q15 123 77 204t166 81t303 -75
q200 -75 280 -74q127 0 162 159h88q-11 -119 -75 -199t-170 -81z" />
    <glyph glyph-name="notequal" unicode="&#x2260;" horiz-adv-x="1363" 
d="M1196 246h-588l-155 -295l-107 55l127 240h-305v123h371l139 266h-510v123h577l158 301l107 -58l-129 -243h315v-123h-381l-141 -266h522v-123z" />
    <glyph glyph-name="lessequal" unicode="&#x2264;" horiz-adv-x="1363" 
d="M1196 12h-1028v121h1028v-121zM1196 221l-1028 385v133l1028 387v-133l-858 -321l858 -318v-133z" />
    <glyph glyph-name="greaterequal" unicode="&#x2265;" horiz-adv-x="1363" 
d="M1196 12h-1028v121h1028v-121zM1196 606l-1028 -385v133l860 318l-860 321v133l1028 -387v-133z" />
    <glyph glyph-name="lozenge" unicode="&#x25ca;" horiz-adv-x="1214" 
d="M887 729l-281 666l-278 -666l278 -666zM1020 729l-350 -801h-129l-346 801l346 801h129z" />
    <glyph glyph-name="uniF8FF" unicode="&#xf8ff;" horiz-adv-x="1048" 
d="M1049 1470v-1470h-1049v1470h1049zM946 102v1264h-844v-1264h844zM524 1145q-145 0 -168 -195l-102 17q14 141 88 211t186 70t185 -74q72 -74 71 -195q0 -70 -26 -123t-103 -122q-76 -68 -88 -108t-12 -147h-94l-4 35q1 115 29 169t92 118q63 59 82 94q20 35 20 93
t-46 107q-46 50 -110 50zM455 240v137h114v-137h-114z" />
    <glyph glyph-name="ydieresis.sc" horiz-adv-x="958" 
d="M573 1386q0 41 30 73t75 32t75 -32q29 -32 29 -73q0 -40 -30 -72t-74 -32q-45 0 -75 32t-30 72zM180 1386q0 41 30 73t75 32t75 -32t29 -73q0 -40 -30 -72q-31 -32 -75 -32t-74 32t-30 72zM549 0h-143v471l-406 616h172l307 -497l307 497h172l-409 -616v-471z" />
    <glyph glyph-name="n.sc" horiz-adv-x="1255" 
d="M928 209v878h143v-1087h-180l-561 897h-2v-897h-144v1087h187l553 -878h4z" />
    <glyph glyph-name="umacron.sc" horiz-adv-x="1171" 
d="M866 1401v-111h-553v111h553zM1004 408q0 -180 -106 -306t-313 -127q-206 0 -312 126q-105 126 -105 307v679h143v-669q0 -133 66 -222q66 -90 209 -90t209 90t65 222v669h144v-679z" />
    <glyph glyph-name="ohungarumlaut.sc" horiz-adv-x="1376" 
d="M1171 1511l-270 -294h-121l205 294h186zM823 1511l-272 -294h-121l207 294h186zM270 547q0 -187 115 -315t302 -128t303 128t116 314q0 185 -116 313t-303 128t-302 -127t-115 -313zM1262 547q0 -248 -164 -410t-411 -162t-409 162t-163 410q-1 249 161 407t411 158
t412 -158t163 -407z" />
    <glyph glyph-name="iogonek.sc" horiz-adv-x="512" 
d="M246 -457q-92 0 -145 49q-54 49 -54 125q0 135 182 283h-45v1087h144v-1087q-86 -86 -122 -138t-36 -102t30 -78t83 -28t94 45l39 -82q-78 -74 -170 -74z" />
    <glyph glyph-name="p.sc" horiz-adv-x="997" 
d="M328 961v-398h178q118 0 186 52t68 151q0 195 -254 195h-178zM184 0v1087h338q178 0 281 -82q102 -83 102 -239q-1 -156 -109 -240t-282 -84h-186v-442h-144z" />
    <glyph glyph-name="macron.sc" 
d="M522 1401v-111h-553v111h553z" />
    <glyph glyph-name="ugrave.sc" horiz-adv-x="1171" 
d="M555 1217l-270 294h186l205 -294h-121zM1004 408q0 -180 -106 -306t-313 -127q-206 0 -312 126q-105 126 -105 307v679h143v-669q0 -133 66 -222q66 -90 209 -90t209 90t65 222v669h144v-679z" />
    <glyph glyph-name="oe.sc" horiz-adv-x="1591" 
d="M688 129h66v832h-66q-176 0 -291 -119t-115 -297t116 -297q114 -119 290 -119zM897 502v-373h571v-129h-780q-233 0 -395 153t-162 393t162 390q162 152 395 151h758v-126h-549v-334h516v-125h-516z" />
    <glyph glyph-name="udieresis.sc" horiz-adv-x="1171" 
d="M682 1386q0 41 30 73t74 32t75 -32q30 -32 30 -73q0 -40 -30 -72t-75 -32q-44 0 -74 32t-30 72zM289 1386q0 41 29 73q30 32 75 32t75 -32t30 -73q0 -40 -30 -72t-75 -32t-75 32t-29 72zM1004 408q0 -180 -106 -306t-313 -127q-206 0 -312 126q-105 126 -105 307v679h143
v-669q0 -133 66 -222q66 -90 209 -90t209 90t65 222v669h144v-679z" />
    <glyph glyph-name="grave.sc" 
d="M250 1217l-270 294h186l205 -294h-121z" />
    <glyph glyph-name="hungarumlaut.cap" 
d="M616 1860l-270 -295h-121l205 295h186zM268 1860l-272 -295h-121l207 295h186z" />
    <glyph glyph-name="otilde.sc" horiz-adv-x="1376" 
d="M543 1464q55 0 153 -47t133 -47q76 0 101 103h88q-37 -213 -189 -213q-59 0 -149 47t-137 47q-76 -1 -101 -103h-88q37 213 189 213zM270 547q0 -187 115 -315t302 -128t303 128t116 314q0 185 -116 313t-303 128t-302 -127t-115 -313zM1262 547q0 -248 -164 -410
t-411 -162t-409 162t-163 410q-1 249 161 407t411 158t412 -158t163 -407z" />
    <glyph glyph-name="imacron.sc" horiz-adv-x="512" 
d="M535 1401v-111h-553v111h553zM328 1087v-1087h-144v1087h144z" />
    <glyph glyph-name="ocircumflex.sc" horiz-adv-x="1376" 
d="M770 1511l223 -294h-135l-170 221l-170 -221h-135l223 294h164zM270 547q0 -187 115 -315t302 -128t303 128t116 314q0 185 -116 313t-303 128t-302 -127t-115 -313zM1262 547q0 -248 -164 -410t-411 -162t-409 162t-163 410q-1 249 161 407t411 158t412 -158t163 -407z
" />
    <glyph glyph-name="perthousand.sc" horiz-adv-x="1990" 
d="M1073 1092l-698 -1155l-96 55l700 1155zM1798 250q0 68 -48 114t-114 46t-114 -46t-47 -114q0 -68 48 -114q47 -46 113 -46t114 46t48 114zM1913 250q0 -115 -80 -195t-197 -80q-116 0 -196 80t-80 195q0 114 80 194t196 80t197 -80q80 -80 80 -194zM1157 250
q0 68 -48 114t-114 46q-65 0 -113 -46t-48 -114t48 -114t114 -46t113 46q48 46 48 114zM1272 250q0 -115 -80 -195t-197 -80t-197 80t-79 195q0 114 80 194q81 80 197 80t196 -80t80 -194zM520 838q0 68 -48 114t-114 45q-66 0 -114 -46q-48 -45 -47 -113q0 -68 48 -114
q47 -46 113 -46t114 46t48 114zM635 838q0 -115 -80 -195t-197 -80q-116 0 -196 80t-80 195q0 114 80 194t196 80t197 -80q80 -80 80 -194z" />
    <glyph glyph-name="napostrophe.sc" horiz-adv-x="1335" 
d="M193 1087l-156 -378h-117l127 378h146zM1008 209v878h143v-1087h-180l-561 897h-2v-897h-144v1087h187l553 -878h4z" />
    <glyph glyph-name="ij.sc" horiz-adv-x="1314" 
d="M836 106q168 0 168 234v747h143v-753q0 -131 -55 -234q-68 -125 -262 -125q-104 0 -186 64q-80 64 -105 166l135 39q14 -62 56 -100t106 -38zM328 1087v-1087h-144v1087h144z" />
    <glyph glyph-name="percent.sc" horiz-adv-x="1351" 
d="M1073 1092l-698 -1155l-96 55l700 1155zM1157 250q0 68 -48 114t-114 46q-65 0 -113 -46t-48 -114t48 -114t114 -46t113 46q48 46 48 114zM1272 250q0 -115 -80 -195t-197 -80t-197 80t-79 195q0 114 80 194q81 80 197 80t196 -80t80 -194zM520 838q0 68 -48 114t-114 45
q-66 0 -114 -46q-48 -45 -47 -113q0 -68 48 -114q47 -46 113 -46t114 46t48 114zM635 838q0 -115 -80 -195t-197 -80q-116 0 -196 80t-80 195q0 114 80 194t196 80t197 -80q80 -80 80 -194z" />
    <glyph glyph-name="obreve.sc" horiz-adv-x="1376" 
d="M686 1241q-127 0 -210 73t-91 197h90q11 -79 71 -119t140 -40t140 40t71 119h90q-8 -125 -91 -197t-210 -73zM270 547q0 -187 115 -315t302 -128t303 128t116 314q0 185 -116 313t-303 128t-302 -127t-115 -313zM1262 547q0 -248 -164 -410t-411 -162t-409 162t-163 410
q-1 249 161 407t411 158t412 -158t163 -407z" />
    <glyph glyph-name="two.onum" horiz-adv-x="1048" 
d="M926 0h-820v133l170 119q154 106 216 154q201 153 242 240q26 54 26 120q0 102 -69 162t-187 61q-199 0 -291 -186l-111 74q60 113 166 176t238 63q186 0 294 -91t108 -253t-136 -293q-74 -72 -137 -120t-186 -132l-136 -92v-6h613v-129z" />
    <glyph glyph-name="nine.sc" horiz-adv-x="991" 
d="M492 981q-94 0 -154 -62q-60 -61 -59 -157q0 -96 59 -158q60 -62 156 -63q96 1 156 63t59 157q1 95 -61 157t-156 63zM473 424q-145 0 -242 91q-96 91 -96 245t99 253q98 99 258 99t260 -97t100 -245t-98 -301l-293 -469h-164l291 449q-51 -25 -115 -25z" />
    <glyph glyph-name="oacute.sc" horiz-adv-x="1376" 
d="M981 1511l-270 -294h-121l205 294h186zM270 547q0 -187 115 -315t302 -128t303 128t116 314q0 185 -116 313t-303 128t-302 -127t-115 -313zM1262 547q0 -248 -164 -410t-411 -162t-409 162t-163 410q-1 249 161 407t411 158t412 -158t163 -407z" />
    <glyph glyph-name="idotaccent.sc" horiz-adv-x="512" 
d="M356 1327q0 -41 -30 -70t-68 -29q-39 0 -69 30q-30 28 -29 69q0 41 29 70q30 29 69 29t69 -29q29 -29 29 -70zM328 1087v-1087h-144v1087h144z" />
    <glyph glyph-name="ucircumflex.sc" horiz-adv-x="1171" 
d="M672 1511l223 -294h-135l-170 221l-170 -221h-135l223 294h164zM1004 408q0 -180 -106 -306t-313 -127q-206 0 -312 126q-105 126 -105 307v679h143v-669q0 -133 66 -222q66 -90 209 -90t209 90t65 222v669h144v-679z" />
    <glyph glyph-name="macron.cap" 
d="M522 1749v-111h-553v111h553z" />
    <glyph glyph-name="oslash.sc" horiz-adv-x="1376" 
d="M270 562q0 -169 76 -286l604 619q-110 94 -280 94t-285 -129t-115 -298zM1106 533q0 176 -92 296l-608 -622q116 -105 292 -105t292 128t116 303zM1262 536q0 -240 -164 -401q-164 -160 -402 -160t-391 129l-158 -161l-65 63l160 164q-127 156 -127 392q-1 236 161 392
q162 158 394 158t381 -115l139 144l65 -64l-137 -141q144 -160 144 -400z" />
    <glyph glyph-name="yacute.sc" horiz-adv-x="958" 
d="M760 1511l-271 -294h-120l204 294h187zM549 0h-143v471l-406 616h172l307 -497l307 497h172l-409 -616v-471z" />
    <glyph glyph-name="uhungarumlaut.sc" horiz-adv-x="1171" 
d="M1075 1511l-270 -294h-121l205 294h186zM727 1511l-272 -294h-121l207 294h186zM1004 408q0 -180 -106 -306t-313 -127q-206 0 -312 126q-105 126 -105 307v679h143v-669q0 -133 66 -222q66 -90 209 -90t209 90t65 222v669h144v-679z" />
    <glyph glyph-name="omacron.sc" horiz-adv-x="1376" 
d="M965 1401v-111h-553v111h553zM270 547q0 -187 115 -315t302 -128t303 128t116 314q0 185 -116 313t-303 128t-302 -127t-115 -313zM1262 547q0 -248 -164 -410t-411 -162t-409 162t-163 410q-1 249 161 407t411 158t412 -158t163 -407z" />
    <glyph glyph-name="z.sc" horiz-adv-x="1019" 
d="M901 1087v-122l-616 -836h626v-129h-802v125l614 836h-602v126h780z" />
    <glyph glyph-name="questiondown.sc" horiz-adv-x="778" 
d="M285 991q0 45 30 77q31 32 78 32t78 -32t31 -77t-31 -77t-78 -32t-78 32q-30 32 -30 77zM334 721v43h139v-72q0 -63 -27 -115t-94 -114l-57 -51q-76 -68 -76 -142t47 -124q47 -48 125 -48q145 0 180 160l136 -25q-25 -123 -108 -191t-220 -67q-137 0 -220 79
q-83 80 -83 180t33 160t107 116t95 101q23 44 23 110z" />
    <glyph glyph-name="idieresis.sc" horiz-adv-x="512" 
d="M346 1386q0 41 30 73t75 32t75 -32t29 -73q0 -40 -30 -72q-31 -32 -75 -32t-74 32t-30 72zM-47 1386q0 41 30 73q31 32 75 32t74 -32t30 -73q0 -40 -30 -72t-75 -32t-75 32t-29 72zM328 1087v-1087h-144v1087h144z" />
    <glyph glyph-name="one.sc" horiz-adv-x="991" 
d="M645 1087v-1087h-143v905l-176 -153l-86 100l278 235h127z" />
    <glyph glyph-name="question.sc" horiz-adv-x="778" 
d="M498 96q0 -45 -31 -77q-31 -31 -78 -31t-78 32t-30 76q0 45 30 77q31 32 78 32t78 -32t31 -77zM449 367v-43h-140v71q0 63 27 115t94 115l57 51q76 68 76 142t-47 122t-125 49q-145 0 -180 -160l-135 25q26 122 108 190t219 68t221 -79t83 -179q0 -100 -33 -160
t-107 -118q-74 -56 -96 -100t-22 -109z" />
    <glyph glyph-name="iacute.sc" horiz-adv-x="512" 
d="M580 1511l-271 -294h-121l205 294h187zM328 1087v-1087h-144v1087h144z" />
    <glyph glyph-name="three.sc" horiz-adv-x="991" 
d="M362 506v127h72q100 0 160 44q59 44 59 127t-57 132t-133 49q-127 0 -193 -129l-118 66q106 190 317 190q139 0 233 -79t95 -218q-1 -85 -51 -149t-130 -93q92 -27 150 -98q57 -72 57 -166q0 -157 -101 -245t-255 -89q-252 0 -352 242l135 51q66 -164 217 -164
q86 0 149 56q64 56 64 153t-68 145t-178 48h-72z" />
    <glyph glyph-name="ordfeminine.sc" horiz-adv-x="737" 
d="M369 1362l-109 -266h215zM231 1018l-55 -135h-121l256 592h117l254 -592h-121l-55 135h-275z" />
    <glyph glyph-name="l.sc" horiz-adv-x="862" 
d="M328 1087v-958h489v-129h-633v1087h144z" />
    <glyph glyph-name="scommaaccent.sc" horiz-adv-x="921" 
d="M543 -92l-156 -379h-117l127 379h146zM479 989q-87 0 -151 -45t-64 -133t63 -124q63 -37 143 -62t110 -35t83 -38q51 -28 77 -56q68 -77 69 -191q0 -160 -109 -245t-264 -85q-104 0 -200 42t-154 118l115 96q37 -59 101 -95t146 -36t151 50t69 143q0 94 -71 134
q-71 41 -197 78t-202 103t-75 208q-1 142 109 218q110 78 259 78q199 0 310 -127l-103 -98q-76 102 -215 102z" />
    <glyph glyph-name="uring.sc" horiz-adv-x="1171" 
d="M709 1393q0 51 -36 86t-87 35t-87 -36q-36 -34 -36 -85t36 -86t87 -35t87 35t36 86zM782 1393q0 -83 -58 -139t-138 -56t-139 56q-58 56 -58 138t58 139q59 56 139 56t138 -56t58 -138zM1004 408q0 -180 -106 -306t-313 -127q-206 0 -312 126q-105 126 -105 307v679h143
v-669q0 -133 66 -222q66 -90 209 -90t209 90t65 222v669h144v-679z" />
    <glyph glyph-name="i.sc" horiz-adv-x="512" 
d="M328 1087v-1087h-144v1087h144z" />
    <glyph glyph-name="hcircumflex.sc" horiz-adv-x="1259" 
d="M711 1511l223 -294h-135l-170 221l-170 -221h-135l223 294h164zM184 0v1087h144v-460h604v460h143v-1087h-143v502h-604v-502h-144z" />
    <glyph glyph-name="ograve.sc" horiz-adv-x="1376" 
d="M657 1217l-270 294h186l205 -294h-121zM270 547q0 -187 115 -315t302 -128t303 128t116 314q0 185 -116 313t-303 128t-302 -127t-115 -313zM1262 547q0 -248 -164 -410t-411 -162t-409 162t-163 410q-1 249 161 407t411 158t412 -158t163 -407z" />
    <glyph glyph-name="ycircumflex.sc" horiz-adv-x="958" 
d="M561 1511l223 -294h-135l-170 221l-170 -221h-135l223 294h164zM549 0h-143v471l-406 616h172l307 -497l307 497h172l-409 -616v-471z" />
    <glyph glyph-name="o.sc" horiz-adv-x="1376" 
d="M270 547q0 -187 115 -315t302 -128t303 128t116 314q0 185 -116 313t-303 128t-302 -127t-115 -313zM1262 547q0 -248 -164 -410t-411 -162t-409 162t-163 410q-1 249 161 407t411 158t412 -158t163 -407z" />
    <glyph glyph-name="scircumflex.sc" horiz-adv-x="921" 
d="M567 1511l224 -294h-136l-170 221l-170 -221h-135l223 294h164zM479 989q-87 0 -151 -45t-64 -133t63 -124q63 -37 143 -62t110 -35t83 -38q51 -28 77 -56q68 -77 69 -191q0 -160 -109 -245t-264 -85q-104 0 -200 42t-154 118l115 96q37 -59 101 -95t146 -36t151 50
t69 143q0 94 -71 134q-71 41 -197 78t-202 103t-75 208q-1 142 109 218q110 78 259 78q199 0 310 -127l-103 -98q-76 102 -215 102z" />
    <glyph glyph-name="j.sc" horiz-adv-x="819" 
d="M340 106q168 0 168 234v747h143v-753q0 -131 -55 -234q-68 -125 -248 -125q-119 0 -200 64q-80 64 -105 166l135 39q14 -62 56 -100t106 -38z" />
    <glyph glyph-name="igrave.sc" horiz-adv-x="512" 
d="M209 1217l-270 294h186l205 -294h-121zM328 1087v-1087h-144v1087h144z" />
    <glyph glyph-name="aring.sc" horiz-adv-x="1093" 
d="M670 1393q0 51 -36 86t-87 35t-87 -36q-36 -34 -36 -85t36 -86t87 -35t87 35t36 86zM743 1393q0 -83 -58 -139t-138 -56t-138 56q-59 56 -59 138t58 139q58 56 139 56q80 0 138 -56t58 -138zM545 922l-215 -525h426zM279 272l-115 -272h-152l469 1087h133l467 -1087h-161
l-113 272h-528z" />
    <glyph glyph-name="ring.sc" 
d="M369 1393q0 51 -36 86t-87 35t-87 -36q-36 -34 -36 -85t36 -86t87 -35t87 35t36 86zM442 1393q0 -83 -58 -139t-138 -56t-138 56t-58 138t58 139q58 56 138 56t138 -56t58 -138z" />
    <glyph glyph-name="hungarumlaut.sc" 
d="M616 1511l-270 -294h-121l205 294h186zM268 1511l-272 -294h-121l207 294h186z" />
    <glyph glyph-name="sterling.sc" horiz-adv-x="991" 
d="M684 618v-118h-242v-371h383v-129h-667v129h141v371h-129v118h129v127q0 171 92 269q93 98 241 98t247 -88l-93 -98q-66 66 -154 66t-139 -66q-50 -66 -51 -193v-115h242z" />
    <glyph glyph-name="nacute.sc" horiz-adv-x="1255" 
d="M905 1511l-270 -294h-121l205 294h186zM928 209v878h143v-1087h-180l-561 897h-2v-897h-144v1087h187l553 -878h4z" />
    <glyph glyph-name="ubreve.sc" horiz-adv-x="1171" 
d="M590 1241q-127 0 -210 73t-91 197h90q11 -79 71 -119t140 -40t140 40t71 119h90q-8 -125 -91 -197t-210 -73zM1004 408q0 -180 -106 -306t-313 -127q-206 0 -312 126q-105 126 -105 307v679h143v-669q0 -133 66 -222q66 -90 209 -90t209 90t65 222v669h144v-679z" />
    <glyph glyph-name="seven.sc" horiz-adv-x="991" 
d="M836 1087v-114l-435 -973h-161l438 956h-514v131h672z" />
    <glyph glyph-name="odieresis.sc" horiz-adv-x="1376" 
d="M776 1386q0 41 30 73t75 32t75 -32t29 -73q0 -40 -30 -72q-31 -32 -75 -32t-74 32t-30 72zM383 1386q0 41 30 73q31 32 75 32t74 -32t30 -73q0 -40 -30 -72t-75 -32t-75 32t-29 72zM270 547q0 -187 115 -315t302 -128t303 128t116 314q0 185 -116 313t-303 128t-302 -127
t-115 -313zM1262 547q0 -248 -164 -410t-411 -162t-409 162t-163 410q-1 249 161 407t411 158t412 -158t163 -407z" />
    <glyph glyph-name="zcaron.sc" horiz-adv-x="1019" 
d="M825 1511l-223 -294h-164l-223 294h135l170 -221l170 221h135zM901 1087v-122l-616 -836h626v-129h-802v125l614 836h-602v126h780z" />
    <glyph glyph-name="nine.onum" horiz-adv-x="1198" 
d="M600 989q-143 0 -234 -95q-92 -96 -92 -242t88 -241t234 -95t240 94q94 96 94 241t-93 242q-94 96 -237 96zM1079 622q1 -230 -193 -512t-446 -487l-116 82q160 123 301 279t215 301l-6 4q-104 -92 -282 -92t-303 128q-126 129 -126 329t136 331t344 131t342 -132
t134 -362z" />
    <glyph glyph-name="germandbls.sc" horiz-adv-x="1845" 
d="M1403 989q-86 0 -151 -45q-64 -45 -64 -133t62 -124q62 -37 143 -61q81 -26 111 -36t82 -38t78 -56q69 -76 69 -191q0 -160 -109 -245t-264 -85q-104 0 -200 42t-154 118l114 96q37 -59 102 -95q64 -36 146 -36t151 50t69 143q0 94 -72 135q-71 41 -197 78
q-125 36 -201 102t-76 208t110 218q110 78 259 78q198 0 309 -127l-102 -98q-76 102 -215 102zM485 989q-87 0 -151 -45t-64 -133t63 -124q63 -37 144 -62q80 -25 110 -35t82 -38q149 -80 147 -244q-2 -163 -110 -248t-264 -85q-104 0 -200 42t-154 118l115 96
q37 -59 101 -95t146 -36t151 50t69 143q0 94 -74 135q-54 32 -117 52t-69 22q-133 40 -209 106t-76 208q-1 142 109 218q110 78 260 78q198 0 309 -127l-103 -98q-76 102 -215 102z" />
    <glyph glyph-name="aacute.sc" horiz-adv-x="1093" 
d="M885 1511l-271 -294h-120l204 294h187zM545 922l-215 -525h426zM279 272l-115 -272h-152l469 1087h133l467 -1087h-161l-113 272h-528z" />
    <glyph glyph-name="q.sc" horiz-adv-x="1376" 
d="M270 552q0 -183 112 -303t295 -120t296 121t112 303q0 182 -112 308q-113 126 -294 126t-295 -126t-114 -309zM1313 129v-129h-635q-248 0 -406 153t-158 399t162 402q160 158 402 158t400 -158t159 -401q0 -285 -223 -420v-4h299z" />
    <glyph glyph-name="exclamdown.sc" horiz-adv-x="585" 
d="M401 991q-1 -45 -31 -77t-77 -32t-78 32t-31 77t31 77t78 32t77 -32t31 -77zM365 0h-144v764h144v-764z" />
    <glyph glyph-name="jcircumflex.sc" horiz-adv-x="819" 
d="M659 1511l224 -294h-135l-170 221l-170 -221h-136l224 294h163zM340 106q168 0 168 234v747h143v-753q0 -131 -55 -234q-68 -125 -248 -125q-119 0 -200 64q-80 64 -105 166l135 39q14 -62 56 -100t106 -38z" />
    <glyph glyph-name="lacute.sc" horiz-adv-x="862" 
d="M590 1511l-271 -294h-120l204 294h187zM328 1087v-958h489v-129h-633v1087h144z" />
    <glyph glyph-name="zacute.sc" horiz-adv-x="1019" 
d="M756 1511l-271 -294h-120l204 294h187zM901 1087v-122l-616 -836h626v-129h-802v125l614 836h-602v126h780z" />
    <glyph glyph-name="six.onum" horiz-adv-x="1198" 
d="M602 766q-145 0 -238 -94q-94 -94 -94 -240t92 -244q92 -96 236 -96t236 95t92 243t-89 242q-90 94 -235 94zM1075 428q0 -201 -135 -332t-344 -131t-343 132t-134 363q-1 230 193 512t446 488l116 -82q-158 -122 -300 -282t-216 -308l7 -4q96 100 277 100t307 -127
q126 -128 126 -329z" />
    <glyph glyph-name="k.sc" horiz-adv-x="1071" 
d="M328 1087v-481h4l489 481h203l-532 -497l563 -590h-209l-514 565h-4v-565h-144v1087h144z" />
    <glyph glyph-name="tcommaaccent.sc" horiz-adv-x="897" 
d="M553 -92l-156 -379h-116l127 379h145zM518 961v-961h-143v961h-350v126h847v-126h-354z" />
    <glyph glyph-name="r.sc" horiz-adv-x="1017" 
d="M328 961v-351h178q260 0 260 178q0 172 -250 173h-188zM328 485v-485h-144v1087h344q172 0 278 -71q105 -72 105 -228q-1 -118 -73 -192t-193 -92l305 -504h-174l-282 485h-166z" />
    <glyph glyph-name="lslash.sc" horiz-adv-x="862" 
d="M328 1087v-335l252 209v-144l-252 -209v-479h489v-129h-633v489l-168 -137v144l168 137v454h144z" />
    <glyph glyph-name="scaron.sc" horiz-adv-x="921" 
d="M788 1511l-223 -294h-164l-223 294h135l170 -221l170 221h135zM479 989q-87 0 -151 -45t-64 -133t63 -124q63 -37 143 -62t110 -35t83 -38q51 -28 77 -56q68 -77 69 -191q0 -160 -109 -245t-264 -85q-104 0 -200 42t-154 118l115 96q37 -59 101 -95t146 -36t151 50
t69 143q0 94 -71 134q-71 41 -197 78t-202 103t-75 208q-1 142 109 218q110 78 259 78q199 0 310 -127l-103 -98q-76 102 -215 102z" />
    <glyph glyph-name="icircumflex.sc" horiz-adv-x="512" 
d="M336 1511l223 -294h-135l-170 221l-170 -221h-135l223 294h164zM328 1087v-1087h-144v1087h144z" />
    <glyph glyph-name="itilde.sc" horiz-adv-x="512" 
d="M111 1464q55 0 153 -47t133 -47q76 0 101 103h88q-37 -213 -189 -213q-59 0 -149 47t-137 47q-76 -1 -101 -103h-88q37 213 189 213zM328 1087v-1087h-144v1087h144z" />
    <glyph glyph-name="s.sc" horiz-adv-x="921" 
d="M479 989q-87 0 -151 -45t-64 -133t63 -124q63 -37 143 -62t110 -35t83 -38q51 -28 77 -56q68 -77 69 -191q0 -160 -109 -245t-264 -85q-104 0 -200 42t-154 118l115 96q37 -59 101 -95t146 -36t151 50t69 143q0 94 -71 134q-71 41 -197 78t-202 103t-75 208
q-1 142 109 218q110 78 259 78q199 0 310 -127l-103 -98q-76 102 -215 102z" />
    <glyph glyph-name="hbar.sc" horiz-adv-x="1259" 
d="M328 627h604v161h-604v-161zM184 0v1087h144v-217h604v217h143v-1087h-143v502h-604v-502h-144z" />
    <glyph glyph-name="y.sc" horiz-adv-x="958" 
d="M549 0h-143v471l-406 616h172l307 -497l307 497h172l-409 -616v-471z" />
    <glyph glyph-name="kcommaaccent.sc" horiz-adv-x="1071" 
d="M659 -92l-155 -379h-117l127 379h145zM328 1087v-481h4l489 481h203l-532 -497l563 -590h-209l-514 565h-4v-565h-144v1087h144z" />
    <glyph glyph-name="zdotaccent.sc" horiz-adv-x="1019" 
d="M606 1389q0 -41 -30 -70t-68 -29q-39 0 -69 29t-29 70q0 41 30 69t68 29q38 -1 68 -29t30 -69zM901 1087v-122l-616 -836h626v-129h-802v125l614 836h-602v126h780z" />
    <glyph glyph-name="exclam.sc" horiz-adv-x="585" 
d="M401 96q-1 -45 -31 -77q-30 -31 -77 -31t-78 32t-31 76q0 45 31 77t78 32t77 -32t31 -77zM365 1087v-763h-144v763h144z" />
    <glyph glyph-name="a.sc" horiz-adv-x="1093" 
d="M545 922l-215 -525h426zM279 272l-115 -272h-152l469 1087h133l467 -1087h-161l-113 272h-528z" />
    <glyph glyph-name="h.sc" horiz-adv-x="1259" 
d="M184 0v1087h144v-460h604v460h143v-1087h-143v502h-604v-502h-144z" />
    <glyph glyph-name="m.sc" horiz-adv-x="1482" 
d="M1298 1087v-1087h-143v915h-4l-367 -915h-88l-366 915h-2v-915h-144v1087h226l333 -847h5l327 847h223z" />
    <glyph glyph-name="tilde.sc" 
d="M102 1464q56 0 154 -47t133 -47q76 0 100 103h89q-37 -213 -189 -213q-59 0 -149 47t-138 47q-75 -1 -100 -103h-88q37 213 188 213z" />
    <glyph glyph-name="grave.cap" 
d="M250 1565l-270 295h186l205 -295h-121z" />
    <glyph glyph-name="seven.onum" horiz-adv-x="1056" 
d="M100 954v133h863v-135q-371 -752 -603 -1327l-149 39q113 262 297 656t305 634h-713z" />
    <glyph glyph-name="tbar.sc" horiz-adv-x="897" 
d="M135 645v92h240v224h-350v126h847v-126h-354v-224h244v-92h-244v-645h-143v645h-240z" />
    <glyph glyph-name="acute.cap" 
d="M512 1860l-270 -295h-121l205 295h186z" />
    <glyph glyph-name="wcircumflex.sc" horiz-adv-x="1568" 
d="M868 1511l224 -294h-136l-170 221l-170 -221h-135l224 294h163zM199 1087l245 -878h5l256 878h161l256 -878h4l244 878h154l-320 -1087h-153l-265 885h-2l-268 -885h-151l-320 1087h154z" />
    <glyph glyph-name="ebreve.sc" horiz-adv-x="1021" 
d="M528 1241q-127 0 -210 73t-91 197h90q11 -79 71 -119t140 -40t140 40t71 119h90q-8 -125 -91 -197t-210 -73zM328 502v-373h571v-129h-715v1087h693v-126h-549v-334h516v-125h-516z" />
    <glyph glyph-name="ncommaaccent.sc" horiz-adv-x="1255" 
d="M725 -92l-156 -379h-116l127 379h145zM928 209v878h143v-1087h-180l-561 897h-2v-897h-144v1087h187l553 -878h4z" />
    <glyph glyph-name="three.onum" horiz-adv-x="1079" 
d="M950 145q0 -237 -160 -365t-413 -128q-135 0 -215 18l22 131q80 -20 189 -20q197 0 313 90q116 91 115 249t-99 240t-266 82q-100 0 -209 -32l-30 110q352 268 532 434v9h-582v124h756v-141q-154 -145 -481 -395v-8q45 10 86 10q186 0 314 -114t128 -294z" />
    <glyph glyph-name="one.onum" horiz-adv-x="788" 
d="M518 0h-145v903l-201 -170l-86 101l305 253h127v-1087z" />
    <glyph glyph-name="ntilde.sc" horiz-adv-x="1255" 
d="M483 1464q55 0 153 -47t134 -47q76 0 100 103h88q-37 -213 -188 -213q-59 0 -149 47t-138 47q-75 -1 -100 -103h-88q37 213 188 213zM928 209v878h143v-1087h-180l-561 897h-2v-897h-144v1087h187l553 -878h4z" />
    <glyph glyph-name="w.sc" horiz-adv-x="1568" 
d="M199 1087l245 -878h5l256 878h161l256 -878h4l244 878h154l-320 -1087h-153l-265 885h-2l-268 -885h-151l-320 1087h154z" />
    <glyph glyph-name="acute.sc" 
d="M512 1511l-270 -294h-121l205 294h186z" />
    <glyph glyph-name="four.sc" horiz-adv-x="991" 
d="M580 379v526h-5l-317 -526h322zM715 1087v-708h153v-125h-153v-254h-135v254h-476v125l447 708h164z" />
    <glyph glyph-name="Euro.sc" horiz-adv-x="991" 
d="M626 983q-108 0 -188 -70t-110 -202h438l-35 -107h-418q-6 -52 -6 -78t4 -67h381l-35 -107h-327q18 -102 95 -177t191 -75t211 72l56 -109q-119 -88 -287 -88t-279 113t-135 264h-127l39 107h74v10l-2 41q0 53 4 94h-113l39 107h88q39 184 161 293q123 108 273 108
t261 -63l-50 -117q-95 51 -203 51z" />
    <glyph glyph-name="dotaccent.cap" 
d="M344 1737q0 -41 -30 -70t-68 -29t-69 29q-30 29 -30 70t30 69t69 29q38 -1 68 -29t30 -69z" />
    <glyph glyph-name="aogonek.sc" horiz-adv-x="1093" 
d="M545 922l-215 -525h426zM938 -457q-90 0 -145 49t-56 125q0 135 183 283l-113 272h-528l-115 -272h-152l469 1087h133l467 -1087h-63q-84 -84 -121 -138t-37 -104t30 -76q30 -28 83 -28t94 45l39 -82q-78 -74 -168 -74z" />
    <glyph glyph-name="five.onum" horiz-adv-x="1062" 
d="M920 1087v-133h-562l-51 -405q72 20 150 20q197 -1 327 -113t129 -311q1 -241 -151 -367t-395 -126q-139 0 -228 20l21 129q86 -23 194 -22q196 0 304 92t108 257t-101 244t-239 79t-266 -43l78 679h682z" />
    <glyph glyph-name="florin.sc" horiz-adv-x="991" 
d="M752 688v-106h-187l-76 -484q-43 -274 -260 -274q-94 0 -151 47l51 106q39 -35 98 -34q96 0 121 153l76 486h-164v106h174l37 215q17 101 79 155t155 54t165 -61l-73 -95q-43 37 -90 37q-80 0 -99 -110l-33 -195h177z" />
    <glyph glyph-name="atilde.sc" horiz-adv-x="1093" 
d="M403 1464q55 0 153 -47t134 -47q76 0 101 103h88q-37 -213 -189 -213q-59 0 -149 47t-138 47q-75 -1 -100 -103h-88q37 213 188 213zM545 922l-215 -525h426zM279 272l-115 -272h-152l469 1087h133l467 -1087h-161l-113 272h-528z" />
    <glyph glyph-name="dollar.sc" horiz-adv-x="991" 
d="M279 823q-1 -73 39 -111t120 -61v328q-72 -4 -116 -44t-43 -112zM535 489v-376q75 6 121 53t46 125q1 143 -167 198zM145 814q0 124 82 195t211 78v119h97v-119q158 -6 274 -118l-96 -92q-84 100 -178 100v-354q155 -47 231 -127t76 -202t-88 -206t-219 -88v-125h-97v125
q-199 8 -329 164l104 88q39 -59 103 -98t122 -41v403q-137 39 -215 107q-78 67 -78 191z" />
    <glyph glyph-name="ccedilla.sc" horiz-adv-x="1144" 
d="M854 -305q0 -82 -72 -124t-173 -42t-189 41l33 74q63 -29 127 -29t107 23q44 23 44 67q0 80 -110 80q-45 0 -89 -16l-36 30l112 181q-219 24 -356 180t-137 396t163 398t412 158q116 0 224 -45t165 -125l-114 -88q-39 57 -114 93t-161 36q-188 0 -304 -126t-116 -313
q0 -186 115 -312t307 -126t293 146l115 -76q-135 -195 -406 -201l-80 -129q28 8 84 8t106 -38q50 -39 50 -121z" />
    <glyph glyph-name="gbreve.sc" horiz-adv-x="1263" 
d="M694 1241q-127 0 -210 73t-91 197h90q11 -79 71 -119t140 -40t140 40t71 119h90q-8 -125 -91 -197t-210 -73zM692 983q-190 0 -306 -126t-116 -313q0 -186 116 -312t294 -126t276 58v305h-243v125h387v-520q-178 -98 -420 -98t-404 159q-162 160 -162 411q0 250 164 408
q163 158 415 158t399 -143l-103 -103q-107 117 -297 117z" />
    <glyph glyph-name="lcaron.sc" horiz-adv-x="862" 
d="M735 1087l-155 -378h-117l127 378h145zM328 1087v-958h489v-129h-633v1087h144z" />
    <glyph glyph-name="racute.sc" horiz-adv-x="1017" 
d="M778 1511l-270 -294h-121l205 294h186zM328 961v-351h178q260 0 260 178q0 172 -250 173h-188zM328 485v-485h-144v1087h344q172 0 278 -71q105 -72 105 -228q-1 -118 -73 -192t-193 -92l305 -504h-174l-282 485h-166z" />
    <glyph glyph-name="dcroat.sc" horiz-adv-x="1253" 
d="M328 961v-340h297v-107h-297v-385h196q207 0 334 114q127 115 127 305t-126 302t-335 111h-196zM35 514v107h149v466h371q223 0 395 -126q86 -63 137 -171t51 -243t-52 -243q-95 -195 -323 -270q-101 -34 -208 -34h-371v514h-149z" />
    <glyph glyph-name="four.onum" horiz-adv-x="1165" 
d="M1112 16h-238v-364h-141v364h-643v134l572 966h155l-579 -973h495v523h141v-523h238v-127z" />
    <glyph glyph-name="tilde.cap" 
d="M102 1802q56 0 154 -47t133 -47q76 0 100 102h89q-37 -213 -189 -213q-59 -1 -149 47t-138 48q-75 -1 -100 -103h-88q37 213 188 213z" />
    <glyph glyph-name="utilde.sc" horiz-adv-x="1171" 
d="M446 1464q56 0 154 -47t133 -47q76 0 101 103h88q-37 -213 -189 -213q-59 0 -149 47t-138 47q-75 -1 -100 -103h-88q37 213 188 213zM1004 408q0 -180 -106 -306t-313 -127q-206 0 -312 126q-105 126 -105 307v679h143v-669q0 -133 66 -222q66 -90 209 -90t209 90t65 222
v669h144v-679z" />
    <glyph glyph-name="acircumflex.sc" horiz-adv-x="1093" 
d="M629 1511l223 -294h-135l-170 221l-170 -221h-135l223 294h164zM545 922l-215 -525h426zM279 272l-115 -272h-152l469 1087h133l467 -1087h-161l-113 272h-528z" />
    <glyph glyph-name="fi.sc" horiz-adv-x="1486" 
d="M1303 1087v-1087h-144v1087h144zM328 492v-492h-144v1087h674v-126h-530v-345h497v-124h-497z" />
    <glyph glyph-name="ldot.sc" horiz-adv-x="862" 
d="M684 651q0 -41 -30 -69t-68 -29q-38 0 -69 29q-30 30 -30 70t30 69t69 29q38 0 68 -29t30 -70zM328 1087v-958h489v-129h-633v1087h144z" />
    <glyph glyph-name="zero.sc" horiz-adv-x="991" 
d="M283 586q0 -484 213 -484q112 0 162 130t50 304t-47 312q-48 139 -165 139q-60 0 -104 -40q-44 -39 -76 -137t-33 -224zM495 1112q276 0 350 -359q19 -97 19 -210q0 -230 -80 -388q-40 -83 -114 -131t-175 -48q-279 -1 -350 358q-18 96 -18 209q0 233 78 389
q88 180 290 180z" />
    <glyph glyph-name="b.sc" horiz-adv-x="1056" 
d="M328 502v-373h194q274 0 275 186q0 186 -260 187h-209zM328 961v-334h202q94 0 156 43q61 43 62 129q0 162 -242 162h-178zM184 0v1087h367q141 0 241 -65q99 -66 99 -209q0 -176 -168 -240v-4q101 -20 161 -87t60 -175q0 -147 -115 -227t-294 -80h-351z" />
    <glyph glyph-name="caron.cap" 
d="M551 1860l-223 -295h-164l-223 295h135l170 -222l170 222h135z" />
    <glyph glyph-name="two.sc" horiz-adv-x="991" 
d="M848 129v-129h-707v139l428 426q121 121 121 240q0 82 -51 130t-133 48q-160 0 -201 -184l-141 28q29 133 119 209t229 76t231 -79q93 -79 93 -233t-174 -329l-347 -342h533z" />
    <glyph glyph-name="dotaccent.sc" 
d="M344 1389q0 -41 -30 -70t-68 -29t-69 29q-30 29 -30 70t30 69t69 29q38 -1 68 -29t30 -69z" />
    <glyph glyph-name="yen.sc" horiz-adv-x="991" 
d="M193 342h239v135h-239v107h215l-349 503h160l283 -430l276 430h154l-344 -503h219v-107h-240v-135h240v-106h-240v-236h-135v236h-239v106z" />
    <glyph glyph-name="scedilla.sc" horiz-adv-x="921" 
d="M479 989q-87 0 -151 -45t-64 -133t63 -124q63 -37 143 -62t110 -35t83 -38q51 -28 77 -56q68 -77 69 -207q0 -129 -92 -213t-230 -96l-81 -134q27 8 83 8t106 -38q50 -39 50 -121t-72 -124t-173 -42t-189 41l33 74q62 -29 126 -29t108 23t44 67q0 80 -110 80
q-45 0 -88 -16l-37 30l112 178q-213 18 -317 158l115 96q37 -59 101 -95t146 -36t151 50t69 143q0 94 -71 134q-71 41 -197 78t-202 103t-75 208q-1 142 109 218q110 78 259 78q199 0 310 -127l-103 -98q-76 102 -215 102z" />
    <glyph glyph-name="cent.sc" horiz-adv-x="991" 
d="M631 -147h-99v129q-198 20 -314 158t-116 339t116 339t314 159v129h99v-125q201 -10 330 -164l-111 -84q-33 51 -90 86t-129 39v-758q72 4 129 39t90 86l111 -84q-129 -154 -330 -164v-124zM250 480q0 -146 76 -250t206 -126v750q-130 -23 -206 -126q-76 -102 -76 -248z
" />
    <glyph glyph-name="uogonek.sc" horiz-adv-x="1171" 
d="M614 -457q-90 0 -145 49t-55 125q0 127 151 258q-197 9 -297 133t-100 300v679h143v-669q0 -133 66 -222q66 -90 209 -90t209 90t65 222v669h144v-679q0 -158 -83 -278t-245 -146q-74 -78 -107 -128t-33 -98t30 -76t83 -28t94 45l39 -82q-78 -74 -168 -74z" />
    <glyph glyph-name="emacron.sc" horiz-adv-x="1021" 
d="M815 1401v-111h-553v111h553zM328 502v-373h571v-129h-715v1087h693v-126h-549v-334h516v-125h-516z" />
    <glyph glyph-name="rcaron.sc" horiz-adv-x="1017" 
d="M825 1511l-223 -294h-164l-223 294h135l170 -221l170 221h135zM328 961v-351h178q260 0 260 178q0 172 -250 173h-188zM328 485v-485h-144v1087h344q172 0 278 -71q105 -72 105 -228q-1 -118 -73 -192t-193 -92l305 -504h-174l-282 485h-166z" />
    <glyph glyph-name="eth.sc" horiz-adv-x="1253" 
d="M328 961v-340h297v-107h-297v-385h196q207 0 334 114q127 115 127 305t-126 302t-335 111h-196zM35 514v107h149v466h371q223 0 395 -126q86 -63 137 -171t51 -243t-52 -243q-95 -195 -323 -270q-101 -34 -208 -34h-371v514h-149z" />
    <glyph glyph-name="ampersand.sc" horiz-adv-x="1142" 
d="M250 285q0 -85 55 -137t144 -52q159 0 247 133l-276 287q-170 -86 -170 -231zM635 868q0 56 -38 92t-93 36t-98 -41q-44 -41 -44 -113t95 -172q178 85 178 198zM446 -25q-145 0 -244 84t-100 228q0 193 234 319q-113 133 -113 250q0 116 79 186t202 70q122 0 196 -64
t74 -180q0 -168 -233 -284l231 -238l137 240h158l-199 -336l248 -250h-198l-130 135q-131 -160 -342 -160z" />
    <glyph glyph-name="eight.onum" horiz-adv-x="1179" 
d="M905 398q0 134 -90 222t-225 87q-135 0 -225 -87q-91 -88 -91 -222t87 -220t227 -86t229 86q88 86 88 220zM589 831q113 0 191 78t78 190q0 113 -78 187t-191 74q-114 0 -190 -74q-75 -74 -75 -188t76 -190q76 -77 189 -77zM1057 391q0 -193 -134 -309t-333 -115
q-199 0 -333 116t-134 308q0 137 78 239t205 138v4q-106 39 -169 128q-62 89 -63 202q0 170 120 275t296 105t295 -104t119 -274q0 -113 -62 -204t-170 -128v-4q131 -36 208 -138t77 -239z" />
    <glyph glyph-name="ncaron.sc" horiz-adv-x="1255" 
d="M936 1511l-223 -294h-164l-223 294h135l170 -221l170 221h135zM928 209v878h143v-1087h-180l-561 897h-2v-897h-144v1087h187l553 -878h4z" />
    <glyph glyph-name="x.sc" horiz-adv-x="1003" 
d="M233 1087l269 -411l264 411h170l-346 -514l393 -573h-180l-301 465l-301 -465h-181l392 573l-357 514h178z" />
    <glyph glyph-name="breve.sc" 
d="M246 1241q-127 0 -210 73t-91 197h90q12 -79 71 -119q60 -40 140 -40t140 40t71 119h90q-8 -125 -91 -197t-210 -73z" />
    <glyph glyph-name="fl.sc" horiz-adv-x="1839" 
d="M1305 1087v-958h489v-129h-633v1087h144zM328 492v-492h-144v1087h674v-126h-530v-345h497v-124h-497z" />
    <glyph glyph-name="dcaron.sc" horiz-adv-x="1253" 
d="M905 1511l-223 -294h-164l-223 294h135l170 -221l170 221h135zM328 961v-832h196q207 0 334 114q127 115 127 305t-126 302t-335 111h-196zM184 0v1087h371q223 0 395 -126q86 -63 137 -171t51 -243t-52 -243q-95 -195 -323 -270q-101 -34 -208 -34h-371z" />
    <glyph glyph-name="agrave.sc" horiz-adv-x="1093" 
d="M483 1217l-270 294h186l205 -294h-121zM545 922l-215 -525h426zM279 272l-115 -272h-152l469 1087h133l467 -1087h-161l-113 272h-528z" />
    <glyph glyph-name="rcommaaccent.sc" horiz-adv-x="1017" 
d="M631 -92l-156 -379h-117l127 379h146zM328 961v-351h178q260 0 260 178q0 172 -250 173h-188zM328 485v-485h-144v1087h344q172 0 278 -71q105 -72 105 -228q-1 -118 -73 -192t-193 -92l305 -504h-174l-282 485h-166z" />
    <glyph glyph-name="u.sc" horiz-adv-x="1171" 
d="M1004 408q0 -180 -106 -306t-313 -127q-206 0 -312 126q-105 126 -105 307v679h143v-669q0 -133 66 -222q66 -90 209 -90t209 90t65 222v669h144v-679z" />
    <glyph glyph-name="uacute.sc" horiz-adv-x="1171" 
d="M891 1511l-270 -294h-121l205 294h186zM1004 408q0 -180 -106 -306t-313 -127q-206 0 -312 126q-105 126 -105 307v679h143v-669q0 -133 66 -222q66 -90 209 -90t209 90t65 222v669h144v-679z" />
    <glyph glyph-name="zero.onum" horiz-adv-x="1411" 
d="M1126 547q0 190 -115 314t-307 124t-306 -124t-114 -314t115 -317q115 -126 304 -126t307 126q116 127 116 317zM704 -27q-250 0 -414 162t-163 413q0 252 163 410q162 158 414 158t416 -158t164 -410q0 -253 -165 -414t-415 -161z" />
    <glyph glyph-name="eacute.sc" horiz-adv-x="1021" 
d="M834 1511l-271 -294h-121l205 294h187zM328 502v-373h571v-129h-715v1087h693v-126h-549v-334h516v-125h-516z" />
    <glyph glyph-name="dotlessj" horiz-adv-x="514" 
d="M188 958h140v-1148q0 -301 -273 -302q-61 1 -110 15l20 117q41 -12 88 -13q82 0 109 51t26 154v1126z" />
    <glyph glyph-name="eight.sc" horiz-adv-x="991" 
d="M496 983q-76 0 -126 -49t-51 -126t51 -123t125 -46t123 46t52 123q0 77 -49 126t-125 49zM285 309q0 -88 58 -145q59 -58 153 -58t151 58t58 145q-1 87 -59 143t-150 56t-152 -55q-59 -56 -59 -144zM809 813q0 -80 -42 -142t-110 -91v-5q88 -35 140 -107q51 -73 51 -173
q0 -145 -99 -233t-254 -87q-155 0 -254 87t-100 233q0 100 50 173t139 107v5q-66 29 -108 91t-42 142q0 133 91 216t223 83t224 -83q91 -83 91 -216z" />
    <glyph glyph-name="dieresis.sc" 
d="M338 1386q0 41 30 73t74 32t75 -32q30 -32 30 -73q0 -40 -30 -72t-75 -32q-44 0 -74 32t-30 72zM-55 1386q0 41 29 73q30 32 75 32t75 -32t30 -73q0 -40 -30 -72t-75 -32t-75 32t-29 72z" />
    <glyph glyph-name="edieresis.sc" horiz-adv-x="1021" 
d="M625 1386q0 41 29 73q30 32 75 32t75 -32t30 -73q0 -40 -30 -72t-75 -32t-75 32t-29 72zM231 1386q0 41 30 73t75 32t75 -32q29 -32 29 -73q0 -40 -30 -72t-74 -32q-45 0 -75 32t-30 72zM328 502v-373h571v-129h-715v1087h693v-126h-549v-334h516v-125h-516z" />
    <glyph glyph-name="caron.alt" 
d="M449 1450l-156 -379h-117l127 379h146z" />
    <glyph glyph-name="amacron.sc" horiz-adv-x="1093" 
d="M823 1401v-111h-553v111h553zM545 922l-215 -525h426zM279 272l-115 -272h-152l469 1087h133l467 -1087h-161l-113 272h-528z" />
    <glyph glyph-name="ccircumflex.sc" horiz-adv-x="1144" 
d="M770 1511l223 -294h-135l-170 221l-170 -221h-135l223 294h164zM698 -25q-262 0 -423 160t-161 411q0 250 164 408q163 158 412 158q116 0 224 -45t165 -125l-114 -88q-39 57 -114 93t-161 36q-188 0 -304 -126t-116 -313q0 -186 115 -312t307 -126t293 146l115 -76
q-140 -201 -402 -201z" />
    <glyph glyph-name="g.sc" horiz-adv-x="1263" 
d="M692 983q-190 0 -306 -126t-116 -313q0 -186 116 -312t294 -126t276 58v305h-243v125h387v-520q-178 -98 -420 -98t-404 159q-162 160 -162 411q0 250 164 408q163 158 415 158t399 -143l-103 -103q-107 117 -297 117z" />
    <glyph glyph-name="ecaron.sc" horiz-adv-x="1021" 
d="M842 1511l-224 -294h-163l-224 294h136l170 -221l170 221h135zM328 502v-373h571v-129h-715v1087h693v-126h-549v-334h516v-125h-516z" />
    <glyph glyph-name="eogonek.sc" horiz-adv-x="1021" 
d="M779 -457q-91 0 -145 49t-54 125q0 135 182 283h-578v1087h693v-126h-549v-334h516v-125h-516v-373h571v-129h-39q-84 -84 -121 -138t-37 -104t30 -76q30 -28 83 -28t94 45l39 -82q-78 -74 -169 -74z" />
    <glyph glyph-name="lcommaaccent.sc" horiz-adv-x="862" 
d="M610 -92l-155 -379h-117l127 379h145zM328 1087v-958h489v-129h-633v1087h144z" />
    <glyph glyph-name="ae.sc" horiz-adv-x="1595" 
d="M758 418v543h-21l-346 -543h367zM901 502v-373h572v-129h-715v293h-445l-188 -293h-166l707 1087h784v-126h-549v-334h516v-125h-516z" />
    <glyph glyph-name="ccaron.sc" horiz-adv-x="1144" 
d="M991 1511l-223 -294h-164l-223 294h135l170 -221l170 221h135zM698 -25q-262 0 -423 160t-161 411q0 250 164 408q163 158 412 158q116 0 224 -45t165 -125l-114 -88q-39 57 -114 93t-161 36q-188 0 -304 -126t-116 -313q0 -186 115 -312t307 -126t293 146l115 -76
q-140 -201 -402 -201z" />
    <glyph glyph-name="v.sc" horiz-adv-x="1017" 
d="M174 1087l334 -901h4l332 901h157l-423 -1087h-138l-424 1087h158z" />
    <glyph glyph-name="thorn.sc" horiz-adv-x="1005" 
d="M330 745v-350h178q260 0 260 183q0 86 -59 127t-199 40h-180zM186 0v1087h144v-215h196q387 0 387 -294q0 -144 -101 -226t-294 -82h-188v-270h-144z" />
    <glyph glyph-name="ring.cap" 
d="M369 1741q0 51 -36 86t-87 35t-87 -35t-36 -86t36 -86t87 -35t87 35t36 86zM442 1741q0 -82 -58 -138q-58 -57 -138 -57t-138 56t-59 139q1 82 59 138t138 56t138 -56t58 -138z" />
    <glyph glyph-name="e.sc" horiz-adv-x="1021" 
d="M328 502v-373h571v-129h-715v1087h693v-126h-549v-334h516v-125h-516z" />
    <glyph glyph-name="abreve.sc" horiz-adv-x="1093" 
d="M547 1241q-127 0 -210 73t-91 197h90q12 -79 72 -119t139 -40t139 40t72 119h90q-8 -125 -91 -197t-210 -73zM545 922l-215 -525h426zM279 272l-115 -272h-152l469 1087h133l467 -1087h-161l-113 272h-528z" />
    <glyph glyph-name="adieresis.sc" horiz-adv-x="1093" 
d="M639 1386q0 41 30 73q31 32 75 32t74 -32t30 -73q0 -40 -30 -72t-75 -32t-75 32t-29 72zM246 1386q0 41 29 73q30 32 75 32t75 -32t30 -73q0 -40 -30 -72t-75 -32q-44 0 -74 32t-30 72zM545 922l-215 -525h426zM279 272l-115 -272h-152l469 1087h133l467 -1087h-161
l-113 272h-528z" />
    <glyph glyph-name="five.sc" horiz-adv-x="991" 
d="M256 254q40 -148 217 -148q83 0 147 64t64 168t-68 169t-178 65t-229 -74l10 589h578v-126h-441l-8 -287q55 18 119 18q168 0 265 -94t97 -254t-102 -264t-268 -105q-119 1 -209 61t-125 161z" />
    <glyph glyph-name="ecircumflex.sc" horiz-adv-x="1021" 
d="M608 1511l223 -294h-135l-170 221l-170 -221h-135l223 294h164zM328 502v-373h571v-129h-715v1087h693v-126h-549v-334h516v-125h-516z" />
    <glyph glyph-name="circumflex.cap" 
d="M328 1860l223 -295h-135l-170 221l-170 -221h-135l223 295h164z" />
    <glyph glyph-name="commaaccent" 
d="M371 -92l-156 -379h-117l127 379h146z" />
    <glyph glyph-name="cacute.sc" horiz-adv-x="1144" 
d="M946 1511l-270 -294h-121l205 294h186zM698 -25q-262 0 -423 160t-161 411q0 250 164 408q163 158 412 158q116 0 224 -45t165 -125l-114 -88q-39 57 -114 93t-161 36q-188 0 -304 -126t-116 -313q0 -186 115 -312t307 -126t293 146l115 -76q-140 -201 -402 -201z" />
    <glyph glyph-name="breve.cap" 
d="M246 1589q-127 0 -210 73t-91 198h90q12 -78 71 -119q60 -41 140 -41t140 41t71 119h90q-8 -125 -91 -198t-210 -73z" />
    <glyph glyph-name="edotaccent.sc" horiz-adv-x="1021" 
d="M639 1389q0 -41 -30 -70q-31 -29 -69 -29t-68 29t-30 70t30 69t69 29q39 -1 69 -29t29 -69zM328 502v-373h571v-129h-715v1087h693v-126h-549v-334h516v-125h-516z" />
    <glyph glyph-name="six.sc" horiz-adv-x="991" 
d="M281 327q0 -95 61 -157q62 -62 156 -64q94 0 153 62t59 158t-58 158q-60 62 -156 62t-156 -62t-59 -157zM516 664q146 0 242 -92t96 -244q0 -154 -99 -253t-258 -99t-259 96q-100 98 -100 246t98 300l292 469h164l-291 -448q51 25 115 25z" />
    <glyph glyph-name="egrave.sc" horiz-adv-x="1021" 
d="M508 1217l-270 294h186l205 -294h-121zM328 502v-373h571v-129h-715v1087h693v-126h-549v-334h516v-125h-516z" />
    <glyph glyph-name="c.sc" horiz-adv-x="1144" 
d="M698 -25q-262 0 -423 160t-161 411q0 250 164 408q163 158 412 158q116 0 224 -45t165 -125l-114 -88q-39 57 -114 93t-161 36q-188 0 -304 -126t-116 -313q0 -186 115 -312t307 -126t293 146l115 -76q-140 -201 -402 -201z" />
    <glyph glyph-name="circumflex.sc" 
d="M328 1511l223 -294h-135l-170 221l-170 -221h-135l223 294h164z" />
    <glyph glyph-name="t.sc" horiz-adv-x="897" 
d="M518 961v-961h-143v961h-350v126h847v-126h-354z" />
    <glyph glyph-name="dieresis.cap" 
d="M338 1735q0 41 30 73t74 31q44 0 75 -32q30 -33 30 -73t-30 -72t-75 -32q-44 0 -74 32t-30 73zM-55 1735q-1 41 29 73t75 31q45 0 75 -32q30 -33 30 -73t-30 -72t-75 -32t-75 32q-29 32 -29 73z" />
    <glyph glyph-name="sacute.sc" horiz-adv-x="921" 
d="M739 1511l-270 -294h-121l205 294h186zM479 989q-87 0 -151 -45t-64 -133t63 -124q63 -37 143 -62t110 -35t83 -38q51 -28 77 -56q68 -77 69 -191q0 -160 -109 -245t-264 -85q-104 0 -200 42t-154 118l115 96q37 -59 101 -95t146 -36t151 50t69 143q0 94 -71 134
q-71 41 -197 78t-202 103t-75 208q-1 142 109 218q110 78 259 78q199 0 310 -127l-103 -98q-76 102 -215 102z" />
    <glyph glyph-name="caron.sc" 
d="M551 1511l-223 -294h-164l-223 294h135l170 -221l170 221h135z" />
    <glyph glyph-name="d.sc" horiz-adv-x="1253" 
d="M328 961v-832h196q207 0 334 114q127 115 127 305t-126 302t-335 111h-196zM184 0v1087h371q223 0 395 -126q86 -63 137 -171t51 -243t-52 -243q-95 -195 -323 -270q-101 -34 -208 -34h-371z" />
    <glyph glyph-name="cdotaccent.sc" horiz-adv-x="1144" 
d="M788 1389q0 -41 -30 -70t-68 -29t-68 29t-30 70t30 69t68 29q38 -1 68 -29t30 -69zM698 -25q-262 0 -423 160t-161 411q0 250 164 408q163 158 412 158q116 0 224 -45t165 -125l-114 -88q-39 57 -114 93t-161 36q-188 0 -304 -126t-116 -313q0 -186 115 -312t307 -126
t293 146l115 -76q-140 -201 -402 -201z" />
    <glyph glyph-name="f.sc" horiz-adv-x="960" 
d="M328 492v-492h-144v1087h674v-126h-530v-345h497v-124h-497z" />
    <glyph glyph-name="commaaccent.alt" 
d="M197 1155l155 379h117l-127 -379h-145z" />
    <glyph glyph-name="tcaron.sc" horiz-adv-x="897" 
d="M754 1511l-224 -294h-163l-224 294h136l170 -221l169 221h136zM518 961v-961h-143v961h-350v126h847v-126h-354z" />
    <glyph glyph-name="gdotaccent.sc" horiz-adv-x="1263" 
d="M786 1389q0 -41 -30 -70t-68 -29t-68 29t-30 70t30 69t68 29q38 -1 68 -29t30 -69zM692 983q-190 0 -306 -126t-116 -313q0 -186 116 -312t294 -126t276 58v305h-243v125h387v-520q-178 -98 -420 -98t-404 159q-162 160 -162 411q0 250 164 408q163 158 415 158t399 -143
l-103 -103q-107 117 -297 117z" />
    <glyph glyph-name="gcommaaccent.sc" horiz-adv-x="1263" 
d="M780 -92l-155 -379h-117l127 379h145zM692 983q-190 0 -306 -126t-116 -313q0 -186 116 -312t294 -126t276 58v305h-243v125h387v-520q-178 -98 -420 -98t-404 159q-162 160 -162 411q0 250 164 408q163 158 415 158t399 -143l-103 -103q-107 117 -297 117z" />
    <glyph glyph-name="gcircumflex.sc" horiz-adv-x="1263" 
d="M774 1511l223 -294h-135l-170 221l-170 -221h-135l223 294h164zM692 983q-190 0 -306 -126t-116 -313q0 -186 116 -312t294 -126t276 58v305h-243v125h387v-520q-178 -98 -420 -98t-404 159q-162 160 -162 411q0 250 164 408q163 158 415 158t399 -143l-103 -103
q-107 117 -297 117z" />
    </font>
</defs>
</svg>
